<?xml version="1.0" encoding="utf-8" standalone="no"?>
<!DOCTYPE svg PUBLIC "-//W3C//DTD SVG 1.1//EN"
  "http://www.w3.org/Graphics/SVG/1.1/DTD/svg11.dtd">
<svg xmlns:xlink="http://www.w3.org/1999/xlink" width="460.8pt" height="345.6pt" viewBox="0 0 460.8 345.6" xmlns="http://www.w3.org/2000/svg" version="1.1">
 <metadata>
  <rdf:RDF xmlns:dc="http://purl.org/dc/elements/1.1/" xmlns:cc="http://creativecommons.org/ns#" xmlns:rdf="http://www.w3.org/1999/02/22-rdf-syntax-ns#">
   <cc:Work>
    <dc:type rdf:resource="http://purl.org/dc/dcmitype/StillImage"/>
    <dc:date>2024-01-25T18:58:04.960183</dc:date>
    <dc:format>image/svg+xml</dc:format>
    <dc:creator>
     <cc:Agent>
      <dc:title>Matplotlib v3.8.2, https://matplotlib.org/</dc:title>
     </cc:Agent>
    </dc:creator>
   </cc:Work>
  </rdf:RDF>
 </metadata>
 <defs>
  <style type="text/css">*{stroke-linejoin: round; stroke-linecap: butt}</style>
 </defs>
 <g id="figure_1">
  <g id="patch_1">
   <path d="M 0 345.6 
L 460.8 345.6 
L 460.8 0 
L 0 0 
z
" style="fill: #ffffff"/>
  </g>
  <g id="axes_1">
   <g id="patch_2">
    <path d="M 57.6 307.584 
L 414.72 307.584 
L 414.72 41.472 
L 57.6 41.472 
z
" style="fill: #ffffff"/>
   </g>
   <g id="matplotlib.axis_1">
    <g id="xtick_1">
     <g id="line2d_1">
      <defs>
       <path id="m26cfa951bf" d="M 0 0 
L 0 3.5 
" style="stroke: #000000; stroke-width: 0.8"/>
      </defs>
      <g>
       <use xlink:href="#m26cfa951bf" x="73.829655" y="307.584" style="stroke: #000000; stroke-width: 0.8"/>
      </g>
     </g>
     <g id="text_1">
      <!-- 0 -->
      <g transform="translate(70.648405 322.182437) scale(0.1 -0.1)">
       <defs>
        <path id="DejaVuSans-30" d="M 2034 4250 
Q 1547 4250 1301 3770 
Q 1056 3291 1056 2328 
Q 1056 1369 1301 889 
Q 1547 409 2034 409 
Q 2525 409 2770 889 
Q 3016 1369 3016 2328 
Q 3016 3291 2770 3770 
Q 2525 4250 2034 4250 
z
M 2034 4750 
Q 2819 4750 3233 4129 
Q 3647 3509 3647 2328 
Q 3647 1150 3233 529 
Q 2819 -91 2034 -91 
Q 1250 -91 836 529 
Q 422 1150 422 2328 
Q 422 3509 836 4129 
Q 1250 4750 2034 4750 
z
" transform="scale(0.015625)"/>
       </defs>
       <use xlink:href="#DejaVuSans-30"/>
      </g>
     </g>
    </g>
    <g id="xtick_2">
     <g id="line2d_2">
      <g>
       <use xlink:href="#m26cfa951bf" x="135.280626" y="307.584" style="stroke: #000000; stroke-width: 0.8"/>
      </g>
     </g>
     <g id="text_2">
      <!-- 2 -->
      <g transform="translate(132.099376 322.182437) scale(0.1 -0.1)">
       <defs>
        <path id="DejaVuSans-32" d="M 1228 531 
L 3431 531 
L 3431 0 
L 469 0 
L 469 531 
Q 828 903 1448 1529 
Q 2069 2156 2228 2338 
Q 2531 2678 2651 2914 
Q 2772 3150 2772 3378 
Q 2772 3750 2511 3984 
Q 2250 4219 1831 4219 
Q 1534 4219 1204 4116 
Q 875 4013 500 3803 
L 500 4441 
Q 881 4594 1212 4672 
Q 1544 4750 1819 4750 
Q 2544 4750 2975 4387 
Q 3406 4025 3406 3419 
Q 3406 3131 3298 2873 
Q 3191 2616 2906 2266 
Q 2828 2175 2409 1742 
Q 1991 1309 1228 531 
z
" transform="scale(0.015625)"/>
       </defs>
       <use xlink:href="#DejaVuSans-32"/>
      </g>
     </g>
    </g>
    <g id="xtick_3">
     <g id="line2d_3">
      <g>
       <use xlink:href="#m26cfa951bf" x="196.731598" y="307.584" style="stroke: #000000; stroke-width: 0.8"/>
      </g>
     </g>
     <g id="text_3">
      <!-- 4 -->
      <g transform="translate(193.550348 322.182437) scale(0.1 -0.1)">
       <defs>
        <path id="DejaVuSans-34" d="M 2419 4116 
L 825 1625 
L 2419 1625 
L 2419 4116 
z
M 2253 4666 
L 3047 4666 
L 3047 1625 
L 3713 1625 
L 3713 1100 
L 3047 1100 
L 3047 0 
L 2419 0 
L 2419 1100 
L 313 1100 
L 313 1709 
L 2253 4666 
z
" transform="scale(0.015625)"/>
       </defs>
       <use xlink:href="#DejaVuSans-34"/>
      </g>
     </g>
    </g>
    <g id="xtick_4">
     <g id="line2d_4">
      <g>
       <use xlink:href="#m26cfa951bf" x="258.182569" y="307.584" style="stroke: #000000; stroke-width: 0.8"/>
      </g>
     </g>
     <g id="text_4">
      <!-- 6 -->
      <g transform="translate(255.001319 322.182437) scale(0.1 -0.1)">
       <defs>
        <path id="DejaVuSans-36" d="M 2113 2584 
Q 1688 2584 1439 2293 
Q 1191 2003 1191 1497 
Q 1191 994 1439 701 
Q 1688 409 2113 409 
Q 2538 409 2786 701 
Q 3034 994 3034 1497 
Q 3034 2003 2786 2293 
Q 2538 2584 2113 2584 
z
M 3366 4563 
L 3366 3988 
Q 3128 4100 2886 4159 
Q 2644 4219 2406 4219 
Q 1781 4219 1451 3797 
Q 1122 3375 1075 2522 
Q 1259 2794 1537 2939 
Q 1816 3084 2150 3084 
Q 2853 3084 3261 2657 
Q 3669 2231 3669 1497 
Q 3669 778 3244 343 
Q 2819 -91 2113 -91 
Q 1303 -91 875 529 
Q 447 1150 447 2328 
Q 447 3434 972 4092 
Q 1497 4750 2381 4750 
Q 2619 4750 2861 4703 
Q 3103 4656 3366 4563 
z
" transform="scale(0.015625)"/>
       </defs>
       <use xlink:href="#DejaVuSans-36"/>
      </g>
     </g>
    </g>
    <g id="xtick_5">
     <g id="line2d_5">
      <g>
       <use xlink:href="#m26cfa951bf" x="319.633541" y="307.584" style="stroke: #000000; stroke-width: 0.8"/>
      </g>
     </g>
     <g id="text_5">
      <!-- 8 -->
      <g transform="translate(316.452291 322.182437) scale(0.1 -0.1)">
       <defs>
        <path id="DejaVuSans-38" d="M 2034 2216 
Q 1584 2216 1326 1975 
Q 1069 1734 1069 1313 
Q 1069 891 1326 650 
Q 1584 409 2034 409 
Q 2484 409 2743 651 
Q 3003 894 3003 1313 
Q 3003 1734 2745 1975 
Q 2488 2216 2034 2216 
z
M 1403 2484 
Q 997 2584 770 2862 
Q 544 3141 544 3541 
Q 544 4100 942 4425 
Q 1341 4750 2034 4750 
Q 2731 4750 3128 4425 
Q 3525 4100 3525 3541 
Q 3525 3141 3298 2862 
Q 3072 2584 2669 2484 
Q 3125 2378 3379 2068 
Q 3634 1759 3634 1313 
Q 3634 634 3220 271 
Q 2806 -91 2034 -91 
Q 1263 -91 848 271 
Q 434 634 434 1313 
Q 434 1759 690 2068 
Q 947 2378 1403 2484 
z
M 1172 3481 
Q 1172 3119 1398 2916 
Q 1625 2713 2034 2713 
Q 2441 2713 2670 2916 
Q 2900 3119 2900 3481 
Q 2900 3844 2670 4047 
Q 2441 4250 2034 4250 
Q 1625 4250 1398 4047 
Q 1172 3844 1172 3481 
z
" transform="scale(0.015625)"/>
       </defs>
       <use xlink:href="#DejaVuSans-38"/>
      </g>
     </g>
    </g>
    <g id="xtick_6">
     <g id="line2d_6">
      <g>
       <use xlink:href="#m26cfa951bf" x="381.084513" y="307.584" style="stroke: #000000; stroke-width: 0.8"/>
      </g>
     </g>
     <g id="text_6">
      <!-- 10 -->
      <g transform="translate(374.722013 322.182437) scale(0.1 -0.1)">
       <defs>
        <path id="DejaVuSans-31" d="M 794 531 
L 1825 531 
L 1825 4091 
L 703 3866 
L 703 4441 
L 1819 4666 
L 2450 4666 
L 2450 531 
L 3481 531 
L 3481 0 
L 794 0 
L 794 531 
z
" transform="scale(0.015625)"/>
       </defs>
       <use xlink:href="#DejaVuSans-31"/>
       <use xlink:href="#DejaVuSans-30" x="63.623047"/>
      </g>
     </g>
    </g>
    <g id="text_7">
     <!-- $r ~ [km]$ -->
     <g transform="translate(220.81 335.860562) scale(0.1 -0.1)">
      <defs>
       <path id="DejaVuSans-Oblique-72" d="M 2853 2969 
Q 2766 3016 2653 3041 
Q 2541 3066 2413 3066 
Q 1953 3066 1609 2717 
Q 1266 2369 1153 1784 
L 800 0 
L 225 0 
L 909 3500 
L 1484 3500 
L 1375 2956 
Q 1603 3259 1920 3421 
Q 2238 3584 2597 3584 
Q 2691 3584 2781 3573 
Q 2872 3563 2963 3538 
L 2853 2969 
z
" transform="scale(0.015625)"/>
       <path id="DejaVuSans-5b" d="M 550 4863 
L 1875 4863 
L 1875 4416 
L 1125 4416 
L 1125 -397 
L 1875 -397 
L 1875 -844 
L 550 -844 
L 550 4863 
z
" transform="scale(0.015625)"/>
       <path id="DejaVuSans-Oblique-6b" d="M 1172 4863 
L 1747 4863 
L 1197 2028 
L 3169 3500 
L 3916 3500 
L 1716 1825 
L 3322 0 
L 2625 0 
L 1131 1709 
L 800 0 
L 225 0 
L 1172 4863 
z
" transform="scale(0.015625)"/>
       <path id="DejaVuSans-Oblique-6d" d="M 5747 2113 
L 5338 0 
L 4763 0 
L 5166 2094 
Q 5191 2228 5203 2325 
Q 5216 2422 5216 2491 
Q 5216 2772 5059 2928 
Q 4903 3084 4622 3084 
Q 4203 3084 3875 2770 
Q 3547 2456 3450 1953 
L 3066 0 
L 2491 0 
L 2900 2094 
Q 2925 2209 2937 2307 
Q 2950 2406 2950 2484 
Q 2950 2769 2794 2926 
Q 2638 3084 2363 3084 
Q 1938 3084 1609 2770 
Q 1281 2456 1184 1953 
L 800 0 
L 225 0 
L 909 3500 
L 1484 3500 
L 1375 2956 
Q 1609 3263 1923 3423 
Q 2238 3584 2597 3584 
Q 2978 3584 3223 3384 
Q 3469 3184 3519 2828 
Q 3781 3197 4126 3390 
Q 4472 3584 4856 3584 
Q 5306 3584 5551 3325 
Q 5797 3066 5797 2591 
Q 5797 2488 5784 2364 
Q 5772 2241 5747 2113 
z
" transform="scale(0.015625)"/>
       <path id="DejaVuSans-5d" d="M 1947 4863 
L 1947 -844 
L 622 -844 
L 622 -397 
L 1369 -397 
L 1369 4416 
L 622 4416 
L 622 4863 
L 1947 4863 
z
" transform="scale(0.015625)"/>
      </defs>
      <use xlink:href="#DejaVuSans-Oblique-72" transform="translate(0 0.015625)"/>
      <use xlink:href="#DejaVuSans-5b" transform="translate(73.58366 0.015625)"/>
      <use xlink:href="#DejaVuSans-Oblique-6b" transform="translate(112.597332 0.015625)"/>
      <use xlink:href="#DejaVuSans-Oblique-6d" transform="translate(170.507488 0.015625)"/>
      <use xlink:href="#DejaVuSans-5d" transform="translate(267.919597 0.015625)"/>
     </g>
    </g>
   </g>
   <g id="matplotlib.axis_2">
    <g id="ytick_1">
     <g id="line2d_7">
      <defs>
       <path id="m9f9ca7c425" d="M 0 0 
L -3.5 0 
" style="stroke: #000000; stroke-width: 0.8"/>
      </defs>
      <g>
       <use xlink:href="#m9f9ca7c425" x="57.6" y="279.605476" style="stroke: #000000; stroke-width: 0.8"/>
      </g>
     </g>
     <g id="text_8">
      <!-- −2 -->
      <g transform="translate(35.857813 283.404694) scale(0.1 -0.1)">
       <defs>
        <path id="DejaVuSans-2212" d="M 678 2272 
L 4684 2272 
L 4684 1741 
L 678 1741 
L 678 2272 
z
" transform="scale(0.015625)"/>
       </defs>
       <use xlink:href="#DejaVuSans-2212"/>
       <use xlink:href="#DejaVuSans-32" x="83.789062"/>
      </g>
     </g>
    </g>
    <g id="ytick_2">
     <g id="line2d_8">
      <g>
       <use xlink:href="#m9f9ca7c425" x="57.6" y="225.542458" style="stroke: #000000; stroke-width: 0.8"/>
      </g>
     </g>
     <g id="text_9">
      <!-- −1 -->
      <g transform="translate(35.857813 229.341677) scale(0.1 -0.1)">
       <use xlink:href="#DejaVuSans-2212"/>
       <use xlink:href="#DejaVuSans-31" x="83.789062"/>
      </g>
     </g>
    </g>
    <g id="ytick_3">
     <g id="line2d_9">
      <g>
       <use xlink:href="#m9f9ca7c425" x="57.6" y="171.479441" style="stroke: #000000; stroke-width: 0.8"/>
      </g>
     </g>
     <g id="text_10">
      <!-- 0 -->
      <g transform="translate(44.2375 175.27866) scale(0.1 -0.1)">
       <use xlink:href="#DejaVuSans-30"/>
      </g>
     </g>
    </g>
    <g id="ytick_4">
     <g id="line2d_10">
      <g>
       <use xlink:href="#m9f9ca7c425" x="57.6" y="117.416424" style="stroke: #000000; stroke-width: 0.8"/>
      </g>
     </g>
     <g id="text_11">
      <!-- 1 -->
      <g transform="translate(44.2375 121.215642) scale(0.1 -0.1)">
       <use xlink:href="#DejaVuSans-31"/>
      </g>
     </g>
    </g>
    <g id="ytick_5">
     <g id="line2d_11">
      <g>
       <use xlink:href="#m9f9ca7c425" x="57.6" y="63.353406" style="stroke: #000000; stroke-width: 0.8"/>
      </g>
     </g>
     <g id="text_12">
      <!-- 2 -->
      <g transform="translate(44.2375 67.152625) scale(0.1 -0.1)">
       <use xlink:href="#DejaVuSans-32"/>
      </g>
     </g>
    </g>
   </g>
   <g id="line2d_12">
    <path d="M 73.832727 119.109137 
L 73.832967 119.109137 
L 73.835362 119.109137 
L 73.859315 119.109138 
L 73.995549 119.109176 
L 74.377572 119.109561 
L 75.175973 119.111697 
L 76.571687 119.119756 
L 78.742847 119.143224 
L 81.859051 119.200134 
L 86.079096 119.320715 
L 91.549704 119.55107 
L 98.403825 119.956272 
L 106.757707 120.621854 
L 116.706344 121.652207 
L 128.317295 123.163964 
L 141.623351 125.272631 
L 156.614773 128.071842 
L 173.231466 131.607045 
L 191.354304 135.848564 
L 210.794308 140.671981 
L 231.281922 145.85572 
L 252.467124 151.105045 
L 273.942919 156.102912 
L 295.278738 160.569413 
L 316.003196 164.300094 
L 333.094093 166.857941 
L 347.188105 168.585144 
L 358.240402 169.686423 
L 366.673326 170.371541 
L 372.984946 170.792825 
L 377.650976 171.05108 
L 381.078071 171.209731 
L 383.596271 171.307868 
L 385.474677 171.369647 
L 386.989412 171.411337 
L 387.693922 171.427949 
L 388.308497 171.440887 
L 388.767275 171.449449 
L 389.212702 171.45653 
L 389.718443 171.463127 
L 390.158781 171.467693 
L 390.551183 171.470901 
L 390.943585 171.473396 
L 391.301343 171.475144 
L 391.62987 171.476382 
L 391.933361 171.477267 
L 392.213342 171.477897 
L 392.470695 171.478346 
L 392.706391 171.478663 
L 392.921615 171.478887 
L 393.117698 171.479044 
L 393.296003 171.479154 
L 393.457856 171.479231 
L 393.604524 171.479285 
L 393.737304 171.479322 
L 393.857777 171.479348 
L 393.968293 171.479366 
L 394.072023 171.479378 
L 394.155511 171.479386 
L 394.238999 171.479392 
L 394.318806 171.479397 
L 394.425668 171.479402 
L 394.628397 171.479411 
L 394.854402 171.479418 
L 395.084991 171.479424 
L 395.299127 171.479429 
L 395.504966 171.479432 
L 395.703917 171.479434 
L 395.894933 171.479436 
L 396.076958 171.479437 
L 396.249358 171.479438 
L 396.411906 171.479439 
L 396.564678 171.47944 
L 396.707942 171.47944 
L 396.842081 171.47944 
L 396.967533 171.47944 
L 397.084761 171.479441 
L 397.194228 171.479441 
L 397.296385 171.479441 
L 397.391665 171.479441 
L 397.480483 171.479441 
L 397.56323 171.479441 
L 397.640275 171.479441 
L 397.71197 171.479441 
L 397.778645 171.479441 
L 397.840613 171.479441 
L 397.898175 171.479441 
L 397.951614 171.479441 
L 398.001203 171.479441 
L 398.047207 171.479441 
L 398.089881 171.479441 
L 398.129474 171.479441 
L 398.166232 171.479441 
L 398.200395 171.479441 
L 398.232199 171.479441 
L 398.261873 171.479441 
L 398.289631 171.479441 
L 398.315672 171.479441 
L 398.340163 171.479441 
L 398.363235 171.479441 
L 398.384968 171.479441 
L 398.405392 171.479441 
L 398.42447 171.479441 
L 398.442092 171.479441 
L 398.456069 171.479441 
L 398.467953 171.479441 
L 398.476934 171.479441 
L 398.483394 171.479441 
L 398.486771 171.479441 
L 398.487273 171.479441 
" clip-path="url(#p85e1122add)" style="fill: none; stroke: #1f77b4; stroke-linecap: square"/>
   </g>
   <g id="line2d_13">
    <path d="M 73.832727 171.479441 
L 73.832967 171.479441 
L 73.835362 171.479441 
L 73.859315 171.479441 
L 73.995549 171.479441 
L 74.377572 171.479439 
L 75.175973 171.47942 
L 76.571687 171.479264 
L 78.742847 171.478425 
L 81.859051 171.47501 
L 86.079096 171.46372 
L 91.549704 171.431913 
L 98.403825 171.352972 
L 106.757707 171.176345 
L 116.706344 170.814268 
L 128.317295 170.126562 
L 141.623351 168.907116 
L 156.614773 166.878333 
L 173.231466 163.702006 
L 191.354304 159.015321 
L 210.794308 152.49733 
L 231.281922 143.961609 
L 252.467124 133.452103 
L 273.942919 121.300363 
L 295.278738 108.115839 
L 316.003196 94.74095 
L 333.094093 83.732046 
L 347.188105 75.008275 
L 358.240402 68.622558 
L 366.673326 64.168347 
L 372.984946 61.164953 
L 377.650976 59.185235 
L 381.078071 57.898765 
L 383.596271 57.067974 
L 385.474677 56.527416 
L 386.989412 56.152911 
L 387.693922 56.000997 
L 388.308497 55.8814 
L 388.767275 55.801544 
L 389.212702 55.735029 
L 389.718443 55.672558 
L 390.158781 55.628983 
L 390.551183 55.598144 
L 390.943585 55.574004 
L 391.301343 55.556976 
L 391.62987 55.544842 
L 391.933361 55.536129 
L 392.213342 55.52988 
L 392.470695 55.525418 
L 392.706391 55.522246 
L 392.921615 55.520001 
L 393.117698 55.518416 
L 393.296003 55.517301 
L 393.457856 55.51652 
L 393.604524 55.515974 
L 393.737304 55.515595 
L 393.857777 55.515333 
L 393.968293 55.51515 
L 394.072023 55.51502 
L 394.155511 55.514941 
L 394.238999 55.51488 
L 394.318806 55.514833 
L 394.425668 55.514777 
L 394.628397 55.514688 
L 394.854402 55.514608 
L 395.084991 55.514545 
L 395.299127 55.5145 
L 395.504966 55.514466 
L 395.703917 55.514441 
L 395.894933 55.514422 
L 396.076958 55.514408 
L 396.249358 55.514397 
L 396.411906 55.51439 
L 396.564678 55.514384 
L 396.707942 55.51438 
L 396.842081 55.514377 
L 396.967533 55.514375 
L 397.084761 55.514374 
L 397.194228 55.514373 
L 397.296385 55.514372 
L 397.391665 55.514371 
L 397.480483 55.514371 
L 397.56323 55.514371 
L 397.640275 55.51437 
L 397.71197 55.51437 
L 397.778645 55.51437 
L 397.840613 55.51437 
L 397.898175 55.51437 
L 397.951614 55.51437 
L 398.001203 55.51437 
L 398.047207 55.51437 
L 398.089881 55.51437 
L 398.129474 55.51437 
L 398.166232 55.51437 
L 398.200395 55.51437 
L 398.232199 55.51437 
L 398.261873 55.51437 
L 398.289631 55.51437 
L 398.315672 55.51437 
L 398.340163 55.51437 
L 398.363235 55.51437 
L 398.384968 55.51437 
L 398.405392 55.51437 
L 398.42447 55.51437 
L 398.442092 55.51437 
L 398.456069 55.51437 
L 398.467953 55.51437 
L 398.476934 55.51437 
L 398.483394 55.51437 
L 398.486771 55.51437 
L 398.487273 55.51437 
" clip-path="url(#p85e1122add)" style="fill: none; stroke: #ff7f0e; stroke-linecap: square"/>
   </g>
   <g id="line2d_14">
    <path d="M 73.832727 295.488 
L 73.832967 295.488 
L 73.835362 295.488 
L 73.859315 295.487999 
L 73.995549 295.487973 
L 74.377572 295.48771 
L 75.175973 295.486252 
L 76.571687 295.480748 
L 78.742847 295.464719 
L 81.859051 295.425826 
L 86.079096 295.343329 
L 91.549704 295.185377 
L 98.403825 294.906409 
L 106.757707 294.445021 
L 116.706344 293.722873 
L 128.317295 292.645396 
L 141.623351 291.105163 
L 156.614773 288.988715 
L 173.231466 286.187327 
L 191.354304 282.611888 
L 210.794308 278.211616 
L 231.281922 272.994805 
L 252.467124 267.045836 
L 273.942919 260.529307 
L 295.278738 253.679689 
L 316.003196 246.795326 
L 333.094093 241.056188 
L 347.188105 236.361829 
L 358.240402 232.754421 
L 366.673326 230.072605 
L 372.984946 228.118778 
L 377.650976 226.710034 
L 381.078071 225.697569 
L 383.596271 224.966974 
L 385.474677 224.430027 
L 386.989412 224.002411 
L 387.693922 223.805256 
L 388.308497 223.634206 
L 388.767275 223.507104 
L 389.212702 223.384197 
L 389.718443 223.245264 
L 390.158781 223.124849 
L 390.551183 223.017988 
L 390.943585 222.911556 
L 391.301343 222.814901 
L 391.62987 222.726466 
L 391.933361 222.645048 
L 392.213342 222.570174 
L 392.470695 222.501553 
L 392.706391 222.438877 
L 392.921615 222.381786 
L 393.117698 222.32989 
L 393.296003 222.282797 
L 393.457856 222.24013 
L 393.604524 222.201531 
L 393.737304 222.166641 
L 393.857777 222.13503 
L 393.968293 222.106068 
L 394.072023 222.078917 
L 394.155511 222.057086 
L 394.238999 222.035276 
L 394.318806 222.014447 
L 394.425668 221.986584 
L 394.628397 221.933817 
L 394.854402 221.87513 
L 395.084991 221.815403 
L 395.299127 221.760074 
L 395.504966 221.707011 
L 395.703917 221.655837 
L 395.894933 221.60681 
L 396.076958 221.560185 
L 396.249358 221.516111 
L 396.411906 221.474632 
L 396.564678 221.435715 
L 396.707942 221.399278 
L 396.842081 221.365214 
L 396.967533 221.333401 
L 397.084761 221.303712 
L 397.194228 221.276023 
L 397.296385 221.250213 
L 397.391665 221.226166 
L 397.480483 221.203773 
L 397.56323 221.182929 
L 397.640275 221.163539 
L 397.71197 221.145509 
L 397.778645 221.128755 
L 397.840613 221.113194 
L 397.898175 221.098749 
L 397.951614 221.085347 
L 398.001203 221.072917 
L 398.047207 221.061391 
L 398.089881 221.050705 
L 398.129474 221.040795 
L 398.166232 221.031599 
L 398.200395 221.023054 
L 398.232199 221.015103 
L 398.261873 221.007687 
L 398.289631 221.000751 
L 398.315672 220.994247 
L 398.340163 220.988131 
L 398.363235 220.982372 
L 398.384968 220.976947 
L 398.405392 220.971851 
L 398.42447 220.967091 
L 398.442092 220.962696 
L 398.456069 220.95921 
L 398.467953 220.956247 
L 398.476934 220.954008 
L 398.483394 220.952398 
L 398.486771 220.951556 
L 398.487273 220.951417 
" clip-path="url(#p85e1122add)" style="fill: none; stroke: #2ca02c; stroke-linecap: square"/>
   </g>
   <g id="line2d_15">
    <path d="M 73.832727 53.568 
L 73.832967 53.568 
L 73.835362 53.568 
L 73.859315 53.568001 
L 73.995549 53.568043 
L 74.377572 53.568472 
L 75.175973 53.570848 
L 76.571687 53.579813 
L 78.742847 53.605923 
L 81.859051 53.669255 
L 86.079096 53.803515 
L 91.549704 54.060278 
L 98.403825 54.512817 
L 106.757707 55.258643 
L 116.706344 56.419461 
L 128.317295 58.136895 
L 141.623351 60.562386 
L 156.614773 63.840497 
L 173.231466 68.086651 
L 191.354304 73.362453 
L 210.794308 79.653791 
L 231.281922 86.858728 
L 252.467124 94.7941 
L 273.942919 103.226835 
L 295.278738 111.919948 
L 316.003196 120.659562 
L 333.094093 128.154944 
L 347.188105 134.657382 
L 358.240402 140.118411 
L 366.673326 144.67379 
L 372.984946 148.481163 
L 377.650976 151.688024 
L 381.078071 154.419299 
L 383.596271 156.779917 
L 385.474677 158.872113 
L 386.989412 160.887205 
L 387.693922 161.943723 
L 388.308497 162.93742 
L 388.767275 163.973708 
L 389.212702 165.160704 
L 389.718443 166.408442 
L 390.158781 167.44811 
L 390.551183 168.292765 
L 390.943585 169.022514 
L 391.301343 169.579475 
L 391.62987 170.006066 
L 391.933361 170.336154 
L 392.213342 170.592585 
L 392.470695 170.791967 
L 392.706391 170.946949 
L 392.921615 171.067355 
L 393.117698 171.160867 
L 393.296003 171.233495 
L 393.457856 171.28993 
L 393.604524 171.333825 
L 393.737304 171.368004 
L 393.857777 171.39463 
L 393.968293 171.415325 
L 394.072023 171.431315 
L 394.155511 171.442048 
L 394.238999 171.450956 
L 394.318806 171.45481 
L 394.425668 171.457622 
L 394.628397 171.461651 
L 394.854402 171.465559 
L 395.084991 171.468838 
L 395.299127 171.471236 
L 395.504966 171.473066 
L 395.703917 171.474488 
L 395.894933 171.475594 
L 396.076958 171.476456 
L 396.249358 171.477126 
L 396.411906 171.477646 
L 396.564678 171.47805 
L 396.707942 171.478363 
L 396.842081 171.478606 
L 396.967533 171.478794 
L 397.084761 171.47894 
L 397.194228 171.479053 
L 397.296385 171.479141 
L 397.391665 171.479208 
L 397.480483 171.479261 
L 397.56323 171.479301 
L 397.640275 171.479333 
L 397.71197 171.479357 
L 397.778645 171.479376 
L 397.840613 171.479391 
L 397.898175 171.479402 
L 397.951614 171.479411 
L 398.001203 171.479418 
L 398.047207 171.479423 
L 398.089881 171.479427 
L 398.129474 171.47943 
L 398.166232 171.479433 
L 398.200395 171.479435 
L 398.232199 171.479436 
L 398.261873 171.479437 
L 398.289631 171.479438 
L 398.315672 171.479439 
L 398.340163 171.479439 
L 398.363235 171.47944 
L 398.384968 171.47944 
L 398.405392 171.47944 
L 398.42447 171.479441 
L 398.442092 171.479441 
L 398.456069 171.479441 
L 398.467953 171.479441 
L 398.476934 171.479441 
L 398.483394 171.479441 
L 398.486771 171.479441 
L 398.487273 171.479441 
" clip-path="url(#p85e1122add)" style="fill: none; stroke: #d62728; stroke-linecap: square"/>
   </g>
   <g id="patch_3">
    <path d="M 57.6 307.584 
L 57.6 41.472 
" style="fill: none; stroke: #000000; stroke-width: 0.8; stroke-linejoin: miter; stroke-linecap: square"/>
   </g>
   <g id="patch_4">
    <path d="M 414.72 307.584 
L 414.72 41.472 
" style="fill: none; stroke: #000000; stroke-width: 0.8; stroke-linejoin: miter; stroke-linecap: square"/>
   </g>
   <g id="patch_5">
    <path d="M 57.6 307.584 
L 414.72 307.584 
" style="fill: none; stroke: #000000; stroke-width: 0.8; stroke-linejoin: miter; stroke-linecap: square"/>
   </g>
   <g id="patch_6">
    <path d="M 57.6 41.472 
L 414.72 41.472 
" style="fill: none; stroke: #000000; stroke-width: 0.8; stroke-linejoin: miter; stroke-linecap: square"/>
   </g>
   <g id="text_13">
    <!-- TOV solution for the BSk20 EOS star -->
    <g transform="translate(127.60125 22.1664) scale(0.12 -0.12)">
     <defs>
      <path id="DejaVuSans-54" d="M -19 4666 
L 3928 4666 
L 3928 4134 
L 2272 4134 
L 2272 0 
L 1638 0 
L 1638 4134 
L -19 4134 
L -19 4666 
z
" transform="scale(0.015625)"/>
      <path id="DejaVuSans-4f" d="M 2522 4238 
Q 1834 4238 1429 3725 
Q 1025 3213 1025 2328 
Q 1025 1447 1429 934 
Q 1834 422 2522 422 
Q 3209 422 3611 934 
Q 4013 1447 4013 2328 
Q 4013 3213 3611 3725 
Q 3209 4238 2522 4238 
z
M 2522 4750 
Q 3503 4750 4090 4092 
Q 4678 3434 4678 2328 
Q 4678 1225 4090 567 
Q 3503 -91 2522 -91 
Q 1538 -91 948 565 
Q 359 1222 359 2328 
Q 359 3434 948 4092 
Q 1538 4750 2522 4750 
z
" transform="scale(0.015625)"/>
      <path id="DejaVuSans-56" d="M 1831 0 
L 50 4666 
L 709 4666 
L 2188 738 
L 3669 4666 
L 4325 4666 
L 2547 0 
L 1831 0 
z
" transform="scale(0.015625)"/>
      <path id="DejaVuSans-20" transform="scale(0.015625)"/>
      <path id="DejaVuSans-73" d="M 2834 3397 
L 2834 2853 
Q 2591 2978 2328 3040 
Q 2066 3103 1784 3103 
Q 1356 3103 1142 2972 
Q 928 2841 928 2578 
Q 928 2378 1081 2264 
Q 1234 2150 1697 2047 
L 1894 2003 
Q 2506 1872 2764 1633 
Q 3022 1394 3022 966 
Q 3022 478 2636 193 
Q 2250 -91 1575 -91 
Q 1294 -91 989 -36 
Q 684 19 347 128 
L 347 722 
Q 666 556 975 473 
Q 1284 391 1588 391 
Q 1994 391 2212 530 
Q 2431 669 2431 922 
Q 2431 1156 2273 1281 
Q 2116 1406 1581 1522 
L 1381 1569 
Q 847 1681 609 1914 
Q 372 2147 372 2553 
Q 372 3047 722 3315 
Q 1072 3584 1716 3584 
Q 2034 3584 2315 3537 
Q 2597 3491 2834 3397 
z
" transform="scale(0.015625)"/>
      <path id="DejaVuSans-6f" d="M 1959 3097 
Q 1497 3097 1228 2736 
Q 959 2375 959 1747 
Q 959 1119 1226 758 
Q 1494 397 1959 397 
Q 2419 397 2687 759 
Q 2956 1122 2956 1747 
Q 2956 2369 2687 2733 
Q 2419 3097 1959 3097 
z
M 1959 3584 
Q 2709 3584 3137 3096 
Q 3566 2609 3566 1747 
Q 3566 888 3137 398 
Q 2709 -91 1959 -91 
Q 1206 -91 779 398 
Q 353 888 353 1747 
Q 353 2609 779 3096 
Q 1206 3584 1959 3584 
z
" transform="scale(0.015625)"/>
      <path id="DejaVuSans-6c" d="M 603 4863 
L 1178 4863 
L 1178 0 
L 603 0 
L 603 4863 
z
" transform="scale(0.015625)"/>
      <path id="DejaVuSans-75" d="M 544 1381 
L 544 3500 
L 1119 3500 
L 1119 1403 
Q 1119 906 1312 657 
Q 1506 409 1894 409 
Q 2359 409 2629 706 
Q 2900 1003 2900 1516 
L 2900 3500 
L 3475 3500 
L 3475 0 
L 2900 0 
L 2900 538 
Q 2691 219 2414 64 
Q 2138 -91 1772 -91 
Q 1169 -91 856 284 
Q 544 659 544 1381 
z
M 1991 3584 
L 1991 3584 
z
" transform="scale(0.015625)"/>
      <path id="DejaVuSans-74" d="M 1172 4494 
L 1172 3500 
L 2356 3500 
L 2356 3053 
L 1172 3053 
L 1172 1153 
Q 1172 725 1289 603 
Q 1406 481 1766 481 
L 2356 481 
L 2356 0 
L 1766 0 
Q 1100 0 847 248 
Q 594 497 594 1153 
L 594 3053 
L 172 3053 
L 172 3500 
L 594 3500 
L 594 4494 
L 1172 4494 
z
" transform="scale(0.015625)"/>
      <path id="DejaVuSans-69" d="M 603 3500 
L 1178 3500 
L 1178 0 
L 603 0 
L 603 3500 
z
M 603 4863 
L 1178 4863 
L 1178 4134 
L 603 4134 
L 603 4863 
z
" transform="scale(0.015625)"/>
      <path id="DejaVuSans-6e" d="M 3513 2113 
L 3513 0 
L 2938 0 
L 2938 2094 
Q 2938 2591 2744 2837 
Q 2550 3084 2163 3084 
Q 1697 3084 1428 2787 
Q 1159 2491 1159 1978 
L 1159 0 
L 581 0 
L 581 3500 
L 1159 3500 
L 1159 2956 
Q 1366 3272 1645 3428 
Q 1925 3584 2291 3584 
Q 2894 3584 3203 3211 
Q 3513 2838 3513 2113 
z
" transform="scale(0.015625)"/>
      <path id="DejaVuSans-66" d="M 2375 4863 
L 2375 4384 
L 1825 4384 
Q 1516 4384 1395 4259 
Q 1275 4134 1275 3809 
L 1275 3500 
L 2222 3500 
L 2222 3053 
L 1275 3053 
L 1275 0 
L 697 0 
L 697 3053 
L 147 3053 
L 147 3500 
L 697 3500 
L 697 3744 
Q 697 4328 969 4595 
Q 1241 4863 1831 4863 
L 2375 4863 
z
" transform="scale(0.015625)"/>
      <path id="DejaVuSans-72" d="M 2631 2963 
Q 2534 3019 2420 3045 
Q 2306 3072 2169 3072 
Q 1681 3072 1420 2755 
Q 1159 2438 1159 1844 
L 1159 0 
L 581 0 
L 581 3500 
L 1159 3500 
L 1159 2956 
Q 1341 3275 1631 3429 
Q 1922 3584 2338 3584 
Q 2397 3584 2469 3576 
Q 2541 3569 2628 3553 
L 2631 2963 
z
" transform="scale(0.015625)"/>
      <path id="DejaVuSans-68" d="M 3513 2113 
L 3513 0 
L 2938 0 
L 2938 2094 
Q 2938 2591 2744 2837 
Q 2550 3084 2163 3084 
Q 1697 3084 1428 2787 
Q 1159 2491 1159 1978 
L 1159 0 
L 581 0 
L 581 4863 
L 1159 4863 
L 1159 2956 
Q 1366 3272 1645 3428 
Q 1925 3584 2291 3584 
Q 2894 3584 3203 3211 
Q 3513 2838 3513 2113 
z
" transform="scale(0.015625)"/>
      <path id="DejaVuSans-65" d="M 3597 1894 
L 3597 1613 
L 953 1613 
Q 991 1019 1311 708 
Q 1631 397 2203 397 
Q 2534 397 2845 478 
Q 3156 559 3463 722 
L 3463 178 
Q 3153 47 2828 -22 
Q 2503 -91 2169 -91 
Q 1331 -91 842 396 
Q 353 884 353 1716 
Q 353 2575 817 3079 
Q 1281 3584 2069 3584 
Q 2775 3584 3186 3129 
Q 3597 2675 3597 1894 
z
M 3022 2063 
Q 3016 2534 2758 2815 
Q 2500 3097 2075 3097 
Q 1594 3097 1305 2825 
Q 1016 2553 972 2059 
L 3022 2063 
z
" transform="scale(0.015625)"/>
      <path id="DejaVuSans-42" d="M 1259 2228 
L 1259 519 
L 2272 519 
Q 2781 519 3026 730 
Q 3272 941 3272 1375 
Q 3272 1813 3026 2020 
Q 2781 2228 2272 2228 
L 1259 2228 
z
M 1259 4147 
L 1259 2741 
L 2194 2741 
Q 2656 2741 2882 2914 
Q 3109 3088 3109 3444 
Q 3109 3797 2882 3972 
Q 2656 4147 2194 4147 
L 1259 4147 
z
M 628 4666 
L 2241 4666 
Q 2963 4666 3353 4366 
Q 3744 4066 3744 3513 
Q 3744 3084 3544 2831 
Q 3344 2578 2956 2516 
Q 3422 2416 3680 2098 
Q 3938 1781 3938 1306 
Q 3938 681 3513 340 
Q 3088 0 2303 0 
L 628 0 
L 628 4666 
z
" transform="scale(0.015625)"/>
      <path id="DejaVuSans-53" d="M 3425 4513 
L 3425 3897 
Q 3066 4069 2747 4153 
Q 2428 4238 2131 4238 
Q 1616 4238 1336 4038 
Q 1056 3838 1056 3469 
Q 1056 3159 1242 3001 
Q 1428 2844 1947 2747 
L 2328 2669 
Q 3034 2534 3370 2195 
Q 3706 1856 3706 1288 
Q 3706 609 3251 259 
Q 2797 -91 1919 -91 
Q 1588 -91 1214 -16 
Q 841 59 441 206 
L 441 856 
Q 825 641 1194 531 
Q 1563 422 1919 422 
Q 2459 422 2753 634 
Q 3047 847 3047 1241 
Q 3047 1584 2836 1778 
Q 2625 1972 2144 2069 
L 1759 2144 
Q 1053 2284 737 2584 
Q 422 2884 422 3419 
Q 422 4038 858 4394 
Q 1294 4750 2059 4750 
Q 2388 4750 2728 4690 
Q 3069 4631 3425 4513 
z
" transform="scale(0.015625)"/>
      <path id="DejaVuSans-6b" d="M 581 4863 
L 1159 4863 
L 1159 1991 
L 2875 3500 
L 3609 3500 
L 1753 1863 
L 3688 0 
L 2938 0 
L 1159 1709 
L 1159 0 
L 581 0 
L 581 4863 
z
" transform="scale(0.015625)"/>
      <path id="DejaVuSans-45" d="M 628 4666 
L 3578 4666 
L 3578 4134 
L 1259 4134 
L 1259 2753 
L 3481 2753 
L 3481 2222 
L 1259 2222 
L 1259 531 
L 3634 531 
L 3634 0 
L 628 0 
L 628 4666 
z
" transform="scale(0.015625)"/>
      <path id="DejaVuSans-61" d="M 2194 1759 
Q 1497 1759 1228 1600 
Q 959 1441 959 1056 
Q 959 750 1161 570 
Q 1363 391 1709 391 
Q 2188 391 2477 730 
Q 2766 1069 2766 1631 
L 2766 1759 
L 2194 1759 
z
M 3341 1997 
L 3341 0 
L 2766 0 
L 2766 531 
Q 2569 213 2275 61 
Q 1981 -91 1556 -91 
Q 1019 -91 701 211 
Q 384 513 384 1019 
Q 384 1609 779 1909 
Q 1175 2209 1959 2209 
L 2766 2209 
L 2766 2266 
Q 2766 2663 2505 2880 
Q 2244 3097 1772 3097 
Q 1472 3097 1187 3025 
Q 903 2953 641 2809 
L 641 3341 
Q 956 3463 1253 3523 
Q 1550 3584 1831 3584 
Q 2591 3584 2966 3190 
Q 3341 2797 3341 1997 
z
" transform="scale(0.015625)"/>
     </defs>
     <use xlink:href="#DejaVuSans-54"/>
     <use xlink:href="#DejaVuSans-4f" x="61.083984"/>
     <use xlink:href="#DejaVuSans-56" x="138.044922"/>
     <use xlink:href="#DejaVuSans-20" x="206.453125"/>
     <use xlink:href="#DejaVuSans-73" x="238.240234"/>
     <use xlink:href="#DejaVuSans-6f" x="290.339844"/>
     <use xlink:href="#DejaVuSans-6c" x="351.521484"/>
     <use xlink:href="#DejaVuSans-75" x="379.304688"/>
     <use xlink:href="#DejaVuSans-74" x="442.683594"/>
     <use xlink:href="#DejaVuSans-69" x="481.892578"/>
     <use xlink:href="#DejaVuSans-6f" x="509.675781"/>
     <use xlink:href="#DejaVuSans-6e" x="570.857422"/>
     <use xlink:href="#DejaVuSans-20" x="634.236328"/>
     <use xlink:href="#DejaVuSans-66" x="666.023438"/>
     <use xlink:href="#DejaVuSans-6f" x="701.228516"/>
     <use xlink:href="#DejaVuSans-72" x="762.410156"/>
     <use xlink:href="#DejaVuSans-20" x="803.523438"/>
     <use xlink:href="#DejaVuSans-74" x="835.310547"/>
     <use xlink:href="#DejaVuSans-68" x="874.519531"/>
     <use xlink:href="#DejaVuSans-65" x="937.898438"/>
     <use xlink:href="#DejaVuSans-20" x="999.421875"/>
     <use xlink:href="#DejaVuSans-42" x="1031.208984"/>
     <use xlink:href="#DejaVuSans-53" x="1098.0625"/>
     <use xlink:href="#DejaVuSans-6b" x="1161.539062"/>
     <use xlink:href="#DejaVuSans-32" x="1219.449219"/>
     <use xlink:href="#DejaVuSans-30" x="1283.072266"/>
     <use xlink:href="#DejaVuSans-20" x="1346.695312"/>
     <use xlink:href="#DejaVuSans-45" x="1378.482422"/>
     <use xlink:href="#DejaVuSans-4f" x="1441.666016"/>
     <use xlink:href="#DejaVuSans-53" x="1520.376953"/>
     <use xlink:href="#DejaVuSans-20" x="1583.853516"/>
     <use xlink:href="#DejaVuSans-73" x="1615.640625"/>
     <use xlink:href="#DejaVuSans-74" x="1667.740234"/>
     <use xlink:href="#DejaVuSans-61" x="1706.949219"/>
     <use xlink:href="#DejaVuSans-72" x="1768.228516"/>
    </g>
   </g>
   <g id="legend_1">
    <g id="patch_7">
     <path d="M 281.02 302.584 
L 407.72 302.584 
Q 409.72 302.584 409.72 300.584 
L 409.72 239.82775 
Q 409.72 237.82775 407.72 237.82775 
L 281.02 237.82775 
Q 279.02 237.82775 279.02 239.82775 
L 279.02 300.584 
Q 279.02 302.584 281.02 302.584 
z
" style="fill: #ffffff; opacity: 0.8; stroke: #cccccc; stroke-linejoin: miter"/>
    </g>
    <g id="line2d_16">
     <path d="M 283.02 247.42775 
L 293.02 247.42775 
L 303.02 247.42775 
" style="fill: none; stroke: #1f77b4; stroke-linecap: square"/>
    </g>
    <g id="text_14">
     <!-- $p ~ [10^{36} ~ dyn \cdot cm^{-2}]$ -->
     <g transform="translate(311.02 250.92775) scale(0.1 -0.1)">
      <defs>
       <path id="DejaVuSans-Oblique-70" d="M 3175 2156 
Q 3175 2616 2975 2859 
Q 2775 3103 2400 3103 
Q 2144 3103 1911 2972 
Q 1678 2841 1497 2591 
Q 1319 2344 1212 1994 
Q 1106 1644 1106 1300 
Q 1106 863 1306 627 
Q 1506 391 1875 391 
Q 2147 391 2380 519 
Q 2613 647 2778 891 
Q 2956 1147 3065 1494 
Q 3175 1841 3175 2156 
z
M 1394 2969 
Q 1625 3272 1939 3428 
Q 2253 3584 2638 3584 
Q 3175 3584 3472 3232 
Q 3769 2881 3769 2247 
Q 3769 1728 3584 1258 
Q 3400 788 3053 416 
Q 2822 169 2531 39 
Q 2241 -91 1919 -91 
Q 1547 -91 1294 64 
Q 1041 219 916 525 
L 556 -1331 
L -19 -1331 
L 922 3500 
L 1497 3500 
L 1394 2969 
z
" transform="scale(0.015625)"/>
       <path id="DejaVuSans-33" d="M 2597 2516 
Q 3050 2419 3304 2112 
Q 3559 1806 3559 1356 
Q 3559 666 3084 287 
Q 2609 -91 1734 -91 
Q 1441 -91 1130 -33 
Q 819 25 488 141 
L 488 750 
Q 750 597 1062 519 
Q 1375 441 1716 441 
Q 2309 441 2620 675 
Q 2931 909 2931 1356 
Q 2931 1769 2642 2001 
Q 2353 2234 1838 2234 
L 1294 2234 
L 1294 2753 
L 1863 2753 
Q 2328 2753 2575 2939 
Q 2822 3125 2822 3475 
Q 2822 3834 2567 4026 
Q 2313 4219 1838 4219 
Q 1578 4219 1281 4162 
Q 984 4106 628 3988 
L 628 4550 
Q 988 4650 1302 4700 
Q 1616 4750 1894 4750 
Q 2613 4750 3031 4423 
Q 3450 4097 3450 3541 
Q 3450 3153 3228 2886 
Q 3006 2619 2597 2516 
z
" transform="scale(0.015625)"/>
       <path id="DejaVuSans-Oblique-64" d="M 2675 525 
Q 2444 222 2128 65 
Q 1813 -91 1428 -91 
Q 903 -91 598 267 
Q 294 625 294 1247 
Q 294 1766 478 2236 
Q 663 2706 1013 3078 
Q 1244 3325 1534 3454 
Q 1825 3584 2144 3584 
Q 2481 3584 2739 3421 
Q 2997 3259 3138 2956 
L 3513 4863 
L 4091 4863 
L 3144 0 
L 2566 0 
L 2675 525 
z
M 891 1350 
Q 891 897 1095 644 
Q 1300 391 1663 391 
Q 1931 391 2161 520 
Q 2391 650 2566 903 
Q 2750 1166 2856 1509 
Q 2963 1853 2963 2188 
Q 2963 2622 2758 2865 
Q 2553 3109 2194 3109 
Q 1922 3109 1687 2981 
Q 1453 2853 1288 2613 
Q 1106 2353 998 2009 
Q 891 1666 891 1350 
z
" transform="scale(0.015625)"/>
       <path id="DejaVuSans-Oblique-79" d="M 1588 -325 
Q 1188 -997 936 -1164 
Q 684 -1331 294 -1331 
L -159 -1331 
L -63 -850 
L 269 -850 
Q 509 -850 678 -719 
Q 847 -588 1056 -206 
L 1234 128 
L 459 3500 
L 1069 3500 
L 1650 819 
L 3256 3500 
L 3859 3500 
L 1588 -325 
z
" transform="scale(0.015625)"/>
       <path id="DejaVuSans-Oblique-6e" d="M 3566 2113 
L 3156 0 
L 2578 0 
L 2988 2091 
Q 3016 2238 3031 2350 
Q 3047 2463 3047 2528 
Q 3047 2791 2881 2937 
Q 2716 3084 2419 3084 
Q 1956 3084 1622 2776 
Q 1288 2469 1184 1941 
L 800 0 
L 225 0 
L 903 3500 
L 1478 3500 
L 1363 2950 
Q 1603 3253 1940 3418 
Q 2278 3584 2650 3584 
Q 3113 3584 3367 3334 
Q 3622 3084 3622 2631 
Q 3622 2519 3608 2391 
Q 3594 2263 3566 2113 
z
" transform="scale(0.015625)"/>
       <path id="DejaVuSans-22c5" d="M 684 2619 
L 1344 2619 
L 1344 1825 
L 684 1825 
L 684 2619 
z
" transform="scale(0.015625)"/>
       <path id="DejaVuSans-Oblique-63" d="M 3431 3366 
L 3316 2797 
Q 3109 2947 2876 3022 
Q 2644 3097 2394 3097 
Q 2119 3097 1870 3000 
Q 1622 2903 1453 2725 
Q 1184 2453 1037 2087 
Q 891 1722 891 1331 
Q 891 859 1127 628 
Q 1363 397 1844 397 
Q 2081 397 2348 469 
Q 2616 541 2906 684 
L 2797 116 
Q 2547 13 2283 -39 
Q 2019 -91 1741 -91 
Q 1044 -91 669 257 
Q 294 606 294 1253 
Q 294 1797 489 2255 
Q 684 2713 1069 3078 
Q 1331 3328 1684 3456 
Q 2038 3584 2456 3584 
Q 2700 3584 2940 3529 
Q 3181 3475 3431 3366 
z
" transform="scale(0.015625)"/>
      </defs>
      <use xlink:href="#DejaVuSans-Oblique-70" transform="translate(0 0.765625)"/>
      <use xlink:href="#DejaVuSans-5b" transform="translate(95.946941 0.765625)"/>
      <use xlink:href="#DejaVuSans-31" transform="translate(134.960613 0.765625)"/>
      <use xlink:href="#DejaVuSans-30" transform="translate(198.58366 0.765625)"/>
      <use xlink:href="#DejaVuSans-33" transform="translate(263.163738 39.046875) scale(0.7)"/>
      <use xlink:href="#DejaVuSans-36" transform="translate(307.699871 39.046875) scale(0.7)"/>
      <use xlink:href="#DejaVuSans-Oblique-64" transform="translate(387.440757 0.765625)"/>
      <use xlink:href="#DejaVuSans-Oblique-79" transform="translate(450.917319 0.765625)"/>
      <use xlink:href="#DejaVuSans-Oblique-6e" transform="translate(510.097007 0.765625)"/>
      <use xlink:href="#DejaVuSans-22c5" transform="translate(592.958335 0.765625)"/>
      <use xlink:href="#DejaVuSans-Oblique-63" transform="translate(644.227866 0.765625)"/>
      <use xlink:href="#DejaVuSans-Oblique-6d" transform="translate(699.208335 0.765625)"/>
      <use xlink:href="#DejaVuSans-2212" transform="translate(801.27034 39.046875) scale(0.7)"/>
      <use xlink:href="#DejaVuSans-32" transform="translate(859.922684 39.046875) scale(0.7)"/>
      <use xlink:href="#DejaVuSans-5d" transform="translate(907.193192 0.765625)"/>
     </g>
    </g>
    <g id="line2d_17">
     <path d="M 283.02 262.126188 
L 293.02 262.126188 
L 303.02 262.126188 
" style="fill: none; stroke: #ff7f0e; stroke-linecap: square"/>
    </g>
    <g id="text_15">
     <!-- $m ~ [M_{\odot}]$ -->
     <g transform="translate(311.02 265.626188) scale(0.1 -0.1)">
      <defs>
       <path id="DejaVuSans-Oblique-4d" d="M 1081 4666 
L 2028 4666 
L 2572 1522 
L 4378 4666 
L 5350 4666 
L 4441 0 
L 3828 0 
L 4622 4091 
L 2791 897 
L 2175 897 
L 1581 4103 
L 788 0 
L 172 0 
L 1081 4666 
z
" transform="scale(0.015625)"/>
       <path id="DejaVuSans-2299" d="M 2350 2403 
L 3013 2403 
L 3013 1609 
L 2350 1609 
L 2350 2403 
z
M 3306 3522 
Q 3016 3644 2681 3644 
Q 2347 3644 2056 3522 
Q 1769 3400 1531 3163 
Q 1291 2922 1172 2634 
Q 1053 2347 1053 2006 
Q 1053 1675 1172 1387 
Q 1291 1100 1531 859 
Q 1769 622 2056 500 
Q 2347 378 2681 378 
Q 3016 378 3306 500 
Q 3594 622 3831 859 
Q 4072 1100 4190 1387 
Q 4309 1675 4309 2006 
Q 4309 2347 4190 2634 
Q 4072 2922 3831 3163 
Q 3594 3400 3306 3522 
z
M 1878 3956 
Q 2250 4113 2681 4113 
Q 3113 4113 3484 3956 
Q 3856 3800 4163 3494 
Q 4472 3184 4625 2813 
Q 4778 2444 4778 2006 
Q 4778 1578 4625 1206 
Q 4472 838 4163 528 
Q 3856 222 3484 65 
Q 3113 -91 2681 -91 
Q 2250 -91 1878 65 
Q 1506 222 1200 528 
Q 891 838 738 1206 
Q 584 1578 584 2006 
Q 584 2444 738 2813 
Q 891 3184 1200 3494 
Q 1506 3800 1878 3956 
z
" transform="scale(0.015625)"/>
      </defs>
      <use xlink:href="#DejaVuSans-Oblique-6d" transform="translate(0 0.015625)"/>
      <use xlink:href="#DejaVuSans-5b" transform="translate(129.882488 0.015625)"/>
      <use xlink:href="#DejaVuSans-Oblique-4d" transform="translate(168.89616 0.015625)"/>
      <use xlink:href="#DejaVuSans-2299" transform="translate(255.175457 -16.390625) scale(0.7)"/>
      <use xlink:href="#DejaVuSans-5d" transform="translate(316.562175 0.015625)"/>
     </g>
    </g>
    <g id="line2d_18">
     <path d="M 283.02 276.804312 
L 293.02 276.804312 
L 303.02 276.804312 
" style="fill: none; stroke: #2ca02c; stroke-linecap: square"/>
    </g>
    <g id="text_16">
     <!-- $\nu ~ [dimensionless]$ -->
     <g transform="translate(311.02 280.304312) scale(0.1 -0.1)">
      <defs>
       <path id="DejaVuSans-Oblique-3bd" d="M 959 0 
L 572 3500 
L 1191 3500 
L 1522 563 
Q 1972 950 2391 1488 
Q 2706 1891 2788 2241 
Q 2825 2406 2809 2719 
Q 2794 3091 2544 3500 
L 3125 3500 
L 3125 3500 
Q 3288 3222 3353 2834 
Q 3416 2478 3369 2234 
Q 3250 1622 2719 1075 
Q 2025 363 1572 0 
L 959 0 
z
" transform="scale(0.015625)"/>
       <path id="DejaVuSans-Oblique-69" d="M 1172 4863 
L 1747 4863 
L 1606 4134 
L 1031 4134 
L 1172 4863 
z
M 909 3500 
L 1484 3500 
L 800 0 
L 225 0 
L 909 3500 
z
" transform="scale(0.015625)"/>
       <path id="DejaVuSans-Oblique-65" d="M 3078 2063 
Q 3088 2113 3092 2166 
Q 3097 2219 3097 2272 
Q 3097 2653 2873 2875 
Q 2650 3097 2266 3097 
Q 1838 3097 1509 2826 
Q 1181 2556 1013 2059 
L 3078 2063 
z
M 3578 1613 
L 903 1613 
Q 884 1494 878 1425 
Q 872 1356 872 1306 
Q 872 872 1139 634 
Q 1406 397 1894 397 
Q 2269 397 2603 481 
Q 2938 566 3225 728 
L 3116 159 
Q 2806 34 2476 -28 
Q 2147 -91 1806 -91 
Q 1078 -91 686 257 
Q 294 606 294 1247 
Q 294 1794 489 2264 
Q 684 2734 1063 3103 
Q 1306 3334 1642 3459 
Q 1978 3584 2356 3584 
Q 2950 3584 3301 3228 
Q 3653 2872 3653 2272 
Q 3653 2128 3634 1964 
Q 3616 1800 3578 1613 
z
" transform="scale(0.015625)"/>
       <path id="DejaVuSans-Oblique-73" d="M 3200 3397 
L 3091 2853 
Q 2863 2978 2609 3040 
Q 2356 3103 2088 3103 
Q 1634 3103 1373 2948 
Q 1113 2794 1113 2528 
Q 1113 2219 1719 2053 
Q 1766 2041 1788 2034 
L 1972 1978 
Q 2547 1819 2739 1644 
Q 2931 1469 2931 1166 
Q 2931 609 2489 259 
Q 2047 -91 1331 -91 
Q 1053 -91 747 -37 
Q 441 16 72 128 
L 184 722 
Q 500 559 806 475 
Q 1113 391 1394 391 
Q 1816 391 2080 572 
Q 2344 753 2344 1031 
Q 2344 1331 1650 1516 
L 1591 1531 
L 1394 1581 
Q 956 1697 753 1886 
Q 550 2075 550 2369 
Q 550 2928 970 3256 
Q 1391 3584 2113 3584 
Q 2397 3584 2667 3537 
Q 2938 3491 3200 3397 
z
" transform="scale(0.015625)"/>
       <path id="DejaVuSans-Oblique-6f" d="M 1625 -91 
Q 1009 -91 651 289 
Q 294 669 294 1325 
Q 294 1706 417 2101 
Q 541 2497 738 2766 
Q 1047 3184 1428 3384 
Q 1809 3584 2291 3584 
Q 2888 3584 3255 3212 
Q 3622 2841 3622 2241 
Q 3622 1825 3500 1412 
Q 3378 1000 3181 728 
Q 2875 309 2494 109 
Q 2113 -91 1625 -91 
z
M 891 1344 
Q 891 869 1089 633 
Q 1288 397 1691 397 
Q 2269 397 2648 901 
Q 3028 1406 3028 2181 
Q 3028 2634 2825 2865 
Q 2622 3097 2228 3097 
Q 1903 3097 1650 2945 
Q 1397 2794 1197 2484 
Q 1050 2253 970 1956 
Q 891 1659 891 1344 
z
" transform="scale(0.015625)"/>
       <path id="DejaVuSans-Oblique-6c" d="M 1172 4863 
L 1747 4863 
L 800 0 
L 225 0 
L 1172 4863 
z
" transform="scale(0.015625)"/>
      </defs>
      <use xlink:href="#DejaVuSans-Oblique-3bd" transform="translate(0 0.015625)"/>
      <use xlink:href="#DejaVuSans-5b" transform="translate(88.329753 0.015625)"/>
      <use xlink:href="#DejaVuSans-Oblique-64" transform="translate(127.343425 0.015625)"/>
      <use xlink:href="#DejaVuSans-Oblique-69" transform="translate(190.819988 0.015625)"/>
      <use xlink:href="#DejaVuSans-Oblique-6d" transform="translate(218.603191 0.015625)"/>
      <use xlink:href="#DejaVuSans-Oblique-65" transform="translate(316.0153 0.015625)"/>
      <use xlink:href="#DejaVuSans-Oblique-6e" transform="translate(377.538738 0.015625)"/>
      <use xlink:href="#DejaVuSans-Oblique-73" transform="translate(440.917644 0.015625)"/>
      <use xlink:href="#DejaVuSans-Oblique-69" transform="translate(493.017253 0.015625)"/>
      <use xlink:href="#DejaVuSans-Oblique-6f" transform="translate(520.800457 0.015625)"/>
      <use xlink:href="#DejaVuSans-Oblique-6e" transform="translate(581.982097 0.015625)"/>
      <use xlink:href="#DejaVuSans-Oblique-6c" transform="translate(645.361003 0.015625)"/>
      <use xlink:href="#DejaVuSans-Oblique-65" transform="translate(673.144207 0.015625)"/>
      <use xlink:href="#DejaVuSans-Oblique-73" transform="translate(734.667644 0.015625)"/>
      <use xlink:href="#DejaVuSans-Oblique-73" transform="translate(786.767253 0.015625)"/>
      <use xlink:href="#DejaVuSans-5d" transform="translate(838.866863 0.015625)"/>
     </g>
    </g>
    <g id="line2d_19">
     <path d="M 283.02 292.984 
L 293.02 292.984 
L 303.02 292.984 
" style="fill: none; stroke: #d62728; stroke-linecap: square"/>
    </g>
    <g id="text_17">
     <!-- $\rho ~ [10^{15} ~ g \cdot cm^{-3}]$ -->
     <g transform="translate(311.02 296.484) scale(0.1 -0.1)">
      <defs>
       <path id="DejaVuSans-Oblique-3c1" d="M 1203 2875 
Q 1453 3194 1981 3475 
Q 2188 3584 2756 3584 
Q 3394 3584 3694 3078 
Q 3994 2572 3834 1747 
Q 3672 922 3175 415 
Q 2678 -91 2041 -91 
Q 1656 -91 1409 63 
Q 1163 213 1044 525 
L 681 -1331 
L 103 -1331 
L 697 1716 
Q 838 2438 1203 2875 
z
M 3238 1747 
Q 3359 2381 3169 2744 
Q 2978 3103 2522 3103 
Q 2066 3103 1734 2744 
Q 1403 2381 1281 1747 
Q 1156 1113 1347 750 
Q 1538 391 1994 391 
Q 2450 391 2781 750 
Q 3113 1113 3238 1747 
z
" transform="scale(0.015625)"/>
       <path id="DejaVuSans-35" d="M 691 4666 
L 3169 4666 
L 3169 4134 
L 1269 4134 
L 1269 2991 
Q 1406 3038 1543 3061 
Q 1681 3084 1819 3084 
Q 2600 3084 3056 2656 
Q 3513 2228 3513 1497 
Q 3513 744 3044 326 
Q 2575 -91 1722 -91 
Q 1428 -91 1123 -41 
Q 819 9 494 109 
L 494 744 
Q 775 591 1075 516 
Q 1375 441 1709 441 
Q 2250 441 2565 725 
Q 2881 1009 2881 1497 
Q 2881 1984 2565 2268 
Q 2250 2553 1709 2553 
Q 1456 2553 1204 2497 
Q 953 2441 691 2322 
L 691 4666 
z
" transform="scale(0.015625)"/>
       <path id="DejaVuSans-Oblique-67" d="M 3816 3500 
L 3219 434 
Q 3047 -456 2561 -893 
Q 2075 -1331 1253 -1331 
Q 950 -1331 690 -1286 
Q 431 -1241 206 -1147 
L 313 -588 
Q 525 -725 762 -790 
Q 1000 -856 1269 -856 
Q 1816 -856 2167 -557 
Q 2519 -259 2631 300 
L 2681 563 
Q 2441 288 2122 144 
Q 1803 0 1434 0 
Q 903 0 598 351 
Q 294 703 294 1319 
Q 294 1803 478 2267 
Q 663 2731 997 3091 
Q 1219 3328 1514 3456 
Q 1809 3584 2131 3584 
Q 2484 3584 2746 3420 
Q 3009 3256 3138 2956 
L 3238 3500 
L 3816 3500 
z
M 2950 2216 
Q 2950 2641 2750 2872 
Q 2550 3103 2181 3103 
Q 1953 3103 1747 3012 
Q 1541 2922 1394 2759 
Q 1156 2491 1023 2127 
Q 891 1763 891 1375 
Q 891 944 1092 712 
Q 1294 481 1672 481 
Q 2219 481 2584 976 
Q 2950 1472 2950 2216 
z
" transform="scale(0.015625)"/>
      </defs>
      <use xlink:href="#DejaVuSans-Oblique-3c1" transform="translate(0 0.765625)"/>
      <use xlink:href="#DejaVuSans-5b" transform="translate(95.946941 0.765625)"/>
      <use xlink:href="#DejaVuSans-31" transform="translate(134.960613 0.765625)"/>
      <use xlink:href="#DejaVuSans-30" transform="translate(198.58366 0.765625)"/>
      <use xlink:href="#DejaVuSans-31" transform="translate(263.163738 39.046875) scale(0.7)"/>
      <use xlink:href="#DejaVuSans-35" transform="translate(307.699871 39.046875) scale(0.7)"/>
      <use xlink:href="#DejaVuSans-Oblique-67" transform="translate(387.440757 0.765625)"/>
      <use xlink:href="#DejaVuSans-22c5" transform="translate(470.399741 0.765625)"/>
      <use xlink:href="#DejaVuSans-Oblique-63" transform="translate(521.669272 0.765625)"/>
      <use xlink:href="#DejaVuSans-Oblique-6d" transform="translate(576.649741 0.765625)"/>
      <use xlink:href="#DejaVuSans-2212" transform="translate(678.711746 39.046875) scale(0.7)"/>
      <use xlink:href="#DejaVuSans-33" transform="translate(737.36409 39.046875) scale(0.7)"/>
      <use xlink:href="#DejaVuSans-5d" transform="translate(784.634598 0.765625)"/>
     </g>
    </g>
   </g>
  </g>
 </g>
 <defs>
  <clipPath id="p85e1122add">
   <rect x="57.6" y="41.472" width="357.12" height="266.112"/>
  </clipPath>
 </defs>
</svg>
