<?xml version="1.0" encoding="utf-8" standalone="no"?>
<!DOCTYPE svg PUBLIC "-//W3C//DTD SVG 1.1//EN"
  "http://www.w3.org/Graphics/SVG/1.1/DTD/svg11.dtd">
<svg xmlns:xlink="http://www.w3.org/1999/xlink" width="460.8pt" height="345.6pt" viewBox="0 0 460.8 345.6" xmlns="http://www.w3.org/2000/svg" version="1.1">
 <metadata>
  <rdf:RDF xmlns:dc="http://purl.org/dc/elements/1.1/" xmlns:cc="http://creativecommons.org/ns#" xmlns:rdf="http://www.w3.org/1999/02/22-rdf-syntax-ns#">
   <cc:Work>
    <dc:type rdf:resource="http://purl.org/dc/dcmitype/StillImage"/>
    <dc:date>2024-01-15T17:15:06.240494</dc:date>
    <dc:format>image/svg+xml</dc:format>
    <dc:creator>
     <cc:Agent>
      <dc:title>Matplotlib v3.8.2, https://matplotlib.org/</dc:title>
     </cc:Agent>
    </dc:creator>
   </cc:Work>
  </rdf:RDF>
 </metadata>
 <defs>
  <style type="text/css">*{stroke-linejoin: round; stroke-linecap: butt}</style>
 </defs>
 <g id="figure_1">
  <g id="patch_1">
   <path d="M 0 345.6 
L 460.8 345.6 
L 460.8 0 
L 0 0 
z
" style="fill: #ffffff"/>
  </g>
  <g id="axes_1">
   <g id="patch_2">
    <path d="M 57.6 307.584 
L 414.72 307.584 
L 414.72 41.472 
L 57.6 41.472 
z
" style="fill: #ffffff"/>
   </g>
   <g id="matplotlib.axis_1">
    <g id="xtick_1">
     <g id="line2d_1">
      <defs>
       <path id="m8e2d7ec93a" d="M 0 0 
L 0 3.5 
" style="stroke: #000000; stroke-width: 0.8"/>
      </defs>
      <g>
       <use xlink:href="#m8e2d7ec93a" x="111.151096" y="307.584" style="stroke: #000000; stroke-width: 0.8"/>
      </g>
     </g>
     <g id="text_1">
      <!-- 0.5 -->
      <g transform="translate(103.199533 322.182437) scale(0.1 -0.1)">
       <defs>
        <path id="DejaVuSans-30" d="M 2034 4250 
Q 1547 4250 1301 3770 
Q 1056 3291 1056 2328 
Q 1056 1369 1301 889 
Q 1547 409 2034 409 
Q 2525 409 2770 889 
Q 3016 1369 3016 2328 
Q 3016 3291 2770 3770 
Q 2525 4250 2034 4250 
z
M 2034 4750 
Q 2819 4750 3233 4129 
Q 3647 3509 3647 2328 
Q 3647 1150 3233 529 
Q 2819 -91 2034 -91 
Q 1250 -91 836 529 
Q 422 1150 422 2328 
Q 422 3509 836 4129 
Q 1250 4750 2034 4750 
z
" transform="scale(0.015625)"/>
        <path id="DejaVuSans-2e" d="M 684 794 
L 1344 794 
L 1344 0 
L 684 0 
L 684 794 
z
" transform="scale(0.015625)"/>
        <path id="DejaVuSans-35" d="M 691 4666 
L 3169 4666 
L 3169 4134 
L 1269 4134 
L 1269 2991 
Q 1406 3038 1543 3061 
Q 1681 3084 1819 3084 
Q 2600 3084 3056 2656 
Q 3513 2228 3513 1497 
Q 3513 744 3044 326 
Q 2575 -91 1722 -91 
Q 1428 -91 1123 -41 
Q 819 9 494 109 
L 494 744 
Q 775 591 1075 516 
Q 1375 441 1709 441 
Q 2250 441 2565 725 
Q 2881 1009 2881 1497 
Q 2881 1984 2565 2268 
Q 2250 2553 1709 2553 
Q 1456 2553 1204 2497 
Q 953 2441 691 2322 
L 691 4666 
z
" transform="scale(0.015625)"/>
       </defs>
       <use xlink:href="#DejaVuSans-30"/>
       <use xlink:href="#DejaVuSans-2e" x="63.623047"/>
       <use xlink:href="#DejaVuSans-35" x="95.410156"/>
      </g>
     </g>
    </g>
    <g id="xtick_2">
     <g id="line2d_2">
      <g>
       <use xlink:href="#m8e2d7ec93a" x="171.924399" y="307.584" style="stroke: #000000; stroke-width: 0.8"/>
      </g>
     </g>
     <g id="text_2">
      <!-- 1.0 -->
      <g transform="translate(163.972836 322.182437) scale(0.1 -0.1)">
       <defs>
        <path id="DejaVuSans-31" d="M 794 531 
L 1825 531 
L 1825 4091 
L 703 3866 
L 703 4441 
L 1819 4666 
L 2450 4666 
L 2450 531 
L 3481 531 
L 3481 0 
L 794 0 
L 794 531 
z
" transform="scale(0.015625)"/>
       </defs>
       <use xlink:href="#DejaVuSans-31"/>
       <use xlink:href="#DejaVuSans-2e" x="63.623047"/>
       <use xlink:href="#DejaVuSans-30" x="95.410156"/>
      </g>
     </g>
    </g>
    <g id="xtick_3">
     <g id="line2d_3">
      <g>
       <use xlink:href="#m8e2d7ec93a" x="232.697702" y="307.584" style="stroke: #000000; stroke-width: 0.8"/>
      </g>
     </g>
     <g id="text_3">
      <!-- 1.5 -->
      <g transform="translate(224.746139 322.182437) scale(0.1 -0.1)">
       <use xlink:href="#DejaVuSans-31"/>
       <use xlink:href="#DejaVuSans-2e" x="63.623047"/>
       <use xlink:href="#DejaVuSans-35" x="95.410156"/>
      </g>
     </g>
    </g>
    <g id="xtick_4">
     <g id="line2d_4">
      <g>
       <use xlink:href="#m8e2d7ec93a" x="293.471005" y="307.584" style="stroke: #000000; stroke-width: 0.8"/>
      </g>
     </g>
     <g id="text_4">
      <!-- 2.0 -->
      <g transform="translate(285.519442 322.182437) scale(0.1 -0.1)">
       <defs>
        <path id="DejaVuSans-32" d="M 1228 531 
L 3431 531 
L 3431 0 
L 469 0 
L 469 531 
Q 828 903 1448 1529 
Q 2069 2156 2228 2338 
Q 2531 2678 2651 2914 
Q 2772 3150 2772 3378 
Q 2772 3750 2511 3984 
Q 2250 4219 1831 4219 
Q 1534 4219 1204 4116 
Q 875 4013 500 3803 
L 500 4441 
Q 881 4594 1212 4672 
Q 1544 4750 1819 4750 
Q 2544 4750 2975 4387 
Q 3406 4025 3406 3419 
Q 3406 3131 3298 2873 
Q 3191 2616 2906 2266 
Q 2828 2175 2409 1742 
Q 1991 1309 1228 531 
z
" transform="scale(0.015625)"/>
       </defs>
       <use xlink:href="#DejaVuSans-32"/>
       <use xlink:href="#DejaVuSans-2e" x="63.623047"/>
       <use xlink:href="#DejaVuSans-30" x="95.410156"/>
      </g>
     </g>
    </g>
    <g id="xtick_5">
     <g id="line2d_5">
      <g>
       <use xlink:href="#m8e2d7ec93a" x="354.244308" y="307.584" style="stroke: #000000; stroke-width: 0.8"/>
      </g>
     </g>
     <g id="text_5">
      <!-- 2.5 -->
      <g transform="translate(346.292746 322.182437) scale(0.1 -0.1)">
       <use xlink:href="#DejaVuSans-32"/>
       <use xlink:href="#DejaVuSans-2e" x="63.623047"/>
       <use xlink:href="#DejaVuSans-35" x="95.410156"/>
      </g>
     </g>
    </g>
    <g id="text_6">
     <!-- $\rho_{c} ~ [g \cdot cm^{-3}]$ -->
     <g transform="translate(205.51 337.362125) scale(0.1 -0.1)">
      <defs>
       <path id="DejaVuSans-Oblique-3c1" d="M 1203 2875 
Q 1453 3194 1981 3475 
Q 2188 3584 2756 3584 
Q 3394 3584 3694 3078 
Q 3994 2572 3834 1747 
Q 3672 922 3175 415 
Q 2678 -91 2041 -91 
Q 1656 -91 1409 63 
Q 1163 213 1044 525 
L 681 -1331 
L 103 -1331 
L 697 1716 
Q 838 2438 1203 2875 
z
M 3238 1747 
Q 3359 2381 3169 2744 
Q 2978 3103 2522 3103 
Q 2066 3103 1734 2744 
Q 1403 2381 1281 1747 
Q 1156 1113 1347 750 
Q 1538 391 1994 391 
Q 2450 391 2781 750 
Q 3113 1113 3238 1747 
z
" transform="scale(0.015625)"/>
       <path id="DejaVuSans-Oblique-63" d="M 3431 3366 
L 3316 2797 
Q 3109 2947 2876 3022 
Q 2644 3097 2394 3097 
Q 2119 3097 1870 3000 
Q 1622 2903 1453 2725 
Q 1184 2453 1037 2087 
Q 891 1722 891 1331 
Q 891 859 1127 628 
Q 1363 397 1844 397 
Q 2081 397 2348 469 
Q 2616 541 2906 684 
L 2797 116 
Q 2547 13 2283 -39 
Q 2019 -91 1741 -91 
Q 1044 -91 669 257 
Q 294 606 294 1253 
Q 294 1797 489 2255 
Q 684 2713 1069 3078 
Q 1331 3328 1684 3456 
Q 2038 3584 2456 3584 
Q 2700 3584 2940 3529 
Q 3181 3475 3431 3366 
z
" transform="scale(0.015625)"/>
       <path id="DejaVuSans-5b" d="M 550 4863 
L 1875 4863 
L 1875 4416 
L 1125 4416 
L 1125 -397 
L 1875 -397 
L 1875 -844 
L 550 -844 
L 550 4863 
z
" transform="scale(0.015625)"/>
       <path id="DejaVuSans-Oblique-67" d="M 3816 3500 
L 3219 434 
Q 3047 -456 2561 -893 
Q 2075 -1331 1253 -1331 
Q 950 -1331 690 -1286 
Q 431 -1241 206 -1147 
L 313 -588 
Q 525 -725 762 -790 
Q 1000 -856 1269 -856 
Q 1816 -856 2167 -557 
Q 2519 -259 2631 300 
L 2681 563 
Q 2441 288 2122 144 
Q 1803 0 1434 0 
Q 903 0 598 351 
Q 294 703 294 1319 
Q 294 1803 478 2267 
Q 663 2731 997 3091 
Q 1219 3328 1514 3456 
Q 1809 3584 2131 3584 
Q 2484 3584 2746 3420 
Q 3009 3256 3138 2956 
L 3238 3500 
L 3816 3500 
z
M 2950 2216 
Q 2950 2641 2750 2872 
Q 2550 3103 2181 3103 
Q 1953 3103 1747 3012 
Q 1541 2922 1394 2759 
Q 1156 2491 1023 2127 
Q 891 1763 891 1375 
Q 891 944 1092 712 
Q 1294 481 1672 481 
Q 2219 481 2584 976 
Q 2950 1472 2950 2216 
z
" transform="scale(0.015625)"/>
       <path id="DejaVuSans-22c5" d="M 684 2619 
L 1344 2619 
L 1344 1825 
L 684 1825 
L 684 2619 
z
" transform="scale(0.015625)"/>
       <path id="DejaVuSans-Oblique-6d" d="M 5747 2113 
L 5338 0 
L 4763 0 
L 5166 2094 
Q 5191 2228 5203 2325 
Q 5216 2422 5216 2491 
Q 5216 2772 5059 2928 
Q 4903 3084 4622 3084 
Q 4203 3084 3875 2770 
Q 3547 2456 3450 1953 
L 3066 0 
L 2491 0 
L 2900 2094 
Q 2925 2209 2937 2307 
Q 2950 2406 2950 2484 
Q 2950 2769 2794 2926 
Q 2638 3084 2363 3084 
Q 1938 3084 1609 2770 
Q 1281 2456 1184 1953 
L 800 0 
L 225 0 
L 909 3500 
L 1484 3500 
L 1375 2956 
Q 1609 3263 1923 3423 
Q 2238 3584 2597 3584 
Q 2978 3584 3223 3384 
Q 3469 3184 3519 2828 
Q 3781 3197 4126 3390 
Q 4472 3584 4856 3584 
Q 5306 3584 5551 3325 
Q 5797 3066 5797 2591 
Q 5797 2488 5784 2364 
Q 5772 2241 5747 2113 
z
" transform="scale(0.015625)"/>
       <path id="DejaVuSans-2212" d="M 678 2272 
L 4684 2272 
L 4684 1741 
L 678 1741 
L 678 2272 
z
" transform="scale(0.015625)"/>
       <path id="DejaVuSans-33" d="M 2597 2516 
Q 3050 2419 3304 2112 
Q 3559 1806 3559 1356 
Q 3559 666 3084 287 
Q 2609 -91 1734 -91 
Q 1441 -91 1130 -33 
Q 819 25 488 141 
L 488 750 
Q 750 597 1062 519 
Q 1375 441 1716 441 
Q 2309 441 2620 675 
Q 2931 909 2931 1356 
Q 2931 1769 2642 2001 
Q 2353 2234 1838 2234 
L 1294 2234 
L 1294 2753 
L 1863 2753 
Q 2328 2753 2575 2939 
Q 2822 3125 2822 3475 
Q 2822 3834 2567 4026 
Q 2313 4219 1838 4219 
Q 1578 4219 1281 4162 
Q 984 4106 628 3988 
L 628 4550 
Q 988 4650 1302 4700 
Q 1616 4750 1894 4750 
Q 2613 4750 3031 4423 
Q 3450 4097 3450 3541 
Q 3450 3153 3228 2886 
Q 3006 2619 2597 2516 
z
" transform="scale(0.015625)"/>
       <path id="DejaVuSans-5d" d="M 1947 4863 
L 1947 -844 
L 622 -844 
L 622 -397 
L 1369 -397 
L 1369 4416 
L 622 4416 
L 622 4863 
L 1947 4863 
z
" transform="scale(0.015625)"/>
      </defs>
      <use xlink:href="#DejaVuSans-Oblique-3c1" transform="translate(0 0.765625)"/>
      <use xlink:href="#DejaVuSans-Oblique-63" transform="translate(63.476562 -15.640625) scale(0.7)"/>
      <use xlink:href="#DejaVuSans-5b" transform="translate(137.167644 0.765625)"/>
      <use xlink:href="#DejaVuSans-Oblique-67" transform="translate(176.181316 0.765625)"/>
      <use xlink:href="#DejaVuSans-22c5" transform="translate(259.1403 0.765625)"/>
      <use xlink:href="#DejaVuSans-Oblique-63" transform="translate(310.409832 0.765625)"/>
      <use xlink:href="#DejaVuSans-Oblique-6d" transform="translate(365.3903 0.765625)"/>
      <use xlink:href="#DejaVuSans-2212" transform="translate(467.452306 39.046875) scale(0.7)"/>
      <use xlink:href="#DejaVuSans-33" transform="translate(526.104649 39.046875) scale(0.7)"/>
      <use xlink:href="#DejaVuSans-5d" transform="translate(573.375157 0.765625)"/>
     </g>
    </g>
    <g id="text_7">
     <!-- 1e15 -->
     <g transform="translate(389.479375 334.860562) scale(0.1 -0.1)">
      <defs>
       <path id="DejaVuSans-65" d="M 3597 1894 
L 3597 1613 
L 953 1613 
Q 991 1019 1311 708 
Q 1631 397 2203 397 
Q 2534 397 2845 478 
Q 3156 559 3463 722 
L 3463 178 
Q 3153 47 2828 -22 
Q 2503 -91 2169 -91 
Q 1331 -91 842 396 
Q 353 884 353 1716 
Q 353 2575 817 3079 
Q 1281 3584 2069 3584 
Q 2775 3584 3186 3129 
Q 3597 2675 3597 1894 
z
M 3022 2063 
Q 3016 2534 2758 2815 
Q 2500 3097 2075 3097 
Q 1594 3097 1305 2825 
Q 1016 2553 972 2059 
L 3022 2063 
z
" transform="scale(0.015625)"/>
      </defs>
      <use xlink:href="#DejaVuSans-31"/>
      <use xlink:href="#DejaVuSans-65" x="63.623047"/>
      <use xlink:href="#DejaVuSans-31" x="125.146484"/>
      <use xlink:href="#DejaVuSans-35" x="188.769531"/>
     </g>
    </g>
   </g>
   <g id="matplotlib.axis_2">
    <g id="ytick_1">
     <g id="line2d_6">
      <defs>
       <path id="mdc5c4ce225" d="M 0 0 
L -3.5 0 
" style="stroke: #000000; stroke-width: 0.8"/>
      </defs>
      <g>
       <use xlink:href="#mdc5c4ce225" x="57.6" y="295.48789" style="stroke: #000000; stroke-width: 0.8"/>
      </g>
     </g>
     <g id="text_8">
      <!-- 0.0 -->
      <g transform="translate(34.696875 299.287109) scale(0.1 -0.1)">
       <use xlink:href="#DejaVuSans-30"/>
       <use xlink:href="#DejaVuSans-2e" x="63.623047"/>
       <use xlink:href="#DejaVuSans-30" x="95.410156"/>
      </g>
     </g>
    </g>
    <g id="ytick_2">
     <g id="line2d_7">
      <g>
       <use xlink:href="#mdc5c4ce225" x="57.6" y="265.646485" style="stroke: #000000; stroke-width: 0.8"/>
      </g>
     </g>
     <g id="text_9">
      <!-- 0.5 -->
      <g transform="translate(34.696875 269.445703) scale(0.1 -0.1)">
       <use xlink:href="#DejaVuSans-30"/>
       <use xlink:href="#DejaVuSans-2e" x="63.623047"/>
       <use xlink:href="#DejaVuSans-35" x="95.410156"/>
      </g>
     </g>
    </g>
    <g id="ytick_3">
     <g id="line2d_8">
      <g>
       <use xlink:href="#mdc5c4ce225" x="57.6" y="235.805079" style="stroke: #000000; stroke-width: 0.8"/>
      </g>
     </g>
     <g id="text_10">
      <!-- 1.0 -->
      <g transform="translate(34.696875 239.604298) scale(0.1 -0.1)">
       <use xlink:href="#DejaVuSans-31"/>
       <use xlink:href="#DejaVuSans-2e" x="63.623047"/>
       <use xlink:href="#DejaVuSans-30" x="95.410156"/>
      </g>
     </g>
    </g>
    <g id="ytick_4">
     <g id="line2d_9">
      <g>
       <use xlink:href="#mdc5c4ce225" x="57.6" y="205.963673" style="stroke: #000000; stroke-width: 0.8"/>
      </g>
     </g>
     <g id="text_11">
      <!-- 1.5 -->
      <g transform="translate(34.696875 209.762892) scale(0.1 -0.1)">
       <use xlink:href="#DejaVuSans-31"/>
       <use xlink:href="#DejaVuSans-2e" x="63.623047"/>
       <use xlink:href="#DejaVuSans-35" x="95.410156"/>
      </g>
     </g>
    </g>
    <g id="ytick_5">
     <g id="line2d_10">
      <g>
       <use xlink:href="#mdc5c4ce225" x="57.6" y="176.122267" style="stroke: #000000; stroke-width: 0.8"/>
      </g>
     </g>
     <g id="text_12">
      <!-- 2.0 -->
      <g transform="translate(34.696875 179.921486) scale(0.1 -0.1)">
       <use xlink:href="#DejaVuSans-32"/>
       <use xlink:href="#DejaVuSans-2e" x="63.623047"/>
       <use xlink:href="#DejaVuSans-30" x="95.410156"/>
      </g>
     </g>
    </g>
    <g id="ytick_6">
     <g id="line2d_11">
      <g>
       <use xlink:href="#mdc5c4ce225" x="57.6" y="146.280861" style="stroke: #000000; stroke-width: 0.8"/>
      </g>
     </g>
     <g id="text_13">
      <!-- 2.5 -->
      <g transform="translate(34.696875 150.08008) scale(0.1 -0.1)">
       <use xlink:href="#DejaVuSans-32"/>
       <use xlink:href="#DejaVuSans-2e" x="63.623047"/>
       <use xlink:href="#DejaVuSans-35" x="95.410156"/>
      </g>
     </g>
    </g>
    <g id="ytick_7">
     <g id="line2d_12">
      <g>
       <use xlink:href="#mdc5c4ce225" x="57.6" y="116.439456" style="stroke: #000000; stroke-width: 0.8"/>
      </g>
     </g>
     <g id="text_14">
      <!-- 3.0 -->
      <g transform="translate(34.696875 120.238674) scale(0.1 -0.1)">
       <use xlink:href="#DejaVuSans-33"/>
       <use xlink:href="#DejaVuSans-2e" x="63.623047"/>
       <use xlink:href="#DejaVuSans-30" x="95.410156"/>
      </g>
     </g>
    </g>
    <g id="ytick_8">
     <g id="line2d_13">
      <g>
       <use xlink:href="#mdc5c4ce225" x="57.6" y="86.59805" style="stroke: #000000; stroke-width: 0.8"/>
      </g>
     </g>
     <g id="text_15">
      <!-- 3.5 -->
      <g transform="translate(34.696875 90.397268) scale(0.1 -0.1)">
       <use xlink:href="#DejaVuSans-33"/>
       <use xlink:href="#DejaVuSans-2e" x="63.623047"/>
       <use xlink:href="#DejaVuSans-35" x="95.410156"/>
      </g>
     </g>
    </g>
    <g id="ytick_9">
     <g id="line2d_14">
      <g>
       <use xlink:href="#mdc5c4ce225" x="57.6" y="56.756644" style="stroke: #000000; stroke-width: 0.8"/>
      </g>
     </g>
     <g id="text_16">
      <!-- 4.0 -->
      <g transform="translate(34.696875 60.555863) scale(0.1 -0.1)">
       <defs>
        <path id="DejaVuSans-34" d="M 2419 4116 
L 825 1625 
L 2419 1625 
L 2419 4116 
z
M 2253 4666 
L 3047 4666 
L 3047 1625 
L 3713 1625 
L 3713 1100 
L 3047 1100 
L 3047 0 
L 2419 0 
L 2419 1100 
L 313 1100 
L 313 1709 
L 2253 4666 
z
" transform="scale(0.015625)"/>
       </defs>
       <use xlink:href="#DejaVuSans-34"/>
       <use xlink:href="#DejaVuSans-2e" x="63.623047"/>
       <use xlink:href="#DejaVuSans-30" x="95.410156"/>
      </g>
     </g>
    </g>
    <g id="text_17">
     <!-- $\dfrac{\partial M}{\partial \rho_{c}} ~ [m^3]$ -->
     <g transform="translate(23.196875 195.978) rotate(-90) scale(0.1 -0.1)">
      <defs>
       <path id="DejaVuSans-2202" d="M 1366 -91 
Q 925 -91 638 175 
Q 297 491 297 1063 
Q 297 1656 597 2119 
Q 906 2594 1463 2594 
Q 1828 2594 2116 2366 
Q 2284 2231 2400 2006 
Q 2441 2259 2441 2547 
Q 2441 2969 2341 3213 
Q 2119 3753 1531 3753 
Q 1309 3753 966 3616 
L 966 4141 
Q 1328 4238 1653 4238 
Q 2491 4238 2847 3469 
Q 3013 3106 3013 2566 
Q 3013 2213 2934 1803 
Q 2738 778 2228 291 
Q 1828 -91 1366 -91 
z
M 831 969 
Q 831 656 969 488 
Q 1116 309 1341 309 
Q 1541 309 1700 450 
Q 1925 644 2091 959 
Q 2228 1219 2297 1497 
Q 2019 2169 1538 2169 
Q 1125 2169 944 1625 
Q 831 1288 831 969 
z
" transform="scale(0.015625)"/>
       <path id="DejaVuSans-Oblique-4d" d="M 1081 4666 
L 2028 4666 
L 2572 1522 
L 4378 4666 
L 5350 4666 
L 4441 0 
L 3828 0 
L 4622 4091 
L 2791 897 
L 2175 897 
L 1581 4103 
L 788 0 
L 172 0 
L 1081 4666 
z
" transform="scale(0.015625)"/>
      </defs>
      <use xlink:href="#DejaVuSans-2202" transform="translate(9 46.09375)"/>
      <use xlink:href="#DejaVuSans-Oblique-4d" transform="translate(60.708984 46.09375)"/>
      <use xlink:href="#DejaVuSans-2202" transform="translate(0 -52.796875)"/>
      <use xlink:href="#DejaVuSans-Oblique-3c1" transform="translate(51.708984 -52.796875)"/>
      <use xlink:href="#DejaVuSans-Oblique-63" transform="translate(115.185547 -69.203125) scale(0.7)"/>
      <use xlink:href="#DejaVuSans-5b" transform="translate(201.376628 0.875)"/>
      <use xlink:href="#DejaVuSans-Oblique-6d" transform="translate(240.3903 0.875)"/>
      <use xlink:href="#DejaVuSans-33" transform="translate(342.452306 39.15625) scale(0.7)"/>
      <use xlink:href="#DejaVuSans-5d" transform="translate(389.722813 0.875)"/>
      <path d="M 0 19.671875 
L 0 25.921875 
L 156.40625 25.921875 
L 156.40625 19.671875 
L 0 19.671875 
z
"/>
     </g>
    </g>
    <g id="text_18">
     <!-- 1e12 -->
     <g transform="translate(57.6 38.472) scale(0.1 -0.1)">
      <use xlink:href="#DejaVuSans-31"/>
      <use xlink:href="#DejaVuSans-65" x="63.623047"/>
      <use xlink:href="#DejaVuSans-31" x="125.146484"/>
      <use xlink:href="#DejaVuSans-32" x="188.769531"/>
     </g>
    </g>
   </g>
   <g id="line2d_15">
    <path d="M 73.832727 240.808651 
L 75.145074 228.510685 
L 76.498286 217.123592 
L 77.895952 206.339634 
L 79.341835 195.748307 
L 80.839884 185.24677 
L 82.394259 174.765834 
L 84.009345 164.288545 
L 85.689784 153.822313 
L 87.440501 143.397505 
L 89.266735 133.063289 
L 91.174074 122.886329 
L 93.168492 112.949938 
L 95.256391 103.353016 
L 97.444648 94.208558 
L 99.740663 85.641914 
L 102.152415 77.78816 
L 104.688526 70.789576 
L 107.358328 64.791576 
L 110.171942 59.938508 
L 113.140359 56.368635 
L 116.275544 54.208664 
L 119.590537 53.568 
L 123.099581 54.532833 
L 126.818256 57.1608 
L 130.763636 61.475476 
L 134.954468 67.462924 
L 139.411369 75.069168 
L 144.157056 84.198584 
L 149.216611 94.715491 
L 154.617775 106.446903 
L 160.391292 119.187619 
L 166.571302 132.707042 
L 173.195796 146.757465 
L 180.307138 161.083343 
L 187.952669 175.430937 
L 196.18541 189.557738 
L 205.064882 203.241043 
L 214.658049 216.285168 
L 225.040442 228.526906 
L 236.297452 239.838976 
L 248.525867 250.131424 
L 261.835672 259.351072 
L 276.352178 267.479196 
L 292.218546 274.528127 
L 309.598773 280.535712 
L 328.681253 285.563854 
L 349.683023 289.678955 
L 372.854842 293.00176 
L 398.487273 295.488 
" clip-path="url(#p201cc4f82e)" style="fill: none; stroke: #1f77b4; stroke-linecap: square"/>
    <defs>
     <path id="m7b2f4ec7d8" d="M 0 1.5 
C 0.397805 1.5 0.77937 1.341951 1.06066 1.06066 
C 1.341951 0.77937 1.5 0.397805 1.5 0 
C 1.5 -0.397805 1.341951 -0.77937 1.06066 -1.06066 
C 0.77937 -1.341951 0.397805 -1.5 0 -1.5 
C -0.397805 -1.5 -0.77937 -1.341951 -1.06066 -1.06066 
C -1.341951 -0.77937 -1.5 -0.397805 -1.5 0 
C -1.5 0.397805 -1.341951 0.77937 -1.06066 1.06066 
C -0.77937 1.341951 -0.397805 1.5 0 1.5 
z
" style="stroke: #1f77b4"/>
    </defs>
    <g clip-path="url(#p201cc4f82e)">
     <use xlink:href="#m7b2f4ec7d8" x="73.832727" y="240.808651" style="fill: #1f77b4; stroke: #1f77b4"/>
     <use xlink:href="#m7b2f4ec7d8" x="75.145074" y="228.510685" style="fill: #1f77b4; stroke: #1f77b4"/>
     <use xlink:href="#m7b2f4ec7d8" x="76.498286" y="217.123592" style="fill: #1f77b4; stroke: #1f77b4"/>
     <use xlink:href="#m7b2f4ec7d8" x="77.895952" y="206.339634" style="fill: #1f77b4; stroke: #1f77b4"/>
     <use xlink:href="#m7b2f4ec7d8" x="79.341835" y="195.748307" style="fill: #1f77b4; stroke: #1f77b4"/>
     <use xlink:href="#m7b2f4ec7d8" x="80.839884" y="185.24677" style="fill: #1f77b4; stroke: #1f77b4"/>
     <use xlink:href="#m7b2f4ec7d8" x="82.394259" y="174.765834" style="fill: #1f77b4; stroke: #1f77b4"/>
     <use xlink:href="#m7b2f4ec7d8" x="84.009345" y="164.288545" style="fill: #1f77b4; stroke: #1f77b4"/>
     <use xlink:href="#m7b2f4ec7d8" x="85.689784" y="153.822313" style="fill: #1f77b4; stroke: #1f77b4"/>
     <use xlink:href="#m7b2f4ec7d8" x="87.440501" y="143.397505" style="fill: #1f77b4; stroke: #1f77b4"/>
     <use xlink:href="#m7b2f4ec7d8" x="89.266735" y="133.063289" style="fill: #1f77b4; stroke: #1f77b4"/>
     <use xlink:href="#m7b2f4ec7d8" x="91.174074" y="122.886329" style="fill: #1f77b4; stroke: #1f77b4"/>
     <use xlink:href="#m7b2f4ec7d8" x="93.168492" y="112.949938" style="fill: #1f77b4; stroke: #1f77b4"/>
     <use xlink:href="#m7b2f4ec7d8" x="95.256391" y="103.353016" style="fill: #1f77b4; stroke: #1f77b4"/>
     <use xlink:href="#m7b2f4ec7d8" x="97.444648" y="94.208558" style="fill: #1f77b4; stroke: #1f77b4"/>
     <use xlink:href="#m7b2f4ec7d8" x="99.740663" y="85.641914" style="fill: #1f77b4; stroke: #1f77b4"/>
     <use xlink:href="#m7b2f4ec7d8" x="102.152415" y="77.78816" style="fill: #1f77b4; stroke: #1f77b4"/>
     <use xlink:href="#m7b2f4ec7d8" x="104.688526" y="70.789576" style="fill: #1f77b4; stroke: #1f77b4"/>
     <use xlink:href="#m7b2f4ec7d8" x="107.358328" y="64.791576" style="fill: #1f77b4; stroke: #1f77b4"/>
     <use xlink:href="#m7b2f4ec7d8" x="110.171942" y="59.938508" style="fill: #1f77b4; stroke: #1f77b4"/>
     <use xlink:href="#m7b2f4ec7d8" x="113.140359" y="56.368635" style="fill: #1f77b4; stroke: #1f77b4"/>
     <use xlink:href="#m7b2f4ec7d8" x="116.275544" y="54.208664" style="fill: #1f77b4; stroke: #1f77b4"/>
     <use xlink:href="#m7b2f4ec7d8" x="119.590537" y="53.568" style="fill: #1f77b4; stroke: #1f77b4"/>
     <use xlink:href="#m7b2f4ec7d8" x="123.099581" y="54.532833" style="fill: #1f77b4; stroke: #1f77b4"/>
     <use xlink:href="#m7b2f4ec7d8" x="126.818256" y="57.1608" style="fill: #1f77b4; stroke: #1f77b4"/>
     <use xlink:href="#m7b2f4ec7d8" x="130.763636" y="61.475476" style="fill: #1f77b4; stroke: #1f77b4"/>
     <use xlink:href="#m7b2f4ec7d8" x="134.954468" y="67.462924" style="fill: #1f77b4; stroke: #1f77b4"/>
     <use xlink:href="#m7b2f4ec7d8" x="139.411369" y="75.069168" style="fill: #1f77b4; stroke: #1f77b4"/>
     <use xlink:href="#m7b2f4ec7d8" x="144.157056" y="84.198584" style="fill: #1f77b4; stroke: #1f77b4"/>
     <use xlink:href="#m7b2f4ec7d8" x="149.216611" y="94.715491" style="fill: #1f77b4; stroke: #1f77b4"/>
     <use xlink:href="#m7b2f4ec7d8" x="154.617775" y="106.446903" style="fill: #1f77b4; stroke: #1f77b4"/>
     <use xlink:href="#m7b2f4ec7d8" x="160.391292" y="119.187619" style="fill: #1f77b4; stroke: #1f77b4"/>
     <use xlink:href="#m7b2f4ec7d8" x="166.571302" y="132.707042" style="fill: #1f77b4; stroke: #1f77b4"/>
     <use xlink:href="#m7b2f4ec7d8" x="173.195796" y="146.757465" style="fill: #1f77b4; stroke: #1f77b4"/>
     <use xlink:href="#m7b2f4ec7d8" x="180.307138" y="161.083343" style="fill: #1f77b4; stroke: #1f77b4"/>
     <use xlink:href="#m7b2f4ec7d8" x="187.952669" y="175.430937" style="fill: #1f77b4; stroke: #1f77b4"/>
     <use xlink:href="#m7b2f4ec7d8" x="196.18541" y="189.557738" style="fill: #1f77b4; stroke: #1f77b4"/>
     <use xlink:href="#m7b2f4ec7d8" x="205.064882" y="203.241043" style="fill: #1f77b4; stroke: #1f77b4"/>
     <use xlink:href="#m7b2f4ec7d8" x="214.658049" y="216.285168" style="fill: #1f77b4; stroke: #1f77b4"/>
     <use xlink:href="#m7b2f4ec7d8" x="225.040442" y="228.526906" style="fill: #1f77b4; stroke: #1f77b4"/>
     <use xlink:href="#m7b2f4ec7d8" x="236.297452" y="239.838976" style="fill: #1f77b4; stroke: #1f77b4"/>
     <use xlink:href="#m7b2f4ec7d8" x="248.525867" y="250.131424" style="fill: #1f77b4; stroke: #1f77b4"/>
     <use xlink:href="#m7b2f4ec7d8" x="261.835672" y="259.351072" style="fill: #1f77b4; stroke: #1f77b4"/>
     <use xlink:href="#m7b2f4ec7d8" x="276.352178" y="267.479196" style="fill: #1f77b4; stroke: #1f77b4"/>
     <use xlink:href="#m7b2f4ec7d8" x="292.218546" y="274.528127" style="fill: #1f77b4; stroke: #1f77b4"/>
     <use xlink:href="#m7b2f4ec7d8" x="309.598773" y="280.535712" style="fill: #1f77b4; stroke: #1f77b4"/>
     <use xlink:href="#m7b2f4ec7d8" x="328.681253" y="285.563854" style="fill: #1f77b4; stroke: #1f77b4"/>
     <use xlink:href="#m7b2f4ec7d8" x="349.683023" y="289.678955" style="fill: #1f77b4; stroke: #1f77b4"/>
     <use xlink:href="#m7b2f4ec7d8" x="372.854842" y="293.00176" style="fill: #1f77b4; stroke: #1f77b4"/>
     <use xlink:href="#m7b2f4ec7d8" x="398.487273" y="295.488" style="fill: #1f77b4; stroke: #1f77b4"/>
    </g>
   </g>
   <g id="patch_3">
    <path d="M 57.6 307.584 
L 57.6 41.472 
" style="fill: none; stroke: #000000; stroke-width: 0.8; stroke-linejoin: miter; stroke-linecap: square"/>
   </g>
   <g id="patch_4">
    <path d="M 414.72 307.584 
L 414.72 41.472 
" style="fill: none; stroke: #000000; stroke-width: 0.8; stroke-linejoin: miter; stroke-linecap: square"/>
   </g>
   <g id="patch_5">
    <path d="M 57.6 307.584 
L 414.72 307.584 
" style="fill: none; stroke: #000000; stroke-width: 0.8; stroke-linejoin: miter; stroke-linecap: square"/>
   </g>
   <g id="patch_6">
    <path d="M 57.6 41.472 
L 414.72 41.472 
" style="fill: none; stroke: #000000; stroke-width: 0.8; stroke-linejoin: miter; stroke-linecap: square"/>
   </g>
   <g id="text_19">
    <!-- Mass derivative vs Central density curve of the SLy4 EOS star family -->
    <g transform="translate(30.554063 22.1664) scale(0.12 -0.12)">
     <defs>
      <path id="DejaVuSans-4d" d="M 628 4666 
L 1569 4666 
L 2759 1491 
L 3956 4666 
L 4897 4666 
L 4897 0 
L 4281 0 
L 4281 4097 
L 3078 897 
L 2444 897 
L 1241 4097 
L 1241 0 
L 628 0 
L 628 4666 
z
" transform="scale(0.015625)"/>
      <path id="DejaVuSans-61" d="M 2194 1759 
Q 1497 1759 1228 1600 
Q 959 1441 959 1056 
Q 959 750 1161 570 
Q 1363 391 1709 391 
Q 2188 391 2477 730 
Q 2766 1069 2766 1631 
L 2766 1759 
L 2194 1759 
z
M 3341 1997 
L 3341 0 
L 2766 0 
L 2766 531 
Q 2569 213 2275 61 
Q 1981 -91 1556 -91 
Q 1019 -91 701 211 
Q 384 513 384 1019 
Q 384 1609 779 1909 
Q 1175 2209 1959 2209 
L 2766 2209 
L 2766 2266 
Q 2766 2663 2505 2880 
Q 2244 3097 1772 3097 
Q 1472 3097 1187 3025 
Q 903 2953 641 2809 
L 641 3341 
Q 956 3463 1253 3523 
Q 1550 3584 1831 3584 
Q 2591 3584 2966 3190 
Q 3341 2797 3341 1997 
z
" transform="scale(0.015625)"/>
      <path id="DejaVuSans-73" d="M 2834 3397 
L 2834 2853 
Q 2591 2978 2328 3040 
Q 2066 3103 1784 3103 
Q 1356 3103 1142 2972 
Q 928 2841 928 2578 
Q 928 2378 1081 2264 
Q 1234 2150 1697 2047 
L 1894 2003 
Q 2506 1872 2764 1633 
Q 3022 1394 3022 966 
Q 3022 478 2636 193 
Q 2250 -91 1575 -91 
Q 1294 -91 989 -36 
Q 684 19 347 128 
L 347 722 
Q 666 556 975 473 
Q 1284 391 1588 391 
Q 1994 391 2212 530 
Q 2431 669 2431 922 
Q 2431 1156 2273 1281 
Q 2116 1406 1581 1522 
L 1381 1569 
Q 847 1681 609 1914 
Q 372 2147 372 2553 
Q 372 3047 722 3315 
Q 1072 3584 1716 3584 
Q 2034 3584 2315 3537 
Q 2597 3491 2834 3397 
z
" transform="scale(0.015625)"/>
      <path id="DejaVuSans-20" transform="scale(0.015625)"/>
      <path id="DejaVuSans-64" d="M 2906 2969 
L 2906 4863 
L 3481 4863 
L 3481 0 
L 2906 0 
L 2906 525 
Q 2725 213 2448 61 
Q 2172 -91 1784 -91 
Q 1150 -91 751 415 
Q 353 922 353 1747 
Q 353 2572 751 3078 
Q 1150 3584 1784 3584 
Q 2172 3584 2448 3432 
Q 2725 3281 2906 2969 
z
M 947 1747 
Q 947 1113 1208 752 
Q 1469 391 1925 391 
Q 2381 391 2643 752 
Q 2906 1113 2906 1747 
Q 2906 2381 2643 2742 
Q 2381 3103 1925 3103 
Q 1469 3103 1208 2742 
Q 947 2381 947 1747 
z
" transform="scale(0.015625)"/>
      <path id="DejaVuSans-72" d="M 2631 2963 
Q 2534 3019 2420 3045 
Q 2306 3072 2169 3072 
Q 1681 3072 1420 2755 
Q 1159 2438 1159 1844 
L 1159 0 
L 581 0 
L 581 3500 
L 1159 3500 
L 1159 2956 
Q 1341 3275 1631 3429 
Q 1922 3584 2338 3584 
Q 2397 3584 2469 3576 
Q 2541 3569 2628 3553 
L 2631 2963 
z
" transform="scale(0.015625)"/>
      <path id="DejaVuSans-69" d="M 603 3500 
L 1178 3500 
L 1178 0 
L 603 0 
L 603 3500 
z
M 603 4863 
L 1178 4863 
L 1178 4134 
L 603 4134 
L 603 4863 
z
" transform="scale(0.015625)"/>
      <path id="DejaVuSans-76" d="M 191 3500 
L 800 3500 
L 1894 563 
L 2988 3500 
L 3597 3500 
L 2284 0 
L 1503 0 
L 191 3500 
z
" transform="scale(0.015625)"/>
      <path id="DejaVuSans-74" d="M 1172 4494 
L 1172 3500 
L 2356 3500 
L 2356 3053 
L 1172 3053 
L 1172 1153 
Q 1172 725 1289 603 
Q 1406 481 1766 481 
L 2356 481 
L 2356 0 
L 1766 0 
Q 1100 0 847 248 
Q 594 497 594 1153 
L 594 3053 
L 172 3053 
L 172 3500 
L 594 3500 
L 594 4494 
L 1172 4494 
z
" transform="scale(0.015625)"/>
      <path id="DejaVuSans-43" d="M 4122 4306 
L 4122 3641 
Q 3803 3938 3442 4084 
Q 3081 4231 2675 4231 
Q 1875 4231 1450 3742 
Q 1025 3253 1025 2328 
Q 1025 1406 1450 917 
Q 1875 428 2675 428 
Q 3081 428 3442 575 
Q 3803 722 4122 1019 
L 4122 359 
Q 3791 134 3420 21 
Q 3050 -91 2638 -91 
Q 1578 -91 968 557 
Q 359 1206 359 2328 
Q 359 3453 968 4101 
Q 1578 4750 2638 4750 
Q 3056 4750 3426 4639 
Q 3797 4528 4122 4306 
z
" transform="scale(0.015625)"/>
      <path id="DejaVuSans-6e" d="M 3513 2113 
L 3513 0 
L 2938 0 
L 2938 2094 
Q 2938 2591 2744 2837 
Q 2550 3084 2163 3084 
Q 1697 3084 1428 2787 
Q 1159 2491 1159 1978 
L 1159 0 
L 581 0 
L 581 3500 
L 1159 3500 
L 1159 2956 
Q 1366 3272 1645 3428 
Q 1925 3584 2291 3584 
Q 2894 3584 3203 3211 
Q 3513 2838 3513 2113 
z
" transform="scale(0.015625)"/>
      <path id="DejaVuSans-6c" d="M 603 4863 
L 1178 4863 
L 1178 0 
L 603 0 
L 603 4863 
z
" transform="scale(0.015625)"/>
      <path id="DejaVuSans-79" d="M 2059 -325 
Q 1816 -950 1584 -1140 
Q 1353 -1331 966 -1331 
L 506 -1331 
L 506 -850 
L 844 -850 
Q 1081 -850 1212 -737 
Q 1344 -625 1503 -206 
L 1606 56 
L 191 3500 
L 800 3500 
L 1894 763 
L 2988 3500 
L 3597 3500 
L 2059 -325 
z
" transform="scale(0.015625)"/>
      <path id="DejaVuSans-63" d="M 3122 3366 
L 3122 2828 
Q 2878 2963 2633 3030 
Q 2388 3097 2138 3097 
Q 1578 3097 1268 2742 
Q 959 2388 959 1747 
Q 959 1106 1268 751 
Q 1578 397 2138 397 
Q 2388 397 2633 464 
Q 2878 531 3122 666 
L 3122 134 
Q 2881 22 2623 -34 
Q 2366 -91 2075 -91 
Q 1284 -91 818 406 
Q 353 903 353 1747 
Q 353 2603 823 3093 
Q 1294 3584 2113 3584 
Q 2378 3584 2631 3529 
Q 2884 3475 3122 3366 
z
" transform="scale(0.015625)"/>
      <path id="DejaVuSans-75" d="M 544 1381 
L 544 3500 
L 1119 3500 
L 1119 1403 
Q 1119 906 1312 657 
Q 1506 409 1894 409 
Q 2359 409 2629 706 
Q 2900 1003 2900 1516 
L 2900 3500 
L 3475 3500 
L 3475 0 
L 2900 0 
L 2900 538 
Q 2691 219 2414 64 
Q 2138 -91 1772 -91 
Q 1169 -91 856 284 
Q 544 659 544 1381 
z
M 1991 3584 
L 1991 3584 
z
" transform="scale(0.015625)"/>
      <path id="DejaVuSans-6f" d="M 1959 3097 
Q 1497 3097 1228 2736 
Q 959 2375 959 1747 
Q 959 1119 1226 758 
Q 1494 397 1959 397 
Q 2419 397 2687 759 
Q 2956 1122 2956 1747 
Q 2956 2369 2687 2733 
Q 2419 3097 1959 3097 
z
M 1959 3584 
Q 2709 3584 3137 3096 
Q 3566 2609 3566 1747 
Q 3566 888 3137 398 
Q 2709 -91 1959 -91 
Q 1206 -91 779 398 
Q 353 888 353 1747 
Q 353 2609 779 3096 
Q 1206 3584 1959 3584 
z
" transform="scale(0.015625)"/>
      <path id="DejaVuSans-66" d="M 2375 4863 
L 2375 4384 
L 1825 4384 
Q 1516 4384 1395 4259 
Q 1275 4134 1275 3809 
L 1275 3500 
L 2222 3500 
L 2222 3053 
L 1275 3053 
L 1275 0 
L 697 0 
L 697 3053 
L 147 3053 
L 147 3500 
L 697 3500 
L 697 3744 
Q 697 4328 969 4595 
Q 1241 4863 1831 4863 
L 2375 4863 
z
" transform="scale(0.015625)"/>
      <path id="DejaVuSans-68" d="M 3513 2113 
L 3513 0 
L 2938 0 
L 2938 2094 
Q 2938 2591 2744 2837 
Q 2550 3084 2163 3084 
Q 1697 3084 1428 2787 
Q 1159 2491 1159 1978 
L 1159 0 
L 581 0 
L 581 4863 
L 1159 4863 
L 1159 2956 
Q 1366 3272 1645 3428 
Q 1925 3584 2291 3584 
Q 2894 3584 3203 3211 
Q 3513 2838 3513 2113 
z
" transform="scale(0.015625)"/>
      <path id="DejaVuSans-53" d="M 3425 4513 
L 3425 3897 
Q 3066 4069 2747 4153 
Q 2428 4238 2131 4238 
Q 1616 4238 1336 4038 
Q 1056 3838 1056 3469 
Q 1056 3159 1242 3001 
Q 1428 2844 1947 2747 
L 2328 2669 
Q 3034 2534 3370 2195 
Q 3706 1856 3706 1288 
Q 3706 609 3251 259 
Q 2797 -91 1919 -91 
Q 1588 -91 1214 -16 
Q 841 59 441 206 
L 441 856 
Q 825 641 1194 531 
Q 1563 422 1919 422 
Q 2459 422 2753 634 
Q 3047 847 3047 1241 
Q 3047 1584 2836 1778 
Q 2625 1972 2144 2069 
L 1759 2144 
Q 1053 2284 737 2584 
Q 422 2884 422 3419 
Q 422 4038 858 4394 
Q 1294 4750 2059 4750 
Q 2388 4750 2728 4690 
Q 3069 4631 3425 4513 
z
" transform="scale(0.015625)"/>
      <path id="DejaVuSans-4c" d="M 628 4666 
L 1259 4666 
L 1259 531 
L 3531 531 
L 3531 0 
L 628 0 
L 628 4666 
z
" transform="scale(0.015625)"/>
      <path id="DejaVuSans-45" d="M 628 4666 
L 3578 4666 
L 3578 4134 
L 1259 4134 
L 1259 2753 
L 3481 2753 
L 3481 2222 
L 1259 2222 
L 1259 531 
L 3634 531 
L 3634 0 
L 628 0 
L 628 4666 
z
" transform="scale(0.015625)"/>
      <path id="DejaVuSans-4f" d="M 2522 4238 
Q 1834 4238 1429 3725 
Q 1025 3213 1025 2328 
Q 1025 1447 1429 934 
Q 1834 422 2522 422 
Q 3209 422 3611 934 
Q 4013 1447 4013 2328 
Q 4013 3213 3611 3725 
Q 3209 4238 2522 4238 
z
M 2522 4750 
Q 3503 4750 4090 4092 
Q 4678 3434 4678 2328 
Q 4678 1225 4090 567 
Q 3503 -91 2522 -91 
Q 1538 -91 948 565 
Q 359 1222 359 2328 
Q 359 3434 948 4092 
Q 1538 4750 2522 4750 
z
" transform="scale(0.015625)"/>
      <path id="DejaVuSans-6d" d="M 3328 2828 
Q 3544 3216 3844 3400 
Q 4144 3584 4550 3584 
Q 5097 3584 5394 3201 
Q 5691 2819 5691 2113 
L 5691 0 
L 5113 0 
L 5113 2094 
Q 5113 2597 4934 2840 
Q 4756 3084 4391 3084 
Q 3944 3084 3684 2787 
Q 3425 2491 3425 1978 
L 3425 0 
L 2847 0 
L 2847 2094 
Q 2847 2600 2669 2842 
Q 2491 3084 2119 3084 
Q 1678 3084 1418 2786 
Q 1159 2488 1159 1978 
L 1159 0 
L 581 0 
L 581 3500 
L 1159 3500 
L 1159 2956 
Q 1356 3278 1631 3431 
Q 1906 3584 2284 3584 
Q 2666 3584 2933 3390 
Q 3200 3197 3328 2828 
z
" transform="scale(0.015625)"/>
     </defs>
     <use xlink:href="#DejaVuSans-4d"/>
     <use xlink:href="#DejaVuSans-61" x="86.279297"/>
     <use xlink:href="#DejaVuSans-73" x="147.558594"/>
     <use xlink:href="#DejaVuSans-73" x="199.658203"/>
     <use xlink:href="#DejaVuSans-20" x="251.757812"/>
     <use xlink:href="#DejaVuSans-64" x="283.544922"/>
     <use xlink:href="#DejaVuSans-65" x="347.021484"/>
     <use xlink:href="#DejaVuSans-72" x="408.544922"/>
     <use xlink:href="#DejaVuSans-69" x="449.658203"/>
     <use xlink:href="#DejaVuSans-76" x="477.441406"/>
     <use xlink:href="#DejaVuSans-61" x="536.621094"/>
     <use xlink:href="#DejaVuSans-74" x="597.900391"/>
     <use xlink:href="#DejaVuSans-69" x="637.109375"/>
     <use xlink:href="#DejaVuSans-76" x="664.892578"/>
     <use xlink:href="#DejaVuSans-65" x="724.072266"/>
     <use xlink:href="#DejaVuSans-20" x="785.595703"/>
     <use xlink:href="#DejaVuSans-76" x="817.382812"/>
     <use xlink:href="#DejaVuSans-73" x="876.5625"/>
     <use xlink:href="#DejaVuSans-20" x="928.662109"/>
     <use xlink:href="#DejaVuSans-43" x="960.449219"/>
     <use xlink:href="#DejaVuSans-65" x="1030.273438"/>
     <use xlink:href="#DejaVuSans-6e" x="1091.796875"/>
     <use xlink:href="#DejaVuSans-74" x="1155.175781"/>
     <use xlink:href="#DejaVuSans-72" x="1194.384766"/>
     <use xlink:href="#DejaVuSans-61" x="1235.498047"/>
     <use xlink:href="#DejaVuSans-6c" x="1296.777344"/>
     <use xlink:href="#DejaVuSans-20" x="1324.560547"/>
     <use xlink:href="#DejaVuSans-64" x="1356.347656"/>
     <use xlink:href="#DejaVuSans-65" x="1419.824219"/>
     <use xlink:href="#DejaVuSans-6e" x="1481.347656"/>
     <use xlink:href="#DejaVuSans-73" x="1544.726562"/>
     <use xlink:href="#DejaVuSans-69" x="1596.826172"/>
     <use xlink:href="#DejaVuSans-74" x="1624.609375"/>
     <use xlink:href="#DejaVuSans-79" x="1663.818359"/>
     <use xlink:href="#DejaVuSans-20" x="1722.998047"/>
     <use xlink:href="#DejaVuSans-63" x="1754.785156"/>
     <use xlink:href="#DejaVuSans-75" x="1809.765625"/>
     <use xlink:href="#DejaVuSans-72" x="1873.144531"/>
     <use xlink:href="#DejaVuSans-76" x="1914.257812"/>
     <use xlink:href="#DejaVuSans-65" x="1973.4375"/>
     <use xlink:href="#DejaVuSans-20" x="2034.960938"/>
     <use xlink:href="#DejaVuSans-6f" x="2066.748047"/>
     <use xlink:href="#DejaVuSans-66" x="2127.929688"/>
     <use xlink:href="#DejaVuSans-20" x="2163.134766"/>
     <use xlink:href="#DejaVuSans-74" x="2194.921875"/>
     <use xlink:href="#DejaVuSans-68" x="2234.130859"/>
     <use xlink:href="#DejaVuSans-65" x="2297.509766"/>
     <use xlink:href="#DejaVuSans-20" x="2359.033203"/>
     <use xlink:href="#DejaVuSans-53" x="2390.820312"/>
     <use xlink:href="#DejaVuSans-4c" x="2454.296875"/>
     <use xlink:href="#DejaVuSans-79" x="2500.884766"/>
     <use xlink:href="#DejaVuSans-34" x="2560.064453"/>
     <use xlink:href="#DejaVuSans-20" x="2623.6875"/>
     <use xlink:href="#DejaVuSans-45" x="2655.474609"/>
     <use xlink:href="#DejaVuSans-4f" x="2718.658203"/>
     <use xlink:href="#DejaVuSans-53" x="2797.369141"/>
     <use xlink:href="#DejaVuSans-20" x="2860.845703"/>
     <use xlink:href="#DejaVuSans-73" x="2892.632812"/>
     <use xlink:href="#DejaVuSans-74" x="2944.732422"/>
     <use xlink:href="#DejaVuSans-61" x="2983.941406"/>
     <use xlink:href="#DejaVuSans-72" x="3045.220703"/>
     <use xlink:href="#DejaVuSans-20" x="3086.333984"/>
     <use xlink:href="#DejaVuSans-66" x="3118.121094"/>
     <use xlink:href="#DejaVuSans-61" x="3153.326172"/>
     <use xlink:href="#DejaVuSans-6d" x="3214.605469"/>
     <use xlink:href="#DejaVuSans-69" x="3312.017578"/>
     <use xlink:href="#DejaVuSans-6c" x="3339.800781"/>
     <use xlink:href="#DejaVuSans-79" x="3367.583984"/>
    </g>
   </g>
  </g>
 </g>
 <defs>
  <clipPath id="p201cc4f82e">
   <rect x="57.6" y="41.472" width="357.12" height="266.112"/>
  </clipPath>
 </defs>
</svg>
