<?xml version="1.0" encoding="utf-8" standalone="no"?>
<!DOCTYPE svg PUBLIC "-//W3C//DTD SVG 1.1//EN"
  "http://www.w3.org/Graphics/SVG/1.1/DTD/svg11.dtd">
<svg xmlns:xlink="http://www.w3.org/1999/xlink" width="460.8pt" height="345.6pt" viewBox="0 0 460.8 345.6" xmlns="http://www.w3.org/2000/svg" version="1.1">
 <metadata>
  <rdf:RDF xmlns:dc="http://purl.org/dc/elements/1.1/" xmlns:cc="http://creativecommons.org/ns#" xmlns:rdf="http://www.w3.org/1999/02/22-rdf-syntax-ns#">
   <cc:Work>
    <dc:type rdf:resource="http://purl.org/dc/dcmitype/StillImage"/>
    <dc:date>2024-01-26T19:45:10.244456</dc:date>
    <dc:format>image/svg+xml</dc:format>
    <dc:creator>
     <cc:Agent>
      <dc:title>Matplotlib v3.8.2, https://matplotlib.org/</dc:title>
     </cc:Agent>
    </dc:creator>
   </cc:Work>
  </rdf:RDF>
 </metadata>
 <defs>
  <style type="text/css">*{stroke-linejoin: round; stroke-linecap: butt}</style>
 </defs>
 <g id="figure_1">
  <g id="patch_1">
   <path d="M 0 345.6 
L 460.8 345.6 
L 460.8 0 
L 0 0 
z
" style="fill: #ffffff"/>
  </g>
  <g id="axes_1">
   <g id="patch_2">
    <path d="M 57.6 307.584 
L 414.72 307.584 
L 414.72 41.472 
L 57.6 41.472 
z
" style="fill: #ffffff"/>
   </g>
   <g id="matplotlib.axis_1">
    <g id="xtick_1">
     <g id="line2d_1">
      <defs>
       <path id="m47cd8701e0" d="M 0 0 
L 0 3.5 
" style="stroke: #000000; stroke-width: 0.8"/>
      </defs>
      <g>
       <use xlink:href="#m47cd8701e0" x="73.82841" y="307.584" style="stroke: #000000; stroke-width: 0.8"/>
      </g>
     </g>
     <g id="text_1">
      <!-- 0 -->
      <g transform="translate(70.64716 322.182437) scale(0.1 -0.1)">
       <defs>
        <path id="DejaVuSans-30" d="M 2034 4250 
Q 1547 4250 1301 3770 
Q 1056 3291 1056 2328 
Q 1056 1369 1301 889 
Q 1547 409 2034 409 
Q 2525 409 2770 889 
Q 3016 1369 3016 2328 
Q 3016 3291 2770 3770 
Q 2525 4250 2034 4250 
z
M 2034 4750 
Q 2819 4750 3233 4129 
Q 3647 3509 3647 2328 
Q 3647 1150 3233 529 
Q 2819 -91 2034 -91 
Q 1250 -91 836 529 
Q 422 1150 422 2328 
Q 422 3509 836 4129 
Q 1250 4750 2034 4750 
z
" transform="scale(0.015625)"/>
       </defs>
       <use xlink:href="#DejaVuSans-30"/>
      </g>
     </g>
    </g>
    <g id="xtick_2">
     <g id="line2d_2">
      <g>
       <use xlink:href="#m47cd8701e0" x="117.000877" y="307.584" style="stroke: #000000; stroke-width: 0.8"/>
      </g>
     </g>
     <g id="text_2">
      <!-- 1 -->
      <g transform="translate(113.819627 322.182437) scale(0.1 -0.1)">
       <defs>
        <path id="DejaVuSans-31" d="M 794 531 
L 1825 531 
L 1825 4091 
L 703 3866 
L 703 4441 
L 1819 4666 
L 2450 4666 
L 2450 531 
L 3481 531 
L 3481 0 
L 794 0 
L 794 531 
z
" transform="scale(0.015625)"/>
       </defs>
       <use xlink:href="#DejaVuSans-31"/>
      </g>
     </g>
    </g>
    <g id="xtick_3">
     <g id="line2d_3">
      <g>
       <use xlink:href="#m47cd8701e0" x="160.173343" y="307.584" style="stroke: #000000; stroke-width: 0.8"/>
      </g>
     </g>
     <g id="text_3">
      <!-- 2 -->
      <g transform="translate(156.992093 322.182437) scale(0.1 -0.1)">
       <defs>
        <path id="DejaVuSans-32" d="M 1228 531 
L 3431 531 
L 3431 0 
L 469 0 
L 469 531 
Q 828 903 1448 1529 
Q 2069 2156 2228 2338 
Q 2531 2678 2651 2914 
Q 2772 3150 2772 3378 
Q 2772 3750 2511 3984 
Q 2250 4219 1831 4219 
Q 1534 4219 1204 4116 
Q 875 4013 500 3803 
L 500 4441 
Q 881 4594 1212 4672 
Q 1544 4750 1819 4750 
Q 2544 4750 2975 4387 
Q 3406 4025 3406 3419 
Q 3406 3131 3298 2873 
Q 3191 2616 2906 2266 
Q 2828 2175 2409 1742 
Q 1991 1309 1228 531 
z
" transform="scale(0.015625)"/>
       </defs>
       <use xlink:href="#DejaVuSans-32"/>
      </g>
     </g>
    </g>
    <g id="xtick_4">
     <g id="line2d_4">
      <g>
       <use xlink:href="#m47cd8701e0" x="203.34581" y="307.584" style="stroke: #000000; stroke-width: 0.8"/>
      </g>
     </g>
     <g id="text_4">
      <!-- 3 -->
      <g transform="translate(200.16456 322.182437) scale(0.1 -0.1)">
       <defs>
        <path id="DejaVuSans-33" d="M 2597 2516 
Q 3050 2419 3304 2112 
Q 3559 1806 3559 1356 
Q 3559 666 3084 287 
Q 2609 -91 1734 -91 
Q 1441 -91 1130 -33 
Q 819 25 488 141 
L 488 750 
Q 750 597 1062 519 
Q 1375 441 1716 441 
Q 2309 441 2620 675 
Q 2931 909 2931 1356 
Q 2931 1769 2642 2001 
Q 2353 2234 1838 2234 
L 1294 2234 
L 1294 2753 
L 1863 2753 
Q 2328 2753 2575 2939 
Q 2822 3125 2822 3475 
Q 2822 3834 2567 4026 
Q 2313 4219 1838 4219 
Q 1578 4219 1281 4162 
Q 984 4106 628 3988 
L 628 4550 
Q 988 4650 1302 4700 
Q 1616 4750 1894 4750 
Q 2613 4750 3031 4423 
Q 3450 4097 3450 3541 
Q 3450 3153 3228 2886 
Q 3006 2619 2597 2516 
z
" transform="scale(0.015625)"/>
       </defs>
       <use xlink:href="#DejaVuSans-33"/>
      </g>
     </g>
    </g>
    <g id="xtick_5">
     <g id="line2d_5">
      <g>
       <use xlink:href="#m47cd8701e0" x="246.518277" y="307.584" style="stroke: #000000; stroke-width: 0.8"/>
      </g>
     </g>
     <g id="text_5">
      <!-- 4 -->
      <g transform="translate(243.337027 322.182437) scale(0.1 -0.1)">
       <defs>
        <path id="DejaVuSans-34" d="M 2419 4116 
L 825 1625 
L 2419 1625 
L 2419 4116 
z
M 2253 4666 
L 3047 4666 
L 3047 1625 
L 3713 1625 
L 3713 1100 
L 3047 1100 
L 3047 0 
L 2419 0 
L 2419 1100 
L 313 1100 
L 313 1709 
L 2253 4666 
z
" transform="scale(0.015625)"/>
       </defs>
       <use xlink:href="#DejaVuSans-34"/>
      </g>
     </g>
    </g>
    <g id="xtick_6">
     <g id="line2d_6">
      <g>
       <use xlink:href="#m47cd8701e0" x="289.690743" y="307.584" style="stroke: #000000; stroke-width: 0.8"/>
      </g>
     </g>
     <g id="text_6">
      <!-- 5 -->
      <g transform="translate(286.509493 322.182437) scale(0.1 -0.1)">
       <defs>
        <path id="DejaVuSans-35" d="M 691 4666 
L 3169 4666 
L 3169 4134 
L 1269 4134 
L 1269 2991 
Q 1406 3038 1543 3061 
Q 1681 3084 1819 3084 
Q 2600 3084 3056 2656 
Q 3513 2228 3513 1497 
Q 3513 744 3044 326 
Q 2575 -91 1722 -91 
Q 1428 -91 1123 -41 
Q 819 9 494 109 
L 494 744 
Q 775 591 1075 516 
Q 1375 441 1709 441 
Q 2250 441 2565 725 
Q 2881 1009 2881 1497 
Q 2881 1984 2565 2268 
Q 2250 2553 1709 2553 
Q 1456 2553 1204 2497 
Q 953 2441 691 2322 
L 691 4666 
z
" transform="scale(0.015625)"/>
       </defs>
       <use xlink:href="#DejaVuSans-35"/>
      </g>
     </g>
    </g>
    <g id="xtick_7">
     <g id="line2d_7">
      <g>
       <use xlink:href="#m47cd8701e0" x="332.86321" y="307.584" style="stroke: #000000; stroke-width: 0.8"/>
      </g>
     </g>
     <g id="text_7">
      <!-- 6 -->
      <g transform="translate(329.68196 322.182437) scale(0.1 -0.1)">
       <defs>
        <path id="DejaVuSans-36" d="M 2113 2584 
Q 1688 2584 1439 2293 
Q 1191 2003 1191 1497 
Q 1191 994 1439 701 
Q 1688 409 2113 409 
Q 2538 409 2786 701 
Q 3034 994 3034 1497 
Q 3034 2003 2786 2293 
Q 2538 2584 2113 2584 
z
M 3366 4563 
L 3366 3988 
Q 3128 4100 2886 4159 
Q 2644 4219 2406 4219 
Q 1781 4219 1451 3797 
Q 1122 3375 1075 2522 
Q 1259 2794 1537 2939 
Q 1816 3084 2150 3084 
Q 2853 3084 3261 2657 
Q 3669 2231 3669 1497 
Q 3669 778 3244 343 
Q 2819 -91 2113 -91 
Q 1303 -91 875 529 
Q 447 1150 447 2328 
Q 447 3434 972 4092 
Q 1497 4750 2381 4750 
Q 2619 4750 2861 4703 
Q 3103 4656 3366 4563 
z
" transform="scale(0.015625)"/>
       </defs>
       <use xlink:href="#DejaVuSans-36"/>
      </g>
     </g>
    </g>
    <g id="xtick_8">
     <g id="line2d_8">
      <g>
       <use xlink:href="#m47cd8701e0" x="376.035677" y="307.584" style="stroke: #000000; stroke-width: 0.8"/>
      </g>
     </g>
     <g id="text_8">
      <!-- 7 -->
      <g transform="translate(372.854427 322.182437) scale(0.1 -0.1)">
       <defs>
        <path id="DejaVuSans-37" d="M 525 4666 
L 3525 4666 
L 3525 4397 
L 1831 0 
L 1172 0 
L 2766 4134 
L 525 4134 
L 525 4666 
z
" transform="scale(0.015625)"/>
       </defs>
       <use xlink:href="#DejaVuSans-37"/>
      </g>
     </g>
    </g>
    <g id="text_9">
     <!-- $r ~ [km]$ -->
     <g transform="translate(220.81 335.860562) scale(0.1 -0.1)">
      <defs>
       <path id="DejaVuSans-Oblique-72" d="M 2853 2969 
Q 2766 3016 2653 3041 
Q 2541 3066 2413 3066 
Q 1953 3066 1609 2717 
Q 1266 2369 1153 1784 
L 800 0 
L 225 0 
L 909 3500 
L 1484 3500 
L 1375 2956 
Q 1603 3259 1920 3421 
Q 2238 3584 2597 3584 
Q 2691 3584 2781 3573 
Q 2872 3563 2963 3538 
L 2853 2969 
z
" transform="scale(0.015625)"/>
       <path id="DejaVuSans-5b" d="M 550 4863 
L 1875 4863 
L 1875 4416 
L 1125 4416 
L 1125 -397 
L 1875 -397 
L 1875 -844 
L 550 -844 
L 550 4863 
z
" transform="scale(0.015625)"/>
       <path id="DejaVuSans-Oblique-6b" d="M 1172 4863 
L 1747 4863 
L 1197 2028 
L 3169 3500 
L 3916 3500 
L 1716 1825 
L 3322 0 
L 2625 0 
L 1131 1709 
L 800 0 
L 225 0 
L 1172 4863 
z
" transform="scale(0.015625)"/>
       <path id="DejaVuSans-Oblique-6d" d="M 5747 2113 
L 5338 0 
L 4763 0 
L 5166 2094 
Q 5191 2228 5203 2325 
Q 5216 2422 5216 2491 
Q 5216 2772 5059 2928 
Q 4903 3084 4622 3084 
Q 4203 3084 3875 2770 
Q 3547 2456 3450 1953 
L 3066 0 
L 2491 0 
L 2900 2094 
Q 2925 2209 2937 2307 
Q 2950 2406 2950 2484 
Q 2950 2769 2794 2926 
Q 2638 3084 2363 3084 
Q 1938 3084 1609 2770 
Q 1281 2456 1184 1953 
L 800 0 
L 225 0 
L 909 3500 
L 1484 3500 
L 1375 2956 
Q 1609 3263 1923 3423 
Q 2238 3584 2597 3584 
Q 2978 3584 3223 3384 
Q 3469 3184 3519 2828 
Q 3781 3197 4126 3390 
Q 4472 3584 4856 3584 
Q 5306 3584 5551 3325 
Q 5797 3066 5797 2591 
Q 5797 2488 5784 2364 
Q 5772 2241 5747 2113 
z
" transform="scale(0.015625)"/>
       <path id="DejaVuSans-5d" d="M 1947 4863 
L 1947 -844 
L 622 -844 
L 622 -397 
L 1369 -397 
L 1369 4416 
L 622 4416 
L 622 4863 
L 1947 4863 
z
" transform="scale(0.015625)"/>
      </defs>
      <use xlink:href="#DejaVuSans-Oblique-72" transform="translate(0 0.015625)"/>
      <use xlink:href="#DejaVuSans-5b" transform="translate(73.58366 0.015625)"/>
      <use xlink:href="#DejaVuSans-Oblique-6b" transform="translate(112.597332 0.015625)"/>
      <use xlink:href="#DejaVuSans-Oblique-6d" transform="translate(170.507488 0.015625)"/>
      <use xlink:href="#DejaVuSans-5d" transform="translate(267.919597 0.015625)"/>
     </g>
    </g>
   </g>
   <g id="matplotlib.axis_2">
    <g id="ytick_1">
     <g id="line2d_9">
      <defs>
       <path id="mf15db92f95" d="M 0 0 
L -3.5 0 
" style="stroke: #000000; stroke-width: 0.8"/>
      </defs>
      <g>
       <use xlink:href="#mf15db92f95" x="57.6" y="290.365197" style="stroke: #000000; stroke-width: 0.8"/>
      </g>
     </g>
     <g id="text_10">
      <!-- −2 -->
      <g transform="translate(35.857813 294.164416) scale(0.1 -0.1)">
       <defs>
        <path id="DejaVuSans-2212" d="M 678 2272 
L 4684 2272 
L 4684 1741 
L 678 1741 
L 678 2272 
z
" transform="scale(0.015625)"/>
       </defs>
       <use xlink:href="#DejaVuSans-2212"/>
       <use xlink:href="#DejaVuSans-32" x="83.789062"/>
      </g>
     </g>
    </g>
    <g id="ytick_2">
     <g id="line2d_10">
      <g>
       <use xlink:href="#mf15db92f95" x="57.6" y="259.576327" style="stroke: #000000; stroke-width: 0.8"/>
      </g>
     </g>
     <g id="text_11">
      <!-- −1 -->
      <g transform="translate(35.857813 263.375546) scale(0.1 -0.1)">
       <use xlink:href="#DejaVuSans-2212"/>
       <use xlink:href="#DejaVuSans-31" x="83.789062"/>
      </g>
     </g>
    </g>
    <g id="ytick_3">
     <g id="line2d_11">
      <g>
       <use xlink:href="#mf15db92f95" x="57.6" y="228.787458" style="stroke: #000000; stroke-width: 0.8"/>
      </g>
     </g>
     <g id="text_12">
      <!-- 0 -->
      <g transform="translate(44.2375 232.586676) scale(0.1 -0.1)">
       <use xlink:href="#DejaVuSans-30"/>
      </g>
     </g>
    </g>
    <g id="ytick_4">
     <g id="line2d_12">
      <g>
       <use xlink:href="#mf15db92f95" x="57.6" y="197.998588" style="stroke: #000000; stroke-width: 0.8"/>
      </g>
     </g>
     <g id="text_13">
      <!-- 1 -->
      <g transform="translate(44.2375 201.797807) scale(0.1 -0.1)">
       <use xlink:href="#DejaVuSans-31"/>
      </g>
     </g>
    </g>
    <g id="ytick_5">
     <g id="line2d_13">
      <g>
       <use xlink:href="#mf15db92f95" x="57.6" y="167.209718" style="stroke: #000000; stroke-width: 0.8"/>
      </g>
     </g>
     <g id="text_14">
      <!-- 2 -->
      <g transform="translate(44.2375 171.008937) scale(0.1 -0.1)">
       <use xlink:href="#DejaVuSans-32"/>
      </g>
     </g>
    </g>
    <g id="ytick_6">
     <g id="line2d_14">
      <g>
       <use xlink:href="#mf15db92f95" x="57.6" y="136.420848" style="stroke: #000000; stroke-width: 0.8"/>
      </g>
     </g>
     <g id="text_15">
      <!-- 3 -->
      <g transform="translate(44.2375 140.220067) scale(0.1 -0.1)">
       <use xlink:href="#DejaVuSans-33"/>
      </g>
     </g>
    </g>
    <g id="ytick_7">
     <g id="line2d_15">
      <g>
       <use xlink:href="#mf15db92f95" x="57.6" y="105.631979" style="stroke: #000000; stroke-width: 0.8"/>
      </g>
     </g>
     <g id="text_16">
      <!-- 4 -->
      <g transform="translate(44.2375 109.431197) scale(0.1 -0.1)">
       <use xlink:href="#DejaVuSans-34"/>
      </g>
     </g>
    </g>
    <g id="ytick_8">
     <g id="line2d_16">
      <g>
       <use xlink:href="#mf15db92f95" x="57.6" y="74.843109" style="stroke: #000000; stroke-width: 0.8"/>
      </g>
     </g>
     <g id="text_17">
      <!-- 5 -->
      <g transform="translate(44.2375 78.642328) scale(0.1 -0.1)">
       <use xlink:href="#DejaVuSans-35"/>
      </g>
     </g>
    </g>
    <g id="ytick_9">
     <g id="line2d_17">
      <g>
       <use xlink:href="#mf15db92f95" x="57.6" y="44.054239" style="stroke: #000000; stroke-width: 0.8"/>
      </g>
     </g>
     <g id="text_18">
      <!-- 6 -->
      <g transform="translate(44.2375 47.853458) scale(0.1 -0.1)">
       <use xlink:href="#DejaVuSans-36"/>
      </g>
     </g>
    </g>
   </g>
   <g id="line2d_18">
    <path d="M 73.832727 162.233078 
L 73.833064 162.233078 
L 73.836429 162.233078 
L 73.870084 162.233082 
L 74.024419 162.23317 
L 74.416344 162.233912 
L 75.19009 162.237551 
L 76.49416 162.250222 
L 78.473114 162.285114 
L 81.263814 162.366363 
L 84.993921 162.53333 
L 89.780765 162.844786 
L 95.729586 163.382248 
L 102.930573 164.251185 
L 111.454466 165.578307 
L 121.346995 167.502763 
L 132.622948 170.159448 
L 145.261198 173.654245 
L 159.201986 178.034073 
L 174.346865 183.258026 
L 190.560576 189.178295 
L 207.674019 195.53961 
L 225.488633 202.003081 
L 243.780768 208.193259 
L 262.292113 213.756242 
L 280.669114 218.410541 
L 298.328869 221.98732 
L 312.364008 224.201342 
L 324.602355 225.7029 
L 335.240368 226.712093 
L 344.488174 227.389688 
L 352.520003 227.845007 
L 359.481001 228.151387 
L 365.495256 228.35784 
L 370.671993 228.497132 
L 375.109374 228.591205 
L 378.896622 228.654783 
L 382.115118 228.69777 
L 384.83893 228.726839 
L 387.135077 228.746498 
L 389.063719 228.759789 
L 390.678368 228.768773 
L 392.026189 228.774844 
L 393.148371 228.778945 
L 394.080586 228.781714 
L 394.853486 228.783584 
L 395.493232 228.784845 
L 396.022013 228.785696 
L 396.458553 228.78627 
L 396.81858 228.786657 
L 397.115253 228.786918 
L 397.35955 228.787094 
L 397.560598 228.787213 
L 397.725975 228.787293 
L 397.861953 228.787346 
L 397.973723 228.787383 
L 398.065568 228.787407 
L 398.141023 228.787424 
L 398.203002 228.787435 
L 398.253903 228.787442 
L 398.295701 228.787447 
L 398.330021 228.787451 
L 398.358198 228.787453 
L 398.38133 228.787454 
L 398.400319 228.787455 
L 398.415907 228.787456 
L 398.428702 228.787457 
L 398.439204 228.787457 
L 398.447824 228.787457 
L 398.454899 228.787457 
L 398.460707 228.787457 
L 398.465473 228.787457 
L 398.469386 228.787457 
L 398.472597 228.787457 
L 398.475234 228.787458 
L 398.477398 228.787458 
L 398.479175 228.787458 
L 398.480634 228.787458 
L 398.481833 228.787458 
L 398.482818 228.787458 
L 398.483628 228.787458 
L 398.484294 228.787458 
L 398.484844 228.787458 
L 398.485297 228.787458 
L 398.485672 228.787458 
L 398.485983 228.787458 
L 398.486241 228.787458 
L 398.486456 228.787458 
L 398.486635 228.787458 
L 398.486783 228.787458 
L 398.486906 228.787458 
L 398.487006 228.787458 
L 398.487086 228.787458 
L 398.487148 228.787458 
L 398.487194 228.787458 
L 398.487227 228.787458 
L 398.487243 228.787458 
L 398.487259 228.787458 
L 398.487273 228.787458 
" clip-path="url(#pbc4358464a)" style="fill: none; stroke: #1f77b4; stroke-linecap: square"/>
   </g>
   <g id="line2d_19">
    <path d="M 73.832727 228.787458 
L 73.833064 228.787458 
L 73.836429 228.787458 
L 73.870084 228.787458 
L 74.024419 228.787458 
L 74.416344 228.787457 
L 75.19009 228.787446 
L 76.49416 228.787371 
L 78.473114 228.786998 
L 81.263814 228.785573 
L 84.993921 228.781081 
L 89.780765 228.768887 
L 95.729586 228.73952 
L 102.930573 228.675432 
L 111.454466 228.546849 
L 121.346995 228.307242 
L 132.622948 227.889718 
L 145.261198 227.206334 
L 159.201986 226.152714 
L 174.346865 224.619933 
L 190.560576 222.514059 
L 207.674019 219.781154 
L 225.488633 216.432291 
L 243.780768 212.560999 
L 262.292113 208.348512 
L 280.669114 204.060498 
L 298.328869 200.034201 
L 312.364008 197.028305 
L 324.602355 194.625807 
L 335.240368 192.748783 
L 344.488174 191.303794 
L 352.520003 190.205386 
L 359.481001 189.38011 
L 365.495256 188.766867 
L 370.671993 188.315947 
L 375.109374 187.987666 
L 378.896622 187.750886 
L 382.115118 187.581573 
L 384.83893 187.461457 
L 387.135077 187.376854 
L 389.063719 187.317645 
L 390.678368 187.276443 
L 392.026189 187.247915 
L 393.148371 187.228247 
L 394.080586 187.214739 
L 394.853486 187.205491 
L 395.493232 187.199176 
L 396.022013 187.194875 
L 396.458553 187.19195 
L 396.81858 187.189965 
L 397.115253 187.188619 
L 397.35955 187.187708 
L 397.560598 187.187091 
L 397.725975 187.186674 
L 397.861953 187.186393 
L 397.973723 187.186203 
L 398.065568 187.186075 
L 398.141023 187.185988 
L 398.203002 187.18593 
L 398.253903 187.18589 
L 398.295701 187.185864 
L 398.330021 187.185846 
L 398.358198 187.185834 
L 398.38133 187.185826 
L 398.400319 187.18582 
L 398.415907 187.185817 
L 398.428702 187.185814 
L 398.439204 187.185812 
L 398.447824 187.185811 
L 398.454899 187.18581 
L 398.460707 187.18581 
L 398.465473 187.18581 
L 398.469386 187.185809 
L 398.472597 187.185809 
L 398.475234 187.185809 
L 398.477398 187.185809 
L 398.479175 187.185809 
L 398.480634 187.185809 
L 398.481833 187.185809 
L 398.482818 187.185809 
L 398.483628 187.185809 
L 398.484294 187.185809 
L 398.484844 187.185809 
L 398.485297 187.185809 
L 398.485672 187.185809 
L 398.485983 187.185809 
L 398.486241 187.185809 
L 398.486456 187.185809 
L 398.486635 187.185809 
L 398.486783 187.185809 
L 398.486906 187.185809 
L 398.487006 187.185809 
L 398.487086 187.185809 
L 398.487148 187.185809 
L 398.487194 187.185809 
L 398.487227 187.185809 
L 398.487243 187.185809 
L 398.487259 187.185809 
L 398.487273 187.185809 
" clip-path="url(#pbc4358464a)" style="fill: none; stroke: #ff7f0e; stroke-linecap: square"/>
   </g>
   <g id="line2d_20">
    <path d="M 73.832727 295.488 
L 73.833064 295.488 
L 73.836429 295.488 
L 73.870084 295.487999 
L 74.024419 295.487975 
L 74.416344 295.487771 
L 75.19009 295.48677 
L 76.49416 295.483287 
L 78.473114 295.473694 
L 81.263814 295.451341 
L 84.993921 295.405352 
L 89.780765 295.319363 
L 95.729586 295.170355 
L 102.930573 294.927762 
L 111.454466 294.55314 
L 121.346995 294.000769 
L 132.622948 293.219557 
L 145.261198 292.156486 
L 159.201986 290.761569 
L 174.346865 288.99399 
L 190.560576 286.828945 
L 207.674019 284.264526 
L 225.488633 281.327786 
L 243.780768 278.079095 
L 262.292113 274.616038 
L 280.669114 271.082215 
L 298.328869 267.680704 
L 312.364008 265.032155 
L 324.602355 262.799718 
L 335.240368 260.939689 
L 344.488174 259.396325 
L 352.520003 258.118385 
L 359.481001 257.061407 
L 365.495256 256.187765 
L 370.671993 255.465972 
L 375.109374 254.869839 
L 378.896622 254.377651 
L 382.115118 253.97143 
L 384.83893 253.636294 
L 387.135077 253.359924 
L 389.063719 253.132122 
L 390.678368 252.944439 
L 392.026189 252.789882 
L 393.148371 252.66266 
L 394.080586 252.55798 
L 394.853486 252.471881 
L 395.493232 252.401087 
L 396.022013 252.342895 
L 396.458553 252.295074 
L 396.81858 252.255784 
L 397.115253 252.223508 
L 397.35955 252.197 
L 397.560598 252.175231 
L 397.725975 252.157356 
L 397.861953 252.142679 
L 397.973723 252.13063 
L 398.065568 252.120738 
L 398.141023 252.112619 
L 398.203002 252.105953 
L 398.253903 252.100482 
L 398.295701 252.095992 
L 398.330021 252.092306 
L 398.358198 252.089281 
L 398.38133 252.086798 
L 398.400319 252.08476 
L 398.415907 252.083088 
L 398.428702 252.081715 
L 398.439204 252.080588 
L 398.447824 252.079664 
L 398.454899 252.078905 
L 398.460707 252.078282 
L 398.465473 252.077771 
L 398.469386 252.077351 
L 398.472597 252.077007 
L 398.475234 252.076724 
L 398.477398 252.076492 
L 398.479175 252.076302 
L 398.480634 252.076145 
L 398.481833 252.076017 
L 398.482818 252.075911 
L 398.483628 252.075824 
L 398.484294 252.075753 
L 398.484844 252.075694 
L 398.485297 252.075645 
L 398.485672 252.075605 
L 398.485983 252.075572 
L 398.486241 252.075544 
L 398.486456 252.075521 
L 398.486635 252.075502 
L 398.486783 252.075486 
L 398.486906 252.075473 
L 398.487006 252.075462 
L 398.487086 252.075454 
L 398.487148 252.075447 
L 398.487194 252.075442 
L 398.487227 252.075438 
L 398.487243 252.075437 
L 398.487259 252.075435 
L 398.487273 252.075434 
" clip-path="url(#pbc4358464a)" style="fill: none; stroke: #2ca02c; stroke-linecap: square"/>
   </g>
   <g id="line2d_21">
    <path d="M 73.832727 53.568 
L 73.833064 53.568 
L 73.836429 53.568 
L 73.870084 53.568005 
L 74.024419 53.568122 
L 74.416344 53.569098 
L 75.19009 53.573889 
L 76.49416 53.59057 
L 78.473114 53.636512 
L 81.263814 53.74354 
L 84.993921 53.963687 
L 89.780765 54.375089 
L 95.729586 55.087313 
L 102.930573 56.245011 
L 111.454466 58.028306 
L 121.346995 60.647853 
L 132.622948 64.332645 
L 145.261198 69.309501 
L 159.201986 75.775097 
L 174.346865 83.86352 
L 190.560576 93.613869 
L 207.674019 104.943228 
L 225.488633 117.630979 
L 243.780768 131.318469 
L 262.292113 145.51698 
L 280.669114 159.599873 
L 298.328869 172.779097 
L 312.364008 182.791834 
L 324.602355 191.065831 
L 335.240368 197.845966 
L 344.488174 203.394583 
L 352.520003 207.936627 
L 359.481001 211.657879 
L 365.495256 214.709653 
L 370.671993 217.214712 
L 375.109374 219.272613 
L 378.896622 220.964195 
L 382.115118 222.355239 
L 384.83893 223.499414 
L 387.135077 224.440616 
L 389.063719 225.214833 
L 390.678368 225.85162 
L 392.026189 226.375289 
L 393.148371 226.80585 
L 394.080586 227.159785 
L 394.853486 227.450673 
L 395.493232 227.689698 
L 396.022013 227.886072 
L 396.458553 228.04738 
L 396.81858 228.179864 
L 397.115253 228.288663 
L 397.35955 228.378001 
L 397.560598 228.451352 
L 397.725975 228.511573 
L 397.861953 228.561011 
L 397.973723 228.601595 
L 398.065568 228.634908 
L 398.141023 228.662252 
L 398.203002 228.684697 
L 398.253903 228.703119 
L 398.295701 228.718239 
L 398.330021 228.730649 
L 398.358198 228.740834 
L 398.38133 228.749194 
L 398.400319 228.756055 
L 398.415907 228.761685 
L 398.428702 228.766307 
L 398.439204 228.770099 
L 398.447824 228.773212 
L 398.454899 228.775767 
L 398.460707 228.777864 
L 398.465473 228.779584 
L 398.469386 228.780997 
L 398.472597 228.782156 
L 398.475234 228.783108 
L 398.477398 228.783889 
L 398.479175 228.78453 
L 398.480634 228.785057 
L 398.481833 228.78549 
L 398.482818 228.785845 
L 398.483628 228.786138 
L 398.484294 228.786379 
L 398.484844 228.786577 
L 398.485297 228.78674 
L 398.485672 228.786876 
L 398.485983 228.786988 
L 398.486241 228.787081 
L 398.486456 228.787159 
L 398.486635 228.787223 
L 398.486783 228.787277 
L 398.486906 228.787321 
L 398.487006 228.787357 
L 398.487086 228.787386 
L 398.487148 228.787408 
L 398.487194 228.787425 
L 398.487227 228.787437 
L 398.487243 228.787443 
L 398.487259 228.787449 
L 398.487273 228.787453 
" clip-path="url(#pbc4358464a)" style="fill: none; stroke: #d62728; stroke-linecap: square"/>
   </g>
   <g id="patch_3">
    <path d="M 57.6 307.584 
L 57.6 41.472 
" style="fill: none; stroke: #000000; stroke-width: 0.8; stroke-linejoin: miter; stroke-linecap: square"/>
   </g>
   <g id="patch_4">
    <path d="M 414.72 307.584 
L 414.72 41.472 
" style="fill: none; stroke: #000000; stroke-width: 0.8; stroke-linejoin: miter; stroke-linecap: square"/>
   </g>
   <g id="patch_5">
    <path d="M 57.6 307.584 
L 414.72 307.584 
" style="fill: none; stroke: #000000; stroke-width: 0.8; stroke-linejoin: miter; stroke-linecap: square"/>
   </g>
   <g id="patch_6">
    <path d="M 57.6 41.472 
L 414.72 41.472 
" style="fill: none; stroke: #000000; stroke-width: 0.8; stroke-linejoin: miter; stroke-linecap: square"/>
   </g>
   <g id="text_19">
    <!-- TOV solution for the Polytropic EOS star -->
    <g transform="translate(117.111563 22.1664) scale(0.12 -0.12)">
     <defs>
      <path id="DejaVuSans-54" d="M -19 4666 
L 3928 4666 
L 3928 4134 
L 2272 4134 
L 2272 0 
L 1638 0 
L 1638 4134 
L -19 4134 
L -19 4666 
z
" transform="scale(0.015625)"/>
      <path id="DejaVuSans-4f" d="M 2522 4238 
Q 1834 4238 1429 3725 
Q 1025 3213 1025 2328 
Q 1025 1447 1429 934 
Q 1834 422 2522 422 
Q 3209 422 3611 934 
Q 4013 1447 4013 2328 
Q 4013 3213 3611 3725 
Q 3209 4238 2522 4238 
z
M 2522 4750 
Q 3503 4750 4090 4092 
Q 4678 3434 4678 2328 
Q 4678 1225 4090 567 
Q 3503 -91 2522 -91 
Q 1538 -91 948 565 
Q 359 1222 359 2328 
Q 359 3434 948 4092 
Q 1538 4750 2522 4750 
z
" transform="scale(0.015625)"/>
      <path id="DejaVuSans-56" d="M 1831 0 
L 50 4666 
L 709 4666 
L 2188 738 
L 3669 4666 
L 4325 4666 
L 2547 0 
L 1831 0 
z
" transform="scale(0.015625)"/>
      <path id="DejaVuSans-20" transform="scale(0.015625)"/>
      <path id="DejaVuSans-73" d="M 2834 3397 
L 2834 2853 
Q 2591 2978 2328 3040 
Q 2066 3103 1784 3103 
Q 1356 3103 1142 2972 
Q 928 2841 928 2578 
Q 928 2378 1081 2264 
Q 1234 2150 1697 2047 
L 1894 2003 
Q 2506 1872 2764 1633 
Q 3022 1394 3022 966 
Q 3022 478 2636 193 
Q 2250 -91 1575 -91 
Q 1294 -91 989 -36 
Q 684 19 347 128 
L 347 722 
Q 666 556 975 473 
Q 1284 391 1588 391 
Q 1994 391 2212 530 
Q 2431 669 2431 922 
Q 2431 1156 2273 1281 
Q 2116 1406 1581 1522 
L 1381 1569 
Q 847 1681 609 1914 
Q 372 2147 372 2553 
Q 372 3047 722 3315 
Q 1072 3584 1716 3584 
Q 2034 3584 2315 3537 
Q 2597 3491 2834 3397 
z
" transform="scale(0.015625)"/>
      <path id="DejaVuSans-6f" d="M 1959 3097 
Q 1497 3097 1228 2736 
Q 959 2375 959 1747 
Q 959 1119 1226 758 
Q 1494 397 1959 397 
Q 2419 397 2687 759 
Q 2956 1122 2956 1747 
Q 2956 2369 2687 2733 
Q 2419 3097 1959 3097 
z
M 1959 3584 
Q 2709 3584 3137 3096 
Q 3566 2609 3566 1747 
Q 3566 888 3137 398 
Q 2709 -91 1959 -91 
Q 1206 -91 779 398 
Q 353 888 353 1747 
Q 353 2609 779 3096 
Q 1206 3584 1959 3584 
z
" transform="scale(0.015625)"/>
      <path id="DejaVuSans-6c" d="M 603 4863 
L 1178 4863 
L 1178 0 
L 603 0 
L 603 4863 
z
" transform="scale(0.015625)"/>
      <path id="DejaVuSans-75" d="M 544 1381 
L 544 3500 
L 1119 3500 
L 1119 1403 
Q 1119 906 1312 657 
Q 1506 409 1894 409 
Q 2359 409 2629 706 
Q 2900 1003 2900 1516 
L 2900 3500 
L 3475 3500 
L 3475 0 
L 2900 0 
L 2900 538 
Q 2691 219 2414 64 
Q 2138 -91 1772 -91 
Q 1169 -91 856 284 
Q 544 659 544 1381 
z
M 1991 3584 
L 1991 3584 
z
" transform="scale(0.015625)"/>
      <path id="DejaVuSans-74" d="M 1172 4494 
L 1172 3500 
L 2356 3500 
L 2356 3053 
L 1172 3053 
L 1172 1153 
Q 1172 725 1289 603 
Q 1406 481 1766 481 
L 2356 481 
L 2356 0 
L 1766 0 
Q 1100 0 847 248 
Q 594 497 594 1153 
L 594 3053 
L 172 3053 
L 172 3500 
L 594 3500 
L 594 4494 
L 1172 4494 
z
" transform="scale(0.015625)"/>
      <path id="DejaVuSans-69" d="M 603 3500 
L 1178 3500 
L 1178 0 
L 603 0 
L 603 3500 
z
M 603 4863 
L 1178 4863 
L 1178 4134 
L 603 4134 
L 603 4863 
z
" transform="scale(0.015625)"/>
      <path id="DejaVuSans-6e" d="M 3513 2113 
L 3513 0 
L 2938 0 
L 2938 2094 
Q 2938 2591 2744 2837 
Q 2550 3084 2163 3084 
Q 1697 3084 1428 2787 
Q 1159 2491 1159 1978 
L 1159 0 
L 581 0 
L 581 3500 
L 1159 3500 
L 1159 2956 
Q 1366 3272 1645 3428 
Q 1925 3584 2291 3584 
Q 2894 3584 3203 3211 
Q 3513 2838 3513 2113 
z
" transform="scale(0.015625)"/>
      <path id="DejaVuSans-66" d="M 2375 4863 
L 2375 4384 
L 1825 4384 
Q 1516 4384 1395 4259 
Q 1275 4134 1275 3809 
L 1275 3500 
L 2222 3500 
L 2222 3053 
L 1275 3053 
L 1275 0 
L 697 0 
L 697 3053 
L 147 3053 
L 147 3500 
L 697 3500 
L 697 3744 
Q 697 4328 969 4595 
Q 1241 4863 1831 4863 
L 2375 4863 
z
" transform="scale(0.015625)"/>
      <path id="DejaVuSans-72" d="M 2631 2963 
Q 2534 3019 2420 3045 
Q 2306 3072 2169 3072 
Q 1681 3072 1420 2755 
Q 1159 2438 1159 1844 
L 1159 0 
L 581 0 
L 581 3500 
L 1159 3500 
L 1159 2956 
Q 1341 3275 1631 3429 
Q 1922 3584 2338 3584 
Q 2397 3584 2469 3576 
Q 2541 3569 2628 3553 
L 2631 2963 
z
" transform="scale(0.015625)"/>
      <path id="DejaVuSans-68" d="M 3513 2113 
L 3513 0 
L 2938 0 
L 2938 2094 
Q 2938 2591 2744 2837 
Q 2550 3084 2163 3084 
Q 1697 3084 1428 2787 
Q 1159 2491 1159 1978 
L 1159 0 
L 581 0 
L 581 4863 
L 1159 4863 
L 1159 2956 
Q 1366 3272 1645 3428 
Q 1925 3584 2291 3584 
Q 2894 3584 3203 3211 
Q 3513 2838 3513 2113 
z
" transform="scale(0.015625)"/>
      <path id="DejaVuSans-65" d="M 3597 1894 
L 3597 1613 
L 953 1613 
Q 991 1019 1311 708 
Q 1631 397 2203 397 
Q 2534 397 2845 478 
Q 3156 559 3463 722 
L 3463 178 
Q 3153 47 2828 -22 
Q 2503 -91 2169 -91 
Q 1331 -91 842 396 
Q 353 884 353 1716 
Q 353 2575 817 3079 
Q 1281 3584 2069 3584 
Q 2775 3584 3186 3129 
Q 3597 2675 3597 1894 
z
M 3022 2063 
Q 3016 2534 2758 2815 
Q 2500 3097 2075 3097 
Q 1594 3097 1305 2825 
Q 1016 2553 972 2059 
L 3022 2063 
z
" transform="scale(0.015625)"/>
      <path id="DejaVuSans-50" d="M 1259 4147 
L 1259 2394 
L 2053 2394 
Q 2494 2394 2734 2622 
Q 2975 2850 2975 3272 
Q 2975 3691 2734 3919 
Q 2494 4147 2053 4147 
L 1259 4147 
z
M 628 4666 
L 2053 4666 
Q 2838 4666 3239 4311 
Q 3641 3956 3641 3272 
Q 3641 2581 3239 2228 
Q 2838 1875 2053 1875 
L 1259 1875 
L 1259 0 
L 628 0 
L 628 4666 
z
" transform="scale(0.015625)"/>
      <path id="DejaVuSans-79" d="M 2059 -325 
Q 1816 -950 1584 -1140 
Q 1353 -1331 966 -1331 
L 506 -1331 
L 506 -850 
L 844 -850 
Q 1081 -850 1212 -737 
Q 1344 -625 1503 -206 
L 1606 56 
L 191 3500 
L 800 3500 
L 1894 763 
L 2988 3500 
L 3597 3500 
L 2059 -325 
z
" transform="scale(0.015625)"/>
      <path id="DejaVuSans-70" d="M 1159 525 
L 1159 -1331 
L 581 -1331 
L 581 3500 
L 1159 3500 
L 1159 2969 
Q 1341 3281 1617 3432 
Q 1894 3584 2278 3584 
Q 2916 3584 3314 3078 
Q 3713 2572 3713 1747 
Q 3713 922 3314 415 
Q 2916 -91 2278 -91 
Q 1894 -91 1617 61 
Q 1341 213 1159 525 
z
M 3116 1747 
Q 3116 2381 2855 2742 
Q 2594 3103 2138 3103 
Q 1681 3103 1420 2742 
Q 1159 2381 1159 1747 
Q 1159 1113 1420 752 
Q 1681 391 2138 391 
Q 2594 391 2855 752 
Q 3116 1113 3116 1747 
z
" transform="scale(0.015625)"/>
      <path id="DejaVuSans-63" d="M 3122 3366 
L 3122 2828 
Q 2878 2963 2633 3030 
Q 2388 3097 2138 3097 
Q 1578 3097 1268 2742 
Q 959 2388 959 1747 
Q 959 1106 1268 751 
Q 1578 397 2138 397 
Q 2388 397 2633 464 
Q 2878 531 3122 666 
L 3122 134 
Q 2881 22 2623 -34 
Q 2366 -91 2075 -91 
Q 1284 -91 818 406 
Q 353 903 353 1747 
Q 353 2603 823 3093 
Q 1294 3584 2113 3584 
Q 2378 3584 2631 3529 
Q 2884 3475 3122 3366 
z
" transform="scale(0.015625)"/>
      <path id="DejaVuSans-45" d="M 628 4666 
L 3578 4666 
L 3578 4134 
L 1259 4134 
L 1259 2753 
L 3481 2753 
L 3481 2222 
L 1259 2222 
L 1259 531 
L 3634 531 
L 3634 0 
L 628 0 
L 628 4666 
z
" transform="scale(0.015625)"/>
      <path id="DejaVuSans-53" d="M 3425 4513 
L 3425 3897 
Q 3066 4069 2747 4153 
Q 2428 4238 2131 4238 
Q 1616 4238 1336 4038 
Q 1056 3838 1056 3469 
Q 1056 3159 1242 3001 
Q 1428 2844 1947 2747 
L 2328 2669 
Q 3034 2534 3370 2195 
Q 3706 1856 3706 1288 
Q 3706 609 3251 259 
Q 2797 -91 1919 -91 
Q 1588 -91 1214 -16 
Q 841 59 441 206 
L 441 856 
Q 825 641 1194 531 
Q 1563 422 1919 422 
Q 2459 422 2753 634 
Q 3047 847 3047 1241 
Q 3047 1584 2836 1778 
Q 2625 1972 2144 2069 
L 1759 2144 
Q 1053 2284 737 2584 
Q 422 2884 422 3419 
Q 422 4038 858 4394 
Q 1294 4750 2059 4750 
Q 2388 4750 2728 4690 
Q 3069 4631 3425 4513 
z
" transform="scale(0.015625)"/>
      <path id="DejaVuSans-61" d="M 2194 1759 
Q 1497 1759 1228 1600 
Q 959 1441 959 1056 
Q 959 750 1161 570 
Q 1363 391 1709 391 
Q 2188 391 2477 730 
Q 2766 1069 2766 1631 
L 2766 1759 
L 2194 1759 
z
M 3341 1997 
L 3341 0 
L 2766 0 
L 2766 531 
Q 2569 213 2275 61 
Q 1981 -91 1556 -91 
Q 1019 -91 701 211 
Q 384 513 384 1019 
Q 384 1609 779 1909 
Q 1175 2209 1959 2209 
L 2766 2209 
L 2766 2266 
Q 2766 2663 2505 2880 
Q 2244 3097 1772 3097 
Q 1472 3097 1187 3025 
Q 903 2953 641 2809 
L 641 3341 
Q 956 3463 1253 3523 
Q 1550 3584 1831 3584 
Q 2591 3584 2966 3190 
Q 3341 2797 3341 1997 
z
" transform="scale(0.015625)"/>
     </defs>
     <use xlink:href="#DejaVuSans-54"/>
     <use xlink:href="#DejaVuSans-4f" x="61.083984"/>
     <use xlink:href="#DejaVuSans-56" x="138.044922"/>
     <use xlink:href="#DejaVuSans-20" x="206.453125"/>
     <use xlink:href="#DejaVuSans-73" x="238.240234"/>
     <use xlink:href="#DejaVuSans-6f" x="290.339844"/>
     <use xlink:href="#DejaVuSans-6c" x="351.521484"/>
     <use xlink:href="#DejaVuSans-75" x="379.304688"/>
     <use xlink:href="#DejaVuSans-74" x="442.683594"/>
     <use xlink:href="#DejaVuSans-69" x="481.892578"/>
     <use xlink:href="#DejaVuSans-6f" x="509.675781"/>
     <use xlink:href="#DejaVuSans-6e" x="570.857422"/>
     <use xlink:href="#DejaVuSans-20" x="634.236328"/>
     <use xlink:href="#DejaVuSans-66" x="666.023438"/>
     <use xlink:href="#DejaVuSans-6f" x="701.228516"/>
     <use xlink:href="#DejaVuSans-72" x="762.410156"/>
     <use xlink:href="#DejaVuSans-20" x="803.523438"/>
     <use xlink:href="#DejaVuSans-74" x="835.310547"/>
     <use xlink:href="#DejaVuSans-68" x="874.519531"/>
     <use xlink:href="#DejaVuSans-65" x="937.898438"/>
     <use xlink:href="#DejaVuSans-20" x="999.421875"/>
     <use xlink:href="#DejaVuSans-50" x="1031.208984"/>
     <use xlink:href="#DejaVuSans-6f" x="1087.886719"/>
     <use xlink:href="#DejaVuSans-6c" x="1149.068359"/>
     <use xlink:href="#DejaVuSans-79" x="1176.851562"/>
     <use xlink:href="#DejaVuSans-74" x="1236.03125"/>
     <use xlink:href="#DejaVuSans-72" x="1275.240234"/>
     <use xlink:href="#DejaVuSans-6f" x="1314.103516"/>
     <use xlink:href="#DejaVuSans-70" x="1375.285156"/>
     <use xlink:href="#DejaVuSans-69" x="1438.761719"/>
     <use xlink:href="#DejaVuSans-63" x="1466.544922"/>
     <use xlink:href="#DejaVuSans-20" x="1521.525391"/>
     <use xlink:href="#DejaVuSans-45" x="1553.3125"/>
     <use xlink:href="#DejaVuSans-4f" x="1616.496094"/>
     <use xlink:href="#DejaVuSans-53" x="1695.207031"/>
     <use xlink:href="#DejaVuSans-20" x="1758.683594"/>
     <use xlink:href="#DejaVuSans-73" x="1790.470703"/>
     <use xlink:href="#DejaVuSans-74" x="1842.570312"/>
     <use xlink:href="#DejaVuSans-61" x="1881.779297"/>
     <use xlink:href="#DejaVuSans-72" x="1943.058594"/>
    </g>
   </g>
   <g id="legend_1">
    <g id="patch_7">
     <path d="M 281.02 111.22825 
L 407.72 111.22825 
Q 409.72 111.22825 409.72 109.22825 
L 409.72 48.472 
Q 409.72 46.472 407.72 46.472 
L 281.02 46.472 
Q 279.02 46.472 279.02 48.472 
L 279.02 109.22825 
Q 279.02 111.22825 281.02 111.22825 
z
" style="fill: #ffffff; opacity: 0.8; stroke: #cccccc; stroke-linejoin: miter"/>
    </g>
    <g id="line2d_22">
     <path d="M 283.02 56.072 
L 293.02 56.072 
L 303.02 56.072 
" style="fill: none; stroke: #1f77b4; stroke-linecap: square"/>
    </g>
    <g id="text_20">
     <!-- $p ~ [10^{36} ~ dyn \cdot cm^{-2}]$ -->
     <g transform="translate(311.02 59.572) scale(0.1 -0.1)">
      <defs>
       <path id="DejaVuSans-Oblique-70" d="M 3175 2156 
Q 3175 2616 2975 2859 
Q 2775 3103 2400 3103 
Q 2144 3103 1911 2972 
Q 1678 2841 1497 2591 
Q 1319 2344 1212 1994 
Q 1106 1644 1106 1300 
Q 1106 863 1306 627 
Q 1506 391 1875 391 
Q 2147 391 2380 519 
Q 2613 647 2778 891 
Q 2956 1147 3065 1494 
Q 3175 1841 3175 2156 
z
M 1394 2969 
Q 1625 3272 1939 3428 
Q 2253 3584 2638 3584 
Q 3175 3584 3472 3232 
Q 3769 2881 3769 2247 
Q 3769 1728 3584 1258 
Q 3400 788 3053 416 
Q 2822 169 2531 39 
Q 2241 -91 1919 -91 
Q 1547 -91 1294 64 
Q 1041 219 916 525 
L 556 -1331 
L -19 -1331 
L 922 3500 
L 1497 3500 
L 1394 2969 
z
" transform="scale(0.015625)"/>
       <path id="DejaVuSans-Oblique-64" d="M 2675 525 
Q 2444 222 2128 65 
Q 1813 -91 1428 -91 
Q 903 -91 598 267 
Q 294 625 294 1247 
Q 294 1766 478 2236 
Q 663 2706 1013 3078 
Q 1244 3325 1534 3454 
Q 1825 3584 2144 3584 
Q 2481 3584 2739 3421 
Q 2997 3259 3138 2956 
L 3513 4863 
L 4091 4863 
L 3144 0 
L 2566 0 
L 2675 525 
z
M 891 1350 
Q 891 897 1095 644 
Q 1300 391 1663 391 
Q 1931 391 2161 520 
Q 2391 650 2566 903 
Q 2750 1166 2856 1509 
Q 2963 1853 2963 2188 
Q 2963 2622 2758 2865 
Q 2553 3109 2194 3109 
Q 1922 3109 1687 2981 
Q 1453 2853 1288 2613 
Q 1106 2353 998 2009 
Q 891 1666 891 1350 
z
" transform="scale(0.015625)"/>
       <path id="DejaVuSans-Oblique-79" d="M 1588 -325 
Q 1188 -997 936 -1164 
Q 684 -1331 294 -1331 
L -159 -1331 
L -63 -850 
L 269 -850 
Q 509 -850 678 -719 
Q 847 -588 1056 -206 
L 1234 128 
L 459 3500 
L 1069 3500 
L 1650 819 
L 3256 3500 
L 3859 3500 
L 1588 -325 
z
" transform="scale(0.015625)"/>
       <path id="DejaVuSans-Oblique-6e" d="M 3566 2113 
L 3156 0 
L 2578 0 
L 2988 2091 
Q 3016 2238 3031 2350 
Q 3047 2463 3047 2528 
Q 3047 2791 2881 2937 
Q 2716 3084 2419 3084 
Q 1956 3084 1622 2776 
Q 1288 2469 1184 1941 
L 800 0 
L 225 0 
L 903 3500 
L 1478 3500 
L 1363 2950 
Q 1603 3253 1940 3418 
Q 2278 3584 2650 3584 
Q 3113 3584 3367 3334 
Q 3622 3084 3622 2631 
Q 3622 2519 3608 2391 
Q 3594 2263 3566 2113 
z
" transform="scale(0.015625)"/>
       <path id="DejaVuSans-22c5" d="M 684 2619 
L 1344 2619 
L 1344 1825 
L 684 1825 
L 684 2619 
z
" transform="scale(0.015625)"/>
       <path id="DejaVuSans-Oblique-63" d="M 3431 3366 
L 3316 2797 
Q 3109 2947 2876 3022 
Q 2644 3097 2394 3097 
Q 2119 3097 1870 3000 
Q 1622 2903 1453 2725 
Q 1184 2453 1037 2087 
Q 891 1722 891 1331 
Q 891 859 1127 628 
Q 1363 397 1844 397 
Q 2081 397 2348 469 
Q 2616 541 2906 684 
L 2797 116 
Q 2547 13 2283 -39 
Q 2019 -91 1741 -91 
Q 1044 -91 669 257 
Q 294 606 294 1253 
Q 294 1797 489 2255 
Q 684 2713 1069 3078 
Q 1331 3328 1684 3456 
Q 2038 3584 2456 3584 
Q 2700 3584 2940 3529 
Q 3181 3475 3431 3366 
z
" transform="scale(0.015625)"/>
      </defs>
      <use xlink:href="#DejaVuSans-Oblique-70" transform="translate(0 0.765625)"/>
      <use xlink:href="#DejaVuSans-5b" transform="translate(95.946941 0.765625)"/>
      <use xlink:href="#DejaVuSans-31" transform="translate(134.960613 0.765625)"/>
      <use xlink:href="#DejaVuSans-30" transform="translate(198.58366 0.765625)"/>
      <use xlink:href="#DejaVuSans-33" transform="translate(263.163738 39.046875) scale(0.7)"/>
      <use xlink:href="#DejaVuSans-36" transform="translate(307.699871 39.046875) scale(0.7)"/>
      <use xlink:href="#DejaVuSans-Oblique-64" transform="translate(387.440757 0.765625)"/>
      <use xlink:href="#DejaVuSans-Oblique-79" transform="translate(450.917319 0.765625)"/>
      <use xlink:href="#DejaVuSans-Oblique-6e" transform="translate(510.097007 0.765625)"/>
      <use xlink:href="#DejaVuSans-22c5" transform="translate(592.958335 0.765625)"/>
      <use xlink:href="#DejaVuSans-Oblique-63" transform="translate(644.227866 0.765625)"/>
      <use xlink:href="#DejaVuSans-Oblique-6d" transform="translate(699.208335 0.765625)"/>
      <use xlink:href="#DejaVuSans-2212" transform="translate(801.27034 39.046875) scale(0.7)"/>
      <use xlink:href="#DejaVuSans-32" transform="translate(859.922684 39.046875) scale(0.7)"/>
      <use xlink:href="#DejaVuSans-5d" transform="translate(907.193192 0.765625)"/>
     </g>
    </g>
    <g id="line2d_23">
     <path d="M 283.02 70.770438 
L 293.02 70.770438 
L 303.02 70.770438 
" style="fill: none; stroke: #ff7f0e; stroke-linecap: square"/>
    </g>
    <g id="text_21">
     <!-- $m ~ [M_{\odot}]$ -->
     <g transform="translate(311.02 74.270438) scale(0.1 -0.1)">
      <defs>
       <path id="DejaVuSans-Oblique-4d" d="M 1081 4666 
L 2028 4666 
L 2572 1522 
L 4378 4666 
L 5350 4666 
L 4441 0 
L 3828 0 
L 4622 4091 
L 2791 897 
L 2175 897 
L 1581 4103 
L 788 0 
L 172 0 
L 1081 4666 
z
" transform="scale(0.015625)"/>
       <path id="DejaVuSans-2299" d="M 2350 2403 
L 3013 2403 
L 3013 1609 
L 2350 1609 
L 2350 2403 
z
M 3306 3522 
Q 3016 3644 2681 3644 
Q 2347 3644 2056 3522 
Q 1769 3400 1531 3163 
Q 1291 2922 1172 2634 
Q 1053 2347 1053 2006 
Q 1053 1675 1172 1387 
Q 1291 1100 1531 859 
Q 1769 622 2056 500 
Q 2347 378 2681 378 
Q 3016 378 3306 500 
Q 3594 622 3831 859 
Q 4072 1100 4190 1387 
Q 4309 1675 4309 2006 
Q 4309 2347 4190 2634 
Q 4072 2922 3831 3163 
Q 3594 3400 3306 3522 
z
M 1878 3956 
Q 2250 4113 2681 4113 
Q 3113 4113 3484 3956 
Q 3856 3800 4163 3494 
Q 4472 3184 4625 2813 
Q 4778 2444 4778 2006 
Q 4778 1578 4625 1206 
Q 4472 838 4163 528 
Q 3856 222 3484 65 
Q 3113 -91 2681 -91 
Q 2250 -91 1878 65 
Q 1506 222 1200 528 
Q 891 838 738 1206 
Q 584 1578 584 2006 
Q 584 2444 738 2813 
Q 891 3184 1200 3494 
Q 1506 3800 1878 3956 
z
" transform="scale(0.015625)"/>
      </defs>
      <use xlink:href="#DejaVuSans-Oblique-6d" transform="translate(0 0.015625)"/>
      <use xlink:href="#DejaVuSans-5b" transform="translate(129.882488 0.015625)"/>
      <use xlink:href="#DejaVuSans-Oblique-4d" transform="translate(168.89616 0.015625)"/>
      <use xlink:href="#DejaVuSans-2299" transform="translate(255.175457 -16.390625) scale(0.7)"/>
      <use xlink:href="#DejaVuSans-5d" transform="translate(316.562175 0.015625)"/>
     </g>
    </g>
    <g id="line2d_24">
     <path d="M 283.02 85.448563 
L 293.02 85.448563 
L 303.02 85.448563 
" style="fill: none; stroke: #2ca02c; stroke-linecap: square"/>
    </g>
    <g id="text_22">
     <!-- $\nu ~ [dimensionless]$ -->
     <g transform="translate(311.02 88.948563) scale(0.1 -0.1)">
      <defs>
       <path id="DejaVuSans-Oblique-3bd" d="M 959 0 
L 572 3500 
L 1191 3500 
L 1522 563 
Q 1972 950 2391 1488 
Q 2706 1891 2788 2241 
Q 2825 2406 2809 2719 
Q 2794 3091 2544 3500 
L 3125 3500 
L 3125 3500 
Q 3288 3222 3353 2834 
Q 3416 2478 3369 2234 
Q 3250 1622 2719 1075 
Q 2025 363 1572 0 
L 959 0 
z
" transform="scale(0.015625)"/>
       <path id="DejaVuSans-Oblique-69" d="M 1172 4863 
L 1747 4863 
L 1606 4134 
L 1031 4134 
L 1172 4863 
z
M 909 3500 
L 1484 3500 
L 800 0 
L 225 0 
L 909 3500 
z
" transform="scale(0.015625)"/>
       <path id="DejaVuSans-Oblique-65" d="M 3078 2063 
Q 3088 2113 3092 2166 
Q 3097 2219 3097 2272 
Q 3097 2653 2873 2875 
Q 2650 3097 2266 3097 
Q 1838 3097 1509 2826 
Q 1181 2556 1013 2059 
L 3078 2063 
z
M 3578 1613 
L 903 1613 
Q 884 1494 878 1425 
Q 872 1356 872 1306 
Q 872 872 1139 634 
Q 1406 397 1894 397 
Q 2269 397 2603 481 
Q 2938 566 3225 728 
L 3116 159 
Q 2806 34 2476 -28 
Q 2147 -91 1806 -91 
Q 1078 -91 686 257 
Q 294 606 294 1247 
Q 294 1794 489 2264 
Q 684 2734 1063 3103 
Q 1306 3334 1642 3459 
Q 1978 3584 2356 3584 
Q 2950 3584 3301 3228 
Q 3653 2872 3653 2272 
Q 3653 2128 3634 1964 
Q 3616 1800 3578 1613 
z
" transform="scale(0.015625)"/>
       <path id="DejaVuSans-Oblique-73" d="M 3200 3397 
L 3091 2853 
Q 2863 2978 2609 3040 
Q 2356 3103 2088 3103 
Q 1634 3103 1373 2948 
Q 1113 2794 1113 2528 
Q 1113 2219 1719 2053 
Q 1766 2041 1788 2034 
L 1972 1978 
Q 2547 1819 2739 1644 
Q 2931 1469 2931 1166 
Q 2931 609 2489 259 
Q 2047 -91 1331 -91 
Q 1053 -91 747 -37 
Q 441 16 72 128 
L 184 722 
Q 500 559 806 475 
Q 1113 391 1394 391 
Q 1816 391 2080 572 
Q 2344 753 2344 1031 
Q 2344 1331 1650 1516 
L 1591 1531 
L 1394 1581 
Q 956 1697 753 1886 
Q 550 2075 550 2369 
Q 550 2928 970 3256 
Q 1391 3584 2113 3584 
Q 2397 3584 2667 3537 
Q 2938 3491 3200 3397 
z
" transform="scale(0.015625)"/>
       <path id="DejaVuSans-Oblique-6f" d="M 1625 -91 
Q 1009 -91 651 289 
Q 294 669 294 1325 
Q 294 1706 417 2101 
Q 541 2497 738 2766 
Q 1047 3184 1428 3384 
Q 1809 3584 2291 3584 
Q 2888 3584 3255 3212 
Q 3622 2841 3622 2241 
Q 3622 1825 3500 1412 
Q 3378 1000 3181 728 
Q 2875 309 2494 109 
Q 2113 -91 1625 -91 
z
M 891 1344 
Q 891 869 1089 633 
Q 1288 397 1691 397 
Q 2269 397 2648 901 
Q 3028 1406 3028 2181 
Q 3028 2634 2825 2865 
Q 2622 3097 2228 3097 
Q 1903 3097 1650 2945 
Q 1397 2794 1197 2484 
Q 1050 2253 970 1956 
Q 891 1659 891 1344 
z
" transform="scale(0.015625)"/>
       <path id="DejaVuSans-Oblique-6c" d="M 1172 4863 
L 1747 4863 
L 800 0 
L 225 0 
L 1172 4863 
z
" transform="scale(0.015625)"/>
      </defs>
      <use xlink:href="#DejaVuSans-Oblique-3bd" transform="translate(0 0.015625)"/>
      <use xlink:href="#DejaVuSans-5b" transform="translate(88.329753 0.015625)"/>
      <use xlink:href="#DejaVuSans-Oblique-64" transform="translate(127.343425 0.015625)"/>
      <use xlink:href="#DejaVuSans-Oblique-69" transform="translate(190.819988 0.015625)"/>
      <use xlink:href="#DejaVuSans-Oblique-6d" transform="translate(218.603191 0.015625)"/>
      <use xlink:href="#DejaVuSans-Oblique-65" transform="translate(316.0153 0.015625)"/>
      <use xlink:href="#DejaVuSans-Oblique-6e" transform="translate(377.538738 0.015625)"/>
      <use xlink:href="#DejaVuSans-Oblique-73" transform="translate(440.917644 0.015625)"/>
      <use xlink:href="#DejaVuSans-Oblique-69" transform="translate(493.017253 0.015625)"/>
      <use xlink:href="#DejaVuSans-Oblique-6f" transform="translate(520.800457 0.015625)"/>
      <use xlink:href="#DejaVuSans-Oblique-6e" transform="translate(581.982097 0.015625)"/>
      <use xlink:href="#DejaVuSans-Oblique-6c" transform="translate(645.361003 0.015625)"/>
      <use xlink:href="#DejaVuSans-Oblique-65" transform="translate(673.144207 0.015625)"/>
      <use xlink:href="#DejaVuSans-Oblique-73" transform="translate(734.667644 0.015625)"/>
      <use xlink:href="#DejaVuSans-Oblique-73" transform="translate(786.767253 0.015625)"/>
      <use xlink:href="#DejaVuSans-5d" transform="translate(838.866863 0.015625)"/>
     </g>
    </g>
    <g id="line2d_25">
     <path d="M 283.02 101.62825 
L 293.02 101.62825 
L 303.02 101.62825 
" style="fill: none; stroke: #d62728; stroke-linecap: square"/>
    </g>
    <g id="text_23">
     <!-- $\rho ~ [10^{15} ~ g \cdot cm^{-3}]$ -->
     <g transform="translate(311.02 105.12825) scale(0.1 -0.1)">
      <defs>
       <path id="DejaVuSans-Oblique-3c1" d="M 1203 2875 
Q 1453 3194 1981 3475 
Q 2188 3584 2756 3584 
Q 3394 3584 3694 3078 
Q 3994 2572 3834 1747 
Q 3672 922 3175 415 
Q 2678 -91 2041 -91 
Q 1656 -91 1409 63 
Q 1163 213 1044 525 
L 681 -1331 
L 103 -1331 
L 697 1716 
Q 838 2438 1203 2875 
z
M 3238 1747 
Q 3359 2381 3169 2744 
Q 2978 3103 2522 3103 
Q 2066 3103 1734 2744 
Q 1403 2381 1281 1747 
Q 1156 1113 1347 750 
Q 1538 391 1994 391 
Q 2450 391 2781 750 
Q 3113 1113 3238 1747 
z
" transform="scale(0.015625)"/>
       <path id="DejaVuSans-Oblique-67" d="M 3816 3500 
L 3219 434 
Q 3047 -456 2561 -893 
Q 2075 -1331 1253 -1331 
Q 950 -1331 690 -1286 
Q 431 -1241 206 -1147 
L 313 -588 
Q 525 -725 762 -790 
Q 1000 -856 1269 -856 
Q 1816 -856 2167 -557 
Q 2519 -259 2631 300 
L 2681 563 
Q 2441 288 2122 144 
Q 1803 0 1434 0 
Q 903 0 598 351 
Q 294 703 294 1319 
Q 294 1803 478 2267 
Q 663 2731 997 3091 
Q 1219 3328 1514 3456 
Q 1809 3584 2131 3584 
Q 2484 3584 2746 3420 
Q 3009 3256 3138 2956 
L 3238 3500 
L 3816 3500 
z
M 2950 2216 
Q 2950 2641 2750 2872 
Q 2550 3103 2181 3103 
Q 1953 3103 1747 3012 
Q 1541 2922 1394 2759 
Q 1156 2491 1023 2127 
Q 891 1763 891 1375 
Q 891 944 1092 712 
Q 1294 481 1672 481 
Q 2219 481 2584 976 
Q 2950 1472 2950 2216 
z
" transform="scale(0.015625)"/>
      </defs>
      <use xlink:href="#DejaVuSans-Oblique-3c1" transform="translate(0 0.765625)"/>
      <use xlink:href="#DejaVuSans-5b" transform="translate(95.946941 0.765625)"/>
      <use xlink:href="#DejaVuSans-31" transform="translate(134.960613 0.765625)"/>
      <use xlink:href="#DejaVuSans-30" transform="translate(198.58366 0.765625)"/>
      <use xlink:href="#DejaVuSans-31" transform="translate(263.163738 39.046875) scale(0.7)"/>
      <use xlink:href="#DejaVuSans-35" transform="translate(307.699871 39.046875) scale(0.7)"/>
      <use xlink:href="#DejaVuSans-Oblique-67" transform="translate(387.440757 0.765625)"/>
      <use xlink:href="#DejaVuSans-22c5" transform="translate(470.399741 0.765625)"/>
      <use xlink:href="#DejaVuSans-Oblique-63" transform="translate(521.669272 0.765625)"/>
      <use xlink:href="#DejaVuSans-Oblique-6d" transform="translate(576.649741 0.765625)"/>
      <use xlink:href="#DejaVuSans-2212" transform="translate(678.711746 39.046875) scale(0.7)"/>
      <use xlink:href="#DejaVuSans-33" transform="translate(737.36409 39.046875) scale(0.7)"/>
      <use xlink:href="#DejaVuSans-5d" transform="translate(784.634598 0.765625)"/>
     </g>
    </g>
   </g>
  </g>
 </g>
 <defs>
  <clipPath id="pbc4358464a">
   <rect x="57.6" y="41.472" width="357.12" height="266.112"/>
  </clipPath>
 </defs>
</svg>
