<?xml version="1.0" encoding="utf-8" standalone="no"?>
<!DOCTYPE svg PUBLIC "-//W3C//DTD SVG 1.1//EN"
  "http://www.w3.org/Graphics/SVG/1.1/DTD/svg11.dtd">
<svg xmlns:xlink="http://www.w3.org/1999/xlink" width="460.8pt" height="345.6pt" viewBox="0 0 460.8 345.6" xmlns="http://www.w3.org/2000/svg" version="1.1">
 <metadata>
  <rdf:RDF xmlns:dc="http://purl.org/dc/elements/1.1/" xmlns:cc="http://creativecommons.org/ns#" xmlns:rdf="http://www.w3.org/1999/02/22-rdf-syntax-ns#">
   <cc:Work>
    <dc:type rdf:resource="http://purl.org/dc/dcmitype/StillImage"/>
    <dc:date>2024-01-26T19:50:02.932796</dc:date>
    <dc:format>image/svg+xml</dc:format>
    <dc:creator>
     <cc:Agent>
      <dc:title>Matplotlib v3.8.2, https://matplotlib.org/</dc:title>
     </cc:Agent>
    </dc:creator>
   </cc:Work>
  </rdf:RDF>
 </metadata>
 <defs>
  <style type="text/css">*{stroke-linejoin: round; stroke-linecap: butt}</style>
 </defs>
 <g id="figure_1">
  <g id="patch_1">
   <path d="M 0 345.6 
L 460.8 345.6 
L 460.8 0 
L 0 0 
z
" style="fill: #ffffff"/>
  </g>
  <g id="axes_1">
   <g id="patch_2">
    <path d="M 57.6 307.584 
L 414.72 307.584 
L 414.72 41.472 
L 57.6 41.472 
z
" style="fill: #ffffff"/>
   </g>
   <g id="matplotlib.axis_1">
    <g id="xtick_1">
     <g id="line2d_1">
      <defs>
       <path id="m9f48a0927c" d="M 0 0 
L 0 3.5 
" style="stroke: #000000; stroke-width: 0.8"/>
      </defs>
      <g>
       <use xlink:href="#m9f48a0927c" x="73.82841" y="307.584" style="stroke: #000000; stroke-width: 0.8"/>
      </g>
     </g>
     <g id="text_1">
      <!-- 0 -->
      <g transform="translate(70.64716 322.182437) scale(0.1 -0.1)">
       <defs>
        <path id="DejaVuSans-30" d="M 2034 4250 
Q 1547 4250 1301 3770 
Q 1056 3291 1056 2328 
Q 1056 1369 1301 889 
Q 1547 409 2034 409 
Q 2525 409 2770 889 
Q 3016 1369 3016 2328 
Q 3016 3291 2770 3770 
Q 2525 4250 2034 4250 
z
M 2034 4750 
Q 2819 4750 3233 4129 
Q 3647 3509 3647 2328 
Q 3647 1150 3233 529 
Q 2819 -91 2034 -91 
Q 1250 -91 836 529 
Q 422 1150 422 2328 
Q 422 3509 836 4129 
Q 1250 4750 2034 4750 
z
" transform="scale(0.015625)"/>
       </defs>
       <use xlink:href="#DejaVuSans-30"/>
      </g>
     </g>
    </g>
    <g id="xtick_2">
     <g id="line2d_2">
      <g>
       <use xlink:href="#m9f48a0927c" x="117.000874" y="307.584" style="stroke: #000000; stroke-width: 0.8"/>
      </g>
     </g>
     <g id="text_2">
      <!-- 1 -->
      <g transform="translate(113.819624 322.182437) scale(0.1 -0.1)">
       <defs>
        <path id="DejaVuSans-31" d="M 794 531 
L 1825 531 
L 1825 4091 
L 703 3866 
L 703 4441 
L 1819 4666 
L 2450 4666 
L 2450 531 
L 3481 531 
L 3481 0 
L 794 0 
L 794 531 
z
" transform="scale(0.015625)"/>
       </defs>
       <use xlink:href="#DejaVuSans-31"/>
      </g>
     </g>
    </g>
    <g id="xtick_3">
     <g id="line2d_3">
      <g>
       <use xlink:href="#m9f48a0927c" x="160.173338" y="307.584" style="stroke: #000000; stroke-width: 0.8"/>
      </g>
     </g>
     <g id="text_3">
      <!-- 2 -->
      <g transform="translate(156.992088 322.182437) scale(0.1 -0.1)">
       <defs>
        <path id="DejaVuSans-32" d="M 1228 531 
L 3431 531 
L 3431 0 
L 469 0 
L 469 531 
Q 828 903 1448 1529 
Q 2069 2156 2228 2338 
Q 2531 2678 2651 2914 
Q 2772 3150 2772 3378 
Q 2772 3750 2511 3984 
Q 2250 4219 1831 4219 
Q 1534 4219 1204 4116 
Q 875 4013 500 3803 
L 500 4441 
Q 881 4594 1212 4672 
Q 1544 4750 1819 4750 
Q 2544 4750 2975 4387 
Q 3406 4025 3406 3419 
Q 3406 3131 3298 2873 
Q 3191 2616 2906 2266 
Q 2828 2175 2409 1742 
Q 1991 1309 1228 531 
z
" transform="scale(0.015625)"/>
       </defs>
       <use xlink:href="#DejaVuSans-32"/>
      </g>
     </g>
    </g>
    <g id="xtick_4">
     <g id="line2d_4">
      <g>
       <use xlink:href="#m9f48a0927c" x="203.345801" y="307.584" style="stroke: #000000; stroke-width: 0.8"/>
      </g>
     </g>
     <g id="text_4">
      <!-- 3 -->
      <g transform="translate(200.164551 322.182437) scale(0.1 -0.1)">
       <defs>
        <path id="DejaVuSans-33" d="M 2597 2516 
Q 3050 2419 3304 2112 
Q 3559 1806 3559 1356 
Q 3559 666 3084 287 
Q 2609 -91 1734 -91 
Q 1441 -91 1130 -33 
Q 819 25 488 141 
L 488 750 
Q 750 597 1062 519 
Q 1375 441 1716 441 
Q 2309 441 2620 675 
Q 2931 909 2931 1356 
Q 2931 1769 2642 2001 
Q 2353 2234 1838 2234 
L 1294 2234 
L 1294 2753 
L 1863 2753 
Q 2328 2753 2575 2939 
Q 2822 3125 2822 3475 
Q 2822 3834 2567 4026 
Q 2313 4219 1838 4219 
Q 1578 4219 1281 4162 
Q 984 4106 628 3988 
L 628 4550 
Q 988 4650 1302 4700 
Q 1616 4750 1894 4750 
Q 2613 4750 3031 4423 
Q 3450 4097 3450 3541 
Q 3450 3153 3228 2886 
Q 3006 2619 2597 2516 
z
" transform="scale(0.015625)"/>
       </defs>
       <use xlink:href="#DejaVuSans-33"/>
      </g>
     </g>
    </g>
    <g id="xtick_5">
     <g id="line2d_5">
      <g>
       <use xlink:href="#m9f48a0927c" x="246.518265" y="307.584" style="stroke: #000000; stroke-width: 0.8"/>
      </g>
     </g>
     <g id="text_5">
      <!-- 4 -->
      <g transform="translate(243.337015 322.182437) scale(0.1 -0.1)">
       <defs>
        <path id="DejaVuSans-34" d="M 2419 4116 
L 825 1625 
L 2419 1625 
L 2419 4116 
z
M 2253 4666 
L 3047 4666 
L 3047 1625 
L 3713 1625 
L 3713 1100 
L 3047 1100 
L 3047 0 
L 2419 0 
L 2419 1100 
L 313 1100 
L 313 1709 
L 2253 4666 
z
" transform="scale(0.015625)"/>
       </defs>
       <use xlink:href="#DejaVuSans-34"/>
      </g>
     </g>
    </g>
    <g id="xtick_6">
     <g id="line2d_6">
      <g>
       <use xlink:href="#m9f48a0927c" x="289.690729" y="307.584" style="stroke: #000000; stroke-width: 0.8"/>
      </g>
     </g>
     <g id="text_6">
      <!-- 5 -->
      <g transform="translate(286.509479 322.182437) scale(0.1 -0.1)">
       <defs>
        <path id="DejaVuSans-35" d="M 691 4666 
L 3169 4666 
L 3169 4134 
L 1269 4134 
L 1269 2991 
Q 1406 3038 1543 3061 
Q 1681 3084 1819 3084 
Q 2600 3084 3056 2656 
Q 3513 2228 3513 1497 
Q 3513 744 3044 326 
Q 2575 -91 1722 -91 
Q 1428 -91 1123 -41 
Q 819 9 494 109 
L 494 744 
Q 775 591 1075 516 
Q 1375 441 1709 441 
Q 2250 441 2565 725 
Q 2881 1009 2881 1497 
Q 2881 1984 2565 2268 
Q 2250 2553 1709 2553 
Q 1456 2553 1204 2497 
Q 953 2441 691 2322 
L 691 4666 
z
" transform="scale(0.015625)"/>
       </defs>
       <use xlink:href="#DejaVuSans-35"/>
      </g>
     </g>
    </g>
    <g id="xtick_7">
     <g id="line2d_7">
      <g>
       <use xlink:href="#m9f48a0927c" x="332.863193" y="307.584" style="stroke: #000000; stroke-width: 0.8"/>
      </g>
     </g>
     <g id="text_7">
      <!-- 6 -->
      <g transform="translate(329.681943 322.182437) scale(0.1 -0.1)">
       <defs>
        <path id="DejaVuSans-36" d="M 2113 2584 
Q 1688 2584 1439 2293 
Q 1191 2003 1191 1497 
Q 1191 994 1439 701 
Q 1688 409 2113 409 
Q 2538 409 2786 701 
Q 3034 994 3034 1497 
Q 3034 2003 2786 2293 
Q 2538 2584 2113 2584 
z
M 3366 4563 
L 3366 3988 
Q 3128 4100 2886 4159 
Q 2644 4219 2406 4219 
Q 1781 4219 1451 3797 
Q 1122 3375 1075 2522 
Q 1259 2794 1537 2939 
Q 1816 3084 2150 3084 
Q 2853 3084 3261 2657 
Q 3669 2231 3669 1497 
Q 3669 778 3244 343 
Q 2819 -91 2113 -91 
Q 1303 -91 875 529 
Q 447 1150 447 2328 
Q 447 3434 972 4092 
Q 1497 4750 2381 4750 
Q 2619 4750 2861 4703 
Q 3103 4656 3366 4563 
z
" transform="scale(0.015625)"/>
       </defs>
       <use xlink:href="#DejaVuSans-36"/>
      </g>
     </g>
    </g>
    <g id="xtick_8">
     <g id="line2d_8">
      <g>
       <use xlink:href="#m9f48a0927c" x="376.035656" y="307.584" style="stroke: #000000; stroke-width: 0.8"/>
      </g>
     </g>
     <g id="text_8">
      <!-- 7 -->
      <g transform="translate(372.854406 322.182437) scale(0.1 -0.1)">
       <defs>
        <path id="DejaVuSans-37" d="M 525 4666 
L 3525 4666 
L 3525 4397 
L 1831 0 
L 1172 0 
L 2766 4134 
L 525 4134 
L 525 4666 
z
" transform="scale(0.015625)"/>
       </defs>
       <use xlink:href="#DejaVuSans-37"/>
      </g>
     </g>
    </g>
    <g id="text_9">
     <!-- $r ~ [km]$ -->
     <g transform="translate(220.81 335.860562) scale(0.1 -0.1)">
      <defs>
       <path id="DejaVuSans-Oblique-72" d="M 2853 2969 
Q 2766 3016 2653 3041 
Q 2541 3066 2413 3066 
Q 1953 3066 1609 2717 
Q 1266 2369 1153 1784 
L 800 0 
L 225 0 
L 909 3500 
L 1484 3500 
L 1375 2956 
Q 1603 3259 1920 3421 
Q 2238 3584 2597 3584 
Q 2691 3584 2781 3573 
Q 2872 3563 2963 3538 
L 2853 2969 
z
" transform="scale(0.015625)"/>
       <path id="DejaVuSans-5b" d="M 550 4863 
L 1875 4863 
L 1875 4416 
L 1125 4416 
L 1125 -397 
L 1875 -397 
L 1875 -844 
L 550 -844 
L 550 4863 
z
" transform="scale(0.015625)"/>
       <path id="DejaVuSans-Oblique-6b" d="M 1172 4863 
L 1747 4863 
L 1197 2028 
L 3169 3500 
L 3916 3500 
L 1716 1825 
L 3322 0 
L 2625 0 
L 1131 1709 
L 800 0 
L 225 0 
L 1172 4863 
z
" transform="scale(0.015625)"/>
       <path id="DejaVuSans-Oblique-6d" d="M 5747 2113 
L 5338 0 
L 4763 0 
L 5166 2094 
Q 5191 2228 5203 2325 
Q 5216 2422 5216 2491 
Q 5216 2772 5059 2928 
Q 4903 3084 4622 3084 
Q 4203 3084 3875 2770 
Q 3547 2456 3450 1953 
L 3066 0 
L 2491 0 
L 2900 2094 
Q 2925 2209 2937 2307 
Q 2950 2406 2950 2484 
Q 2950 2769 2794 2926 
Q 2638 3084 2363 3084 
Q 1938 3084 1609 2770 
Q 1281 2456 1184 1953 
L 800 0 
L 225 0 
L 909 3500 
L 1484 3500 
L 1375 2956 
Q 1609 3263 1923 3423 
Q 2238 3584 2597 3584 
Q 2978 3584 3223 3384 
Q 3469 3184 3519 2828 
Q 3781 3197 4126 3390 
Q 4472 3584 4856 3584 
Q 5306 3584 5551 3325 
Q 5797 3066 5797 2591 
Q 5797 2488 5784 2364 
Q 5772 2241 5747 2113 
z
" transform="scale(0.015625)"/>
       <path id="DejaVuSans-5d" d="M 1947 4863 
L 1947 -844 
L 622 -844 
L 622 -397 
L 1369 -397 
L 1369 4416 
L 622 4416 
L 622 4863 
L 1947 4863 
z
" transform="scale(0.015625)"/>
      </defs>
      <use xlink:href="#DejaVuSans-Oblique-72" transform="translate(0 0.015625)"/>
      <use xlink:href="#DejaVuSans-5b" transform="translate(73.58366 0.015625)"/>
      <use xlink:href="#DejaVuSans-Oblique-6b" transform="translate(112.597332 0.015625)"/>
      <use xlink:href="#DejaVuSans-Oblique-6d" transform="translate(170.507488 0.015625)"/>
      <use xlink:href="#DejaVuSans-5d" transform="translate(267.919597 0.015625)"/>
     </g>
    </g>
   </g>
   <g id="matplotlib.axis_2">
    <g id="ytick_1">
     <g id="line2d_9">
      <defs>
       <path id="m31b4e703fb" d="M 0 0 
L -3.5 0 
" style="stroke: #000000; stroke-width: 0.8"/>
      </defs>
      <g>
       <use xlink:href="#m31b4e703fb" x="57.6" y="290.365189" style="stroke: #000000; stroke-width: 0.8"/>
      </g>
     </g>
     <g id="text_10">
      <!-- −2 -->
      <g transform="translate(35.857813 294.164408) scale(0.1 -0.1)">
       <defs>
        <path id="DejaVuSans-2212" d="M 678 2272 
L 4684 2272 
L 4684 1741 
L 678 1741 
L 678 2272 
z
" transform="scale(0.015625)"/>
       </defs>
       <use xlink:href="#DejaVuSans-2212"/>
       <use xlink:href="#DejaVuSans-32" x="83.789062"/>
      </g>
     </g>
    </g>
    <g id="ytick_2">
     <g id="line2d_10">
      <g>
       <use xlink:href="#m31b4e703fb" x="57.6" y="259.57632" style="stroke: #000000; stroke-width: 0.8"/>
      </g>
     </g>
     <g id="text_11">
      <!-- −1 -->
      <g transform="translate(35.857813 263.375539) scale(0.1 -0.1)">
       <use xlink:href="#DejaVuSans-2212"/>
       <use xlink:href="#DejaVuSans-31" x="83.789062"/>
      </g>
     </g>
    </g>
    <g id="ytick_3">
     <g id="line2d_11">
      <g>
       <use xlink:href="#m31b4e703fb" x="57.6" y="228.787451" style="stroke: #000000; stroke-width: 0.8"/>
      </g>
     </g>
     <g id="text_12">
      <!-- 0 -->
      <g transform="translate(44.2375 232.58667) scale(0.1 -0.1)">
       <use xlink:href="#DejaVuSans-30"/>
      </g>
     </g>
    </g>
    <g id="ytick_4">
     <g id="line2d_12">
      <g>
       <use xlink:href="#m31b4e703fb" x="57.6" y="197.998583" style="stroke: #000000; stroke-width: 0.8"/>
      </g>
     </g>
     <g id="text_13">
      <!-- 1 -->
      <g transform="translate(44.2375 201.797802) scale(0.1 -0.1)">
       <use xlink:href="#DejaVuSans-31"/>
      </g>
     </g>
    </g>
    <g id="ytick_5">
     <g id="line2d_13">
      <g>
       <use xlink:href="#m31b4e703fb" x="57.6" y="167.209714" style="stroke: #000000; stroke-width: 0.8"/>
      </g>
     </g>
     <g id="text_14">
      <!-- 2 -->
      <g transform="translate(44.2375 171.008933) scale(0.1 -0.1)">
       <use xlink:href="#DejaVuSans-32"/>
      </g>
     </g>
    </g>
    <g id="ytick_6">
     <g id="line2d_14">
      <g>
       <use xlink:href="#m31b4e703fb" x="57.6" y="136.420846" style="stroke: #000000; stroke-width: 0.8"/>
      </g>
     </g>
     <g id="text_15">
      <!-- 3 -->
      <g transform="translate(44.2375 140.220064) scale(0.1 -0.1)">
       <use xlink:href="#DejaVuSans-33"/>
      </g>
     </g>
    </g>
    <g id="ytick_7">
     <g id="line2d_15">
      <g>
       <use xlink:href="#m31b4e703fb" x="57.6" y="105.631977" style="stroke: #000000; stroke-width: 0.8"/>
      </g>
     </g>
     <g id="text_16">
      <!-- 4 -->
      <g transform="translate(44.2375 109.431196) scale(0.1 -0.1)">
       <use xlink:href="#DejaVuSans-34"/>
      </g>
     </g>
    </g>
    <g id="ytick_8">
     <g id="line2d_16">
      <g>
       <use xlink:href="#m31b4e703fb" x="57.6" y="74.843108" style="stroke: #000000; stroke-width: 0.8"/>
      </g>
     </g>
     <g id="text_17">
      <!-- 5 -->
      <g transform="translate(44.2375 78.642327) scale(0.1 -0.1)">
       <use xlink:href="#DejaVuSans-35"/>
      </g>
     </g>
    </g>
    <g id="ytick_9">
     <g id="line2d_17">
      <g>
       <use xlink:href="#m31b4e703fb" x="57.6" y="44.05424" style="stroke: #000000; stroke-width: 0.8"/>
      </g>
     </g>
     <g id="text_18">
      <!-- 6 -->
      <g transform="translate(44.2375 47.853458) scale(0.1 -0.1)">
       <use xlink:href="#DejaVuSans-36"/>
      </g>
     </g>
    </g>
   </g>
   <g id="line2d_18">
    <path d="M 73.832727 162.233074 
L 73.833074 162.233074 
L 73.836537 162.233074 
L 73.864093 162.233077 
L 73.923556 162.233096 
L 74.004814 162.233149 
L 74.127579 162.23329 
L 74.358971 162.233753 
L 74.732023 162.235044 
L 75.260413 162.238022 
L 75.983936 162.244284 
L 76.937743 162.256398 
L 78.154161 162.278211 
L 79.665887 162.315253 
L 81.504878 162.375135 
L 83.7025 162.467982 
L 86.289617 162.606885 
L 89.296782 162.808357 
L 92.754528 163.092785 
L 96.693777 163.484857 
L 101.1464 164.013963 
L 106.145974 164.71452 
L 111.728812 165.626227 
L 117.935399 166.794201 
L 124.812432 168.268998 
L 132.415871 170.106521 
L 140.815719 172.367912 
L 150.104084 175.119728 
L 160.410043 178.435243 
L 171.930453 182.399405 
L 185.004122 187.125422 
L 200.311305 192.805543 
L 218.411533 199.4724 
L 235.139888 205.341791 
L 250.611711 210.339082 
L 265.330081 214.588744 
L 279.420073 218.123836 
L 292.913056 220.985234 
L 305.833737 223.238889 
L 318.172324 224.961715 
L 329.865607 226.234706 
L 340.759041 227.137318 
L 349.383174 227.680891 
L 356.919575 228.047507 
L 363.436819 228.292839 
L 369.039334 228.456784 
L 373.830529 228.56634 
L 377.90802 228.639582 
L 381.36189 228.688567 
L 384.274431 228.721334 
L 386.72016 228.743254 
L 388.765928 228.757916 
L 390.471127 228.76772 
L 391.887992 228.774274 
L 393.062028 228.778654 
L 394.032517 228.781579 
L 394.83309 228.783533 
L 395.492334 228.784838 
L 396.034386 228.785708 
L 396.479521 228.786289 
L 396.844683 228.786676 
L 397.143977 228.786935 
L 397.389105 228.787107 
L 397.589751 228.787222 
L 397.753904 228.787298 
L 397.888146 228.787349 
L 397.997891 228.787383 
L 398.087584 228.787406 
L 398.160872 228.787421 
L 398.220745 228.787431 
L 398.269651 228.787438 
L 398.309593 228.787443 
L 398.342211 228.787446 
L 398.368847 228.787448 
L 398.390595 228.787449 
L 398.408352 228.78745 
L 398.422849 228.78745 
L 398.434685 228.787451 
L 398.444347 228.787451 
L 398.452236 228.787451 
L 398.458675 228.787451 
L 398.463933 228.787451 
L 398.468224 228.787451 
L 398.471728 228.787451 
L 398.474589 228.787451 
L 398.476925 228.787451 
L 398.478832 228.787451 
L 398.48039 228.787451 
L 398.481663 228.787451 
L 398.482704 228.787451 
L 398.483554 228.787451 
L 398.484251 228.787451 
L 398.484822 228.787451 
L 398.48529 228.787451 
L 398.485676 228.787451 
L 398.485994 228.787451 
L 398.486256 228.787451 
L 398.486474 228.787451 
L 398.486654 228.787451 
L 398.486803 228.787451 
L 398.486925 228.787451 
L 398.487023 228.787451 
L 398.487101 228.787451 
L 398.487161 228.787451 
L 398.487204 228.787451 
L 398.487234 228.787451 
L 398.48725 228.787451 
L 398.487267 228.787451 
L 398.487273 228.787451 
" clip-path="url(#p78fbd9127e)" style="fill: none; stroke: #1f77b4; stroke-linecap: square"/>
   </g>
   <g id="line2d_19">
    <path d="M 73.832727 228.787451 
L 73.833074 228.787451 
L 73.836537 228.787451 
L 73.864093 228.787451 
L 73.923556 228.787451 
L 74.004814 228.787451 
L 74.127579 228.787451 
L 74.358971 228.787451 
L 74.732023 228.787448 
L 75.260413 228.787438 
L 75.983936 228.787406 
L 76.937743 228.787314 
L 78.154161 228.78708 
L 79.665887 228.786539 
L 81.504878 228.785378 
L 83.7025 228.78304 
L 86.289617 228.77859 
L 89.296782 228.770518 
L 92.754528 228.756475 
L 96.693777 228.732925 
L 101.1464 228.694691 
L 106.145974 228.634371 
L 111.728812 228.541597 
L 117.935399 228.402103 
L 124.812432 228.196536 
L 132.415871 227.898927 
L 140.815719 227.47466 
L 150.104084 226.877595 
L 160.410043 226.045602 
L 171.930453 224.892464 
L 185.004122 223.289906 
L 200.311305 221.018937 
L 218.411533 217.818992 
L 235.139888 214.435948 
L 250.611711 211.031668 
L 265.330081 207.641505 
L 279.420073 204.351092 
L 292.913056 201.247413 
L 305.833737 198.398523 
L 318.172324 195.858769 
L 329.865607 193.6702 
L 340.759041 191.864173 
L 349.383174 190.616235 
L 356.919575 189.669645 
L 363.436819 188.966082 
L 369.039334 188.450329 
L 373.830529 188.076677 
L 377.90802 187.808788 
L 381.36189 187.618537 
L 384.274431 187.484583 
L 386.72016 187.390997 
L 388.765928 187.326066 
L 390.471127 187.281291 
L 391.887992 187.250582 
L 393.062028 187.229616 
L 394.032517 187.215361 
L 394.83309 187.2057 
L 395.492334 187.199172 
L 396.034386 187.194772 
L 396.479521 187.191811 
L 396.844683 187.189823 
L 397.143977 187.18849 
L 397.389105 187.187597 
L 397.589751 187.186999 
L 397.753904 187.1866 
L 397.888146 187.186333 
L 397.997891 187.186154 
L 398.087584 187.186035 
L 398.160872 187.185956 
L 398.220745 187.185903 
L 398.269651 187.185867 
L 398.309593 187.185844 
L 398.342211 187.185828 
L 398.368847 187.185818 
L 398.390595 187.185811 
L 398.408352 187.185806 
L 398.422849 187.185803 
L 398.434685 187.185801 
L 398.444347 187.185799 
L 398.452236 187.185798 
L 398.458675 187.185798 
L 398.463933 187.185797 
L 398.468224 187.185797 
L 398.471728 187.185797 
L 398.474589 187.185797 
L 398.476925 187.185797 
L 398.478832 187.185797 
L 398.48039 187.185797 
L 398.481663 187.185797 
L 398.482704 187.185797 
L 398.483554 187.185797 
L 398.484251 187.185797 
L 398.484822 187.185797 
L 398.48529 187.185797 
L 398.485676 187.185797 
L 398.485994 187.185797 
L 398.486256 187.185797 
L 398.486474 187.185797 
L 398.486654 187.185797 
L 398.486803 187.185797 
L 398.486925 187.185797 
L 398.487023 187.185797 
L 398.487101 187.185797 
L 398.487161 187.185797 
L 398.487204 187.185797 
L 398.487234 187.185797 
L 398.48725 187.185797 
L 398.487267 187.185797 
L 398.487273 187.185797 
" clip-path="url(#p78fbd9127e)" style="fill: none; stroke: #ff7f0e; stroke-linecap: square"/>
   </g>
   <g id="line2d_20">
    <path d="M 73.832727 295.488 
L 73.833074 295.488 
L 73.836537 295.488 
L 73.864093 295.487999 
L 73.923556 295.487994 
L 74.004814 295.487979 
L 74.127579 295.487941 
L 74.358971 295.487813 
L 74.732023 295.487459 
L 75.260413 295.48664 
L 75.983936 295.484919 
L 76.937743 295.481588 
L 78.154161 295.475591 
L 79.665887 295.465403 
L 81.504878 295.448926 
L 83.7025 295.423359 
L 86.289617 295.385067 
L 89.296782 295.329433 
L 92.754528 295.250704 
L 96.693777 295.141817 
L 101.1464 294.994199 
L 106.145974 294.797541 
L 111.728812 294.539517 
L 117.935399 294.205429 
L 124.812432 293.777726 
L 132.415871 293.235339 
L 140.815719 292.552657 
L 150.104084 291.697874 
L 160.410043 290.630029 
L 171.930453 289.293006 
L 185.004122 287.601295 
L 200.311305 285.400934 
L 218.411533 282.524266 
L 235.139888 279.63945 
L 250.611711 276.817804 
L 265.330081 274.036136 
L 279.420073 271.323629 
L 292.913056 268.719156 
L 305.833737 266.255125 
L 318.172324 263.961796 
L 329.865607 261.868966 
L 340.759041 260.009806 
L 349.383174 258.610236 
L 356.919575 257.444714 
L 363.436819 256.48257 
L 369.039334 255.690565 
L 373.830529 255.039493 
L 377.90802 254.504649 
L 381.36189 254.065504 
L 384.274431 253.705097 
L 386.72016 253.409447 
L 388.765928 253.167035 
L 390.471127 252.968372 
L 391.887992 252.805639 
L 393.062028 252.672399 
L 394.032517 252.563353 
L 394.83309 252.474142 
L 395.492334 252.401184 
L 396.034386 252.341534 
L 396.479521 252.292779 
L 396.844683 252.252938 
L 397.143977 252.220386 
L 397.389105 252.193795 
L 397.589751 252.172075 
L 397.753904 252.154337 
L 397.888146 252.139852 
L 397.997891 252.128024 
L 398.087584 252.118366 
L 398.160872 252.110481 
L 398.220745 252.104043 
L 398.269651 252.098788 
L 398.309593 252.094497 
L 398.342211 252.090995 
L 398.368847 252.088135 
L 398.390595 252.085801 
L 398.408352 252.083896 
L 398.422849 252.08234 
L 398.434685 252.081071 
L 398.444347 252.080034 
L 398.452236 252.079188 
L 398.458675 252.078497 
L 398.463933 252.077934 
L 398.468224 252.077473 
L 398.471728 252.077098 
L 398.474589 252.076791 
L 398.476925 252.076541 
L 398.478832 252.076336 
L 398.48039 252.076169 
L 398.481663 252.076032 
L 398.482704 252.075921 
L 398.483554 252.07583 
L 398.484251 252.075755 
L 398.484822 252.075694 
L 398.48529 252.075644 
L 398.485676 252.075602 
L 398.485994 252.075568 
L 398.486256 252.07554 
L 398.486474 252.075517 
L 398.486654 252.075497 
L 398.486803 252.075481 
L 398.486925 252.075468 
L 398.487023 252.075458 
L 398.487101 252.075449 
L 398.487161 252.075443 
L 398.487204 252.075438 
L 398.487234 252.075435 
L 398.48725 252.075433 
L 398.487267 252.075432 
L 398.487273 252.075431 
" clip-path="url(#p78fbd9127e)" style="fill: none; stroke: #2ca02c; stroke-linecap: square"/>
   </g>
   <g id="line2d_21">
    <path d="M 73.832727 53.568 
L 73.833074 53.568 
L 73.836537 53.568 
L 73.864093 53.568004 
L 73.923556 53.568029 
L 74.004814 53.568099 
L 74.127579 53.568284 
L 74.358971 53.568894 
L 74.732023 53.570593 
L 75.260413 53.574513 
L 75.983936 53.582757 
L 76.937743 53.598705 
L 78.154161 53.627427 
L 79.665887 53.676211 
L 81.504878 53.755103 
L 83.7025 53.877497 
L 86.289617 54.060764 
L 89.296782 54.326925 
L 92.754528 54.70337 
L 96.693777 55.223623 
L 101.1464 55.928192 
L 106.145974 56.865512 
L 111.728812 58.093051 
L 117.935399 59.678651 
L 124.812432 61.702278 
L 132.415871 64.258435 
L 140.815719 67.459815 
L 150.104084 71.443305 
L 160.410043 76.38103 
L 171.930453 82.503377 
L 185.004122 90.15522 
L 200.311305 99.951788 
L 218.411533 112.498264 
L 235.139888 124.789391 
L 250.611711 136.536045 
L 265.330081 147.855799 
L 279.420073 158.650604 
L 292.913056 168.794111 
L 305.833737 178.195174 
L 318.172324 186.777565 
L 329.865607 194.471367 
L 340.759041 201.197336 
L 349.383174 206.194053 
L 356.919575 210.312062 
L 363.436819 213.682254 
L 369.039334 216.436796 
L 373.830529 218.687953 
L 377.90802 220.528353 
L 381.36189 222.033491 
L 384.274431 223.264756 
L 386.72016 224.272103 
L 388.765928 225.096252 
L 390.471127 225.770459 
L 391.887992 226.321917 
L 393.062028 226.77289 
L 394.032517 227.141611 
L 394.83309 227.44302 
L 395.492334 227.689357 
L 396.034386 227.890648 
L 396.479521 228.055103 
L 396.844683 228.189444 
L 397.143977 228.299173 
L 397.389105 228.388787 
L 397.589751 228.461969 
L 397.753904 228.521727 
L 397.888146 228.57052 
L 397.997891 228.610357 
L 398.087584 228.642882 
L 398.160872 228.669436 
L 398.220745 228.691113 
L 398.269651 228.70881 
L 398.309593 228.723256 
L 398.342211 228.73505 
L 398.368847 228.744676 
L 398.390595 228.752535 
L 398.408352 228.75895 
L 398.422849 228.764187 
L 398.434685 228.768461 
L 398.444347 228.77195 
L 398.452236 228.774799 
L 398.458675 228.777124 
L 398.463933 228.779022 
L 398.468224 228.780571 
L 398.471728 228.781836 
L 398.474589 228.782869 
L 398.476925 228.783712 
L 398.478832 228.784401 
L 398.48039 228.784963 
L 398.481663 228.785422 
L 398.482704 228.785798 
L 398.483554 228.786105 
L 398.484251 228.786356 
L 398.484822 228.786563 
L 398.48529 228.786732 
L 398.485676 228.786871 
L 398.485994 228.786985 
L 398.486256 228.78708 
L 398.486474 228.787159 
L 398.486654 228.787224 
L 398.486803 228.787278 
L 398.486925 228.787322 
L 398.487023 228.787357 
L 398.487101 228.787385 
L 398.487161 228.787407 
L 398.487204 228.787423 
L 398.487234 228.787433 
L 398.48725 228.787439 
L 398.487267 228.787445 
L 398.487273 228.787447 
" clip-path="url(#p78fbd9127e)" style="fill: none; stroke: #d62728; stroke-linecap: square"/>
   </g>
   <g id="patch_3">
    <path d="M 57.6 307.584 
L 57.6 41.472 
" style="fill: none; stroke: #000000; stroke-width: 0.8; stroke-linejoin: miter; stroke-linecap: square"/>
   </g>
   <g id="patch_4">
    <path d="M 414.72 307.584 
L 414.72 41.472 
" style="fill: none; stroke: #000000; stroke-width: 0.8; stroke-linejoin: miter; stroke-linecap: square"/>
   </g>
   <g id="patch_5">
    <path d="M 57.6 307.584 
L 414.72 307.584 
" style="fill: none; stroke: #000000; stroke-width: 0.8; stroke-linejoin: miter; stroke-linecap: square"/>
   </g>
   <g id="patch_6">
    <path d="M 57.6 41.472 
L 414.72 41.472 
" style="fill: none; stroke: #000000; stroke-width: 0.8; stroke-linejoin: miter; stroke-linecap: square"/>
   </g>
   <g id="text_19">
    <!-- TOV solution for the Polytropic EOS star -->
    <g transform="translate(117.111563 22.1664) scale(0.12 -0.12)">
     <defs>
      <path id="DejaVuSans-54" d="M -19 4666 
L 3928 4666 
L 3928 4134 
L 2272 4134 
L 2272 0 
L 1638 0 
L 1638 4134 
L -19 4134 
L -19 4666 
z
" transform="scale(0.015625)"/>
      <path id="DejaVuSans-4f" d="M 2522 4238 
Q 1834 4238 1429 3725 
Q 1025 3213 1025 2328 
Q 1025 1447 1429 934 
Q 1834 422 2522 422 
Q 3209 422 3611 934 
Q 4013 1447 4013 2328 
Q 4013 3213 3611 3725 
Q 3209 4238 2522 4238 
z
M 2522 4750 
Q 3503 4750 4090 4092 
Q 4678 3434 4678 2328 
Q 4678 1225 4090 567 
Q 3503 -91 2522 -91 
Q 1538 -91 948 565 
Q 359 1222 359 2328 
Q 359 3434 948 4092 
Q 1538 4750 2522 4750 
z
" transform="scale(0.015625)"/>
      <path id="DejaVuSans-56" d="M 1831 0 
L 50 4666 
L 709 4666 
L 2188 738 
L 3669 4666 
L 4325 4666 
L 2547 0 
L 1831 0 
z
" transform="scale(0.015625)"/>
      <path id="DejaVuSans-20" transform="scale(0.015625)"/>
      <path id="DejaVuSans-73" d="M 2834 3397 
L 2834 2853 
Q 2591 2978 2328 3040 
Q 2066 3103 1784 3103 
Q 1356 3103 1142 2972 
Q 928 2841 928 2578 
Q 928 2378 1081 2264 
Q 1234 2150 1697 2047 
L 1894 2003 
Q 2506 1872 2764 1633 
Q 3022 1394 3022 966 
Q 3022 478 2636 193 
Q 2250 -91 1575 -91 
Q 1294 -91 989 -36 
Q 684 19 347 128 
L 347 722 
Q 666 556 975 473 
Q 1284 391 1588 391 
Q 1994 391 2212 530 
Q 2431 669 2431 922 
Q 2431 1156 2273 1281 
Q 2116 1406 1581 1522 
L 1381 1569 
Q 847 1681 609 1914 
Q 372 2147 372 2553 
Q 372 3047 722 3315 
Q 1072 3584 1716 3584 
Q 2034 3584 2315 3537 
Q 2597 3491 2834 3397 
z
" transform="scale(0.015625)"/>
      <path id="DejaVuSans-6f" d="M 1959 3097 
Q 1497 3097 1228 2736 
Q 959 2375 959 1747 
Q 959 1119 1226 758 
Q 1494 397 1959 397 
Q 2419 397 2687 759 
Q 2956 1122 2956 1747 
Q 2956 2369 2687 2733 
Q 2419 3097 1959 3097 
z
M 1959 3584 
Q 2709 3584 3137 3096 
Q 3566 2609 3566 1747 
Q 3566 888 3137 398 
Q 2709 -91 1959 -91 
Q 1206 -91 779 398 
Q 353 888 353 1747 
Q 353 2609 779 3096 
Q 1206 3584 1959 3584 
z
" transform="scale(0.015625)"/>
      <path id="DejaVuSans-6c" d="M 603 4863 
L 1178 4863 
L 1178 0 
L 603 0 
L 603 4863 
z
" transform="scale(0.015625)"/>
      <path id="DejaVuSans-75" d="M 544 1381 
L 544 3500 
L 1119 3500 
L 1119 1403 
Q 1119 906 1312 657 
Q 1506 409 1894 409 
Q 2359 409 2629 706 
Q 2900 1003 2900 1516 
L 2900 3500 
L 3475 3500 
L 3475 0 
L 2900 0 
L 2900 538 
Q 2691 219 2414 64 
Q 2138 -91 1772 -91 
Q 1169 -91 856 284 
Q 544 659 544 1381 
z
M 1991 3584 
L 1991 3584 
z
" transform="scale(0.015625)"/>
      <path id="DejaVuSans-74" d="M 1172 4494 
L 1172 3500 
L 2356 3500 
L 2356 3053 
L 1172 3053 
L 1172 1153 
Q 1172 725 1289 603 
Q 1406 481 1766 481 
L 2356 481 
L 2356 0 
L 1766 0 
Q 1100 0 847 248 
Q 594 497 594 1153 
L 594 3053 
L 172 3053 
L 172 3500 
L 594 3500 
L 594 4494 
L 1172 4494 
z
" transform="scale(0.015625)"/>
      <path id="DejaVuSans-69" d="M 603 3500 
L 1178 3500 
L 1178 0 
L 603 0 
L 603 3500 
z
M 603 4863 
L 1178 4863 
L 1178 4134 
L 603 4134 
L 603 4863 
z
" transform="scale(0.015625)"/>
      <path id="DejaVuSans-6e" d="M 3513 2113 
L 3513 0 
L 2938 0 
L 2938 2094 
Q 2938 2591 2744 2837 
Q 2550 3084 2163 3084 
Q 1697 3084 1428 2787 
Q 1159 2491 1159 1978 
L 1159 0 
L 581 0 
L 581 3500 
L 1159 3500 
L 1159 2956 
Q 1366 3272 1645 3428 
Q 1925 3584 2291 3584 
Q 2894 3584 3203 3211 
Q 3513 2838 3513 2113 
z
" transform="scale(0.015625)"/>
      <path id="DejaVuSans-66" d="M 2375 4863 
L 2375 4384 
L 1825 4384 
Q 1516 4384 1395 4259 
Q 1275 4134 1275 3809 
L 1275 3500 
L 2222 3500 
L 2222 3053 
L 1275 3053 
L 1275 0 
L 697 0 
L 697 3053 
L 147 3053 
L 147 3500 
L 697 3500 
L 697 3744 
Q 697 4328 969 4595 
Q 1241 4863 1831 4863 
L 2375 4863 
z
" transform="scale(0.015625)"/>
      <path id="DejaVuSans-72" d="M 2631 2963 
Q 2534 3019 2420 3045 
Q 2306 3072 2169 3072 
Q 1681 3072 1420 2755 
Q 1159 2438 1159 1844 
L 1159 0 
L 581 0 
L 581 3500 
L 1159 3500 
L 1159 2956 
Q 1341 3275 1631 3429 
Q 1922 3584 2338 3584 
Q 2397 3584 2469 3576 
Q 2541 3569 2628 3553 
L 2631 2963 
z
" transform="scale(0.015625)"/>
      <path id="DejaVuSans-68" d="M 3513 2113 
L 3513 0 
L 2938 0 
L 2938 2094 
Q 2938 2591 2744 2837 
Q 2550 3084 2163 3084 
Q 1697 3084 1428 2787 
Q 1159 2491 1159 1978 
L 1159 0 
L 581 0 
L 581 4863 
L 1159 4863 
L 1159 2956 
Q 1366 3272 1645 3428 
Q 1925 3584 2291 3584 
Q 2894 3584 3203 3211 
Q 3513 2838 3513 2113 
z
" transform="scale(0.015625)"/>
      <path id="DejaVuSans-65" d="M 3597 1894 
L 3597 1613 
L 953 1613 
Q 991 1019 1311 708 
Q 1631 397 2203 397 
Q 2534 397 2845 478 
Q 3156 559 3463 722 
L 3463 178 
Q 3153 47 2828 -22 
Q 2503 -91 2169 -91 
Q 1331 -91 842 396 
Q 353 884 353 1716 
Q 353 2575 817 3079 
Q 1281 3584 2069 3584 
Q 2775 3584 3186 3129 
Q 3597 2675 3597 1894 
z
M 3022 2063 
Q 3016 2534 2758 2815 
Q 2500 3097 2075 3097 
Q 1594 3097 1305 2825 
Q 1016 2553 972 2059 
L 3022 2063 
z
" transform="scale(0.015625)"/>
      <path id="DejaVuSans-50" d="M 1259 4147 
L 1259 2394 
L 2053 2394 
Q 2494 2394 2734 2622 
Q 2975 2850 2975 3272 
Q 2975 3691 2734 3919 
Q 2494 4147 2053 4147 
L 1259 4147 
z
M 628 4666 
L 2053 4666 
Q 2838 4666 3239 4311 
Q 3641 3956 3641 3272 
Q 3641 2581 3239 2228 
Q 2838 1875 2053 1875 
L 1259 1875 
L 1259 0 
L 628 0 
L 628 4666 
z
" transform="scale(0.015625)"/>
      <path id="DejaVuSans-79" d="M 2059 -325 
Q 1816 -950 1584 -1140 
Q 1353 -1331 966 -1331 
L 506 -1331 
L 506 -850 
L 844 -850 
Q 1081 -850 1212 -737 
Q 1344 -625 1503 -206 
L 1606 56 
L 191 3500 
L 800 3500 
L 1894 763 
L 2988 3500 
L 3597 3500 
L 2059 -325 
z
" transform="scale(0.015625)"/>
      <path id="DejaVuSans-70" d="M 1159 525 
L 1159 -1331 
L 581 -1331 
L 581 3500 
L 1159 3500 
L 1159 2969 
Q 1341 3281 1617 3432 
Q 1894 3584 2278 3584 
Q 2916 3584 3314 3078 
Q 3713 2572 3713 1747 
Q 3713 922 3314 415 
Q 2916 -91 2278 -91 
Q 1894 -91 1617 61 
Q 1341 213 1159 525 
z
M 3116 1747 
Q 3116 2381 2855 2742 
Q 2594 3103 2138 3103 
Q 1681 3103 1420 2742 
Q 1159 2381 1159 1747 
Q 1159 1113 1420 752 
Q 1681 391 2138 391 
Q 2594 391 2855 752 
Q 3116 1113 3116 1747 
z
" transform="scale(0.015625)"/>
      <path id="DejaVuSans-63" d="M 3122 3366 
L 3122 2828 
Q 2878 2963 2633 3030 
Q 2388 3097 2138 3097 
Q 1578 3097 1268 2742 
Q 959 2388 959 1747 
Q 959 1106 1268 751 
Q 1578 397 2138 397 
Q 2388 397 2633 464 
Q 2878 531 3122 666 
L 3122 134 
Q 2881 22 2623 -34 
Q 2366 -91 2075 -91 
Q 1284 -91 818 406 
Q 353 903 353 1747 
Q 353 2603 823 3093 
Q 1294 3584 2113 3584 
Q 2378 3584 2631 3529 
Q 2884 3475 3122 3366 
z
" transform="scale(0.015625)"/>
      <path id="DejaVuSans-45" d="M 628 4666 
L 3578 4666 
L 3578 4134 
L 1259 4134 
L 1259 2753 
L 3481 2753 
L 3481 2222 
L 1259 2222 
L 1259 531 
L 3634 531 
L 3634 0 
L 628 0 
L 628 4666 
z
" transform="scale(0.015625)"/>
      <path id="DejaVuSans-53" d="M 3425 4513 
L 3425 3897 
Q 3066 4069 2747 4153 
Q 2428 4238 2131 4238 
Q 1616 4238 1336 4038 
Q 1056 3838 1056 3469 
Q 1056 3159 1242 3001 
Q 1428 2844 1947 2747 
L 2328 2669 
Q 3034 2534 3370 2195 
Q 3706 1856 3706 1288 
Q 3706 609 3251 259 
Q 2797 -91 1919 -91 
Q 1588 -91 1214 -16 
Q 841 59 441 206 
L 441 856 
Q 825 641 1194 531 
Q 1563 422 1919 422 
Q 2459 422 2753 634 
Q 3047 847 3047 1241 
Q 3047 1584 2836 1778 
Q 2625 1972 2144 2069 
L 1759 2144 
Q 1053 2284 737 2584 
Q 422 2884 422 3419 
Q 422 4038 858 4394 
Q 1294 4750 2059 4750 
Q 2388 4750 2728 4690 
Q 3069 4631 3425 4513 
z
" transform="scale(0.015625)"/>
      <path id="DejaVuSans-61" d="M 2194 1759 
Q 1497 1759 1228 1600 
Q 959 1441 959 1056 
Q 959 750 1161 570 
Q 1363 391 1709 391 
Q 2188 391 2477 730 
Q 2766 1069 2766 1631 
L 2766 1759 
L 2194 1759 
z
M 3341 1997 
L 3341 0 
L 2766 0 
L 2766 531 
Q 2569 213 2275 61 
Q 1981 -91 1556 -91 
Q 1019 -91 701 211 
Q 384 513 384 1019 
Q 384 1609 779 1909 
Q 1175 2209 1959 2209 
L 2766 2209 
L 2766 2266 
Q 2766 2663 2505 2880 
Q 2244 3097 1772 3097 
Q 1472 3097 1187 3025 
Q 903 2953 641 2809 
L 641 3341 
Q 956 3463 1253 3523 
Q 1550 3584 1831 3584 
Q 2591 3584 2966 3190 
Q 3341 2797 3341 1997 
z
" transform="scale(0.015625)"/>
     </defs>
     <use xlink:href="#DejaVuSans-54"/>
     <use xlink:href="#DejaVuSans-4f" x="61.083984"/>
     <use xlink:href="#DejaVuSans-56" x="138.044922"/>
     <use xlink:href="#DejaVuSans-20" x="206.453125"/>
     <use xlink:href="#DejaVuSans-73" x="238.240234"/>
     <use xlink:href="#DejaVuSans-6f" x="290.339844"/>
     <use xlink:href="#DejaVuSans-6c" x="351.521484"/>
     <use xlink:href="#DejaVuSans-75" x="379.304688"/>
     <use xlink:href="#DejaVuSans-74" x="442.683594"/>
     <use xlink:href="#DejaVuSans-69" x="481.892578"/>
     <use xlink:href="#DejaVuSans-6f" x="509.675781"/>
     <use xlink:href="#DejaVuSans-6e" x="570.857422"/>
     <use xlink:href="#DejaVuSans-20" x="634.236328"/>
     <use xlink:href="#DejaVuSans-66" x="666.023438"/>
     <use xlink:href="#DejaVuSans-6f" x="701.228516"/>
     <use xlink:href="#DejaVuSans-72" x="762.410156"/>
     <use xlink:href="#DejaVuSans-20" x="803.523438"/>
     <use xlink:href="#DejaVuSans-74" x="835.310547"/>
     <use xlink:href="#DejaVuSans-68" x="874.519531"/>
     <use xlink:href="#DejaVuSans-65" x="937.898438"/>
     <use xlink:href="#DejaVuSans-20" x="999.421875"/>
     <use xlink:href="#DejaVuSans-50" x="1031.208984"/>
     <use xlink:href="#DejaVuSans-6f" x="1087.886719"/>
     <use xlink:href="#DejaVuSans-6c" x="1149.068359"/>
     <use xlink:href="#DejaVuSans-79" x="1176.851562"/>
     <use xlink:href="#DejaVuSans-74" x="1236.03125"/>
     <use xlink:href="#DejaVuSans-72" x="1275.240234"/>
     <use xlink:href="#DejaVuSans-6f" x="1314.103516"/>
     <use xlink:href="#DejaVuSans-70" x="1375.285156"/>
     <use xlink:href="#DejaVuSans-69" x="1438.761719"/>
     <use xlink:href="#DejaVuSans-63" x="1466.544922"/>
     <use xlink:href="#DejaVuSans-20" x="1521.525391"/>
     <use xlink:href="#DejaVuSans-45" x="1553.3125"/>
     <use xlink:href="#DejaVuSans-4f" x="1616.496094"/>
     <use xlink:href="#DejaVuSans-53" x="1695.207031"/>
     <use xlink:href="#DejaVuSans-20" x="1758.683594"/>
     <use xlink:href="#DejaVuSans-73" x="1790.470703"/>
     <use xlink:href="#DejaVuSans-74" x="1842.570312"/>
     <use xlink:href="#DejaVuSans-61" x="1881.779297"/>
     <use xlink:href="#DejaVuSans-72" x="1943.058594"/>
    </g>
   </g>
   <g id="legend_1">
    <g id="patch_7">
     <path d="M 281.02 111.22825 
L 407.72 111.22825 
Q 409.72 111.22825 409.72 109.22825 
L 409.72 48.472 
Q 409.72 46.472 407.72 46.472 
L 281.02 46.472 
Q 279.02 46.472 279.02 48.472 
L 279.02 109.22825 
Q 279.02 111.22825 281.02 111.22825 
z
" style="fill: #ffffff; opacity: 0.8; stroke: #cccccc; stroke-linejoin: miter"/>
    </g>
    <g id="line2d_22">
     <path d="M 283.02 56.072 
L 293.02 56.072 
L 303.02 56.072 
" style="fill: none; stroke: #1f77b4; stroke-linecap: square"/>
    </g>
    <g id="text_20">
     <!-- $p ~ [10^{36} ~ dyn \cdot cm^{-2}]$ -->
     <g transform="translate(311.02 59.572) scale(0.1 -0.1)">
      <defs>
       <path id="DejaVuSans-Oblique-70" d="M 3175 2156 
Q 3175 2616 2975 2859 
Q 2775 3103 2400 3103 
Q 2144 3103 1911 2972 
Q 1678 2841 1497 2591 
Q 1319 2344 1212 1994 
Q 1106 1644 1106 1300 
Q 1106 863 1306 627 
Q 1506 391 1875 391 
Q 2147 391 2380 519 
Q 2613 647 2778 891 
Q 2956 1147 3065 1494 
Q 3175 1841 3175 2156 
z
M 1394 2969 
Q 1625 3272 1939 3428 
Q 2253 3584 2638 3584 
Q 3175 3584 3472 3232 
Q 3769 2881 3769 2247 
Q 3769 1728 3584 1258 
Q 3400 788 3053 416 
Q 2822 169 2531 39 
Q 2241 -91 1919 -91 
Q 1547 -91 1294 64 
Q 1041 219 916 525 
L 556 -1331 
L -19 -1331 
L 922 3500 
L 1497 3500 
L 1394 2969 
z
" transform="scale(0.015625)"/>
       <path id="DejaVuSans-Oblique-64" d="M 2675 525 
Q 2444 222 2128 65 
Q 1813 -91 1428 -91 
Q 903 -91 598 267 
Q 294 625 294 1247 
Q 294 1766 478 2236 
Q 663 2706 1013 3078 
Q 1244 3325 1534 3454 
Q 1825 3584 2144 3584 
Q 2481 3584 2739 3421 
Q 2997 3259 3138 2956 
L 3513 4863 
L 4091 4863 
L 3144 0 
L 2566 0 
L 2675 525 
z
M 891 1350 
Q 891 897 1095 644 
Q 1300 391 1663 391 
Q 1931 391 2161 520 
Q 2391 650 2566 903 
Q 2750 1166 2856 1509 
Q 2963 1853 2963 2188 
Q 2963 2622 2758 2865 
Q 2553 3109 2194 3109 
Q 1922 3109 1687 2981 
Q 1453 2853 1288 2613 
Q 1106 2353 998 2009 
Q 891 1666 891 1350 
z
" transform="scale(0.015625)"/>
       <path id="DejaVuSans-Oblique-79" d="M 1588 -325 
Q 1188 -997 936 -1164 
Q 684 -1331 294 -1331 
L -159 -1331 
L -63 -850 
L 269 -850 
Q 509 -850 678 -719 
Q 847 -588 1056 -206 
L 1234 128 
L 459 3500 
L 1069 3500 
L 1650 819 
L 3256 3500 
L 3859 3500 
L 1588 -325 
z
" transform="scale(0.015625)"/>
       <path id="DejaVuSans-Oblique-6e" d="M 3566 2113 
L 3156 0 
L 2578 0 
L 2988 2091 
Q 3016 2238 3031 2350 
Q 3047 2463 3047 2528 
Q 3047 2791 2881 2937 
Q 2716 3084 2419 3084 
Q 1956 3084 1622 2776 
Q 1288 2469 1184 1941 
L 800 0 
L 225 0 
L 903 3500 
L 1478 3500 
L 1363 2950 
Q 1603 3253 1940 3418 
Q 2278 3584 2650 3584 
Q 3113 3584 3367 3334 
Q 3622 3084 3622 2631 
Q 3622 2519 3608 2391 
Q 3594 2263 3566 2113 
z
" transform="scale(0.015625)"/>
       <path id="DejaVuSans-22c5" d="M 684 2619 
L 1344 2619 
L 1344 1825 
L 684 1825 
L 684 2619 
z
" transform="scale(0.015625)"/>
       <path id="DejaVuSans-Oblique-63" d="M 3431 3366 
L 3316 2797 
Q 3109 2947 2876 3022 
Q 2644 3097 2394 3097 
Q 2119 3097 1870 3000 
Q 1622 2903 1453 2725 
Q 1184 2453 1037 2087 
Q 891 1722 891 1331 
Q 891 859 1127 628 
Q 1363 397 1844 397 
Q 2081 397 2348 469 
Q 2616 541 2906 684 
L 2797 116 
Q 2547 13 2283 -39 
Q 2019 -91 1741 -91 
Q 1044 -91 669 257 
Q 294 606 294 1253 
Q 294 1797 489 2255 
Q 684 2713 1069 3078 
Q 1331 3328 1684 3456 
Q 2038 3584 2456 3584 
Q 2700 3584 2940 3529 
Q 3181 3475 3431 3366 
z
" transform="scale(0.015625)"/>
      </defs>
      <use xlink:href="#DejaVuSans-Oblique-70" transform="translate(0 0.765625)"/>
      <use xlink:href="#DejaVuSans-5b" transform="translate(95.946941 0.765625)"/>
      <use xlink:href="#DejaVuSans-31" transform="translate(134.960613 0.765625)"/>
      <use xlink:href="#DejaVuSans-30" transform="translate(198.58366 0.765625)"/>
      <use xlink:href="#DejaVuSans-33" transform="translate(263.163738 39.046875) scale(0.7)"/>
      <use xlink:href="#DejaVuSans-36" transform="translate(307.699871 39.046875) scale(0.7)"/>
      <use xlink:href="#DejaVuSans-Oblique-64" transform="translate(387.440757 0.765625)"/>
      <use xlink:href="#DejaVuSans-Oblique-79" transform="translate(450.917319 0.765625)"/>
      <use xlink:href="#DejaVuSans-Oblique-6e" transform="translate(510.097007 0.765625)"/>
      <use xlink:href="#DejaVuSans-22c5" transform="translate(592.958335 0.765625)"/>
      <use xlink:href="#DejaVuSans-Oblique-63" transform="translate(644.227866 0.765625)"/>
      <use xlink:href="#DejaVuSans-Oblique-6d" transform="translate(699.208335 0.765625)"/>
      <use xlink:href="#DejaVuSans-2212" transform="translate(801.27034 39.046875) scale(0.7)"/>
      <use xlink:href="#DejaVuSans-32" transform="translate(859.922684 39.046875) scale(0.7)"/>
      <use xlink:href="#DejaVuSans-5d" transform="translate(907.193192 0.765625)"/>
     </g>
    </g>
    <g id="line2d_23">
     <path d="M 283.02 70.770438 
L 293.02 70.770438 
L 303.02 70.770438 
" style="fill: none; stroke: #ff7f0e; stroke-linecap: square"/>
    </g>
    <g id="text_21">
     <!-- $m ~ [M_{\odot}]$ -->
     <g transform="translate(311.02 74.270438) scale(0.1 -0.1)">
      <defs>
       <path id="DejaVuSans-Oblique-4d" d="M 1081 4666 
L 2028 4666 
L 2572 1522 
L 4378 4666 
L 5350 4666 
L 4441 0 
L 3828 0 
L 4622 4091 
L 2791 897 
L 2175 897 
L 1581 4103 
L 788 0 
L 172 0 
L 1081 4666 
z
" transform="scale(0.015625)"/>
       <path id="DejaVuSans-2299" d="M 2350 2403 
L 3013 2403 
L 3013 1609 
L 2350 1609 
L 2350 2403 
z
M 3306 3522 
Q 3016 3644 2681 3644 
Q 2347 3644 2056 3522 
Q 1769 3400 1531 3163 
Q 1291 2922 1172 2634 
Q 1053 2347 1053 2006 
Q 1053 1675 1172 1387 
Q 1291 1100 1531 859 
Q 1769 622 2056 500 
Q 2347 378 2681 378 
Q 3016 378 3306 500 
Q 3594 622 3831 859 
Q 4072 1100 4190 1387 
Q 4309 1675 4309 2006 
Q 4309 2347 4190 2634 
Q 4072 2922 3831 3163 
Q 3594 3400 3306 3522 
z
M 1878 3956 
Q 2250 4113 2681 4113 
Q 3113 4113 3484 3956 
Q 3856 3800 4163 3494 
Q 4472 3184 4625 2813 
Q 4778 2444 4778 2006 
Q 4778 1578 4625 1206 
Q 4472 838 4163 528 
Q 3856 222 3484 65 
Q 3113 -91 2681 -91 
Q 2250 -91 1878 65 
Q 1506 222 1200 528 
Q 891 838 738 1206 
Q 584 1578 584 2006 
Q 584 2444 738 2813 
Q 891 3184 1200 3494 
Q 1506 3800 1878 3956 
z
" transform="scale(0.015625)"/>
      </defs>
      <use xlink:href="#DejaVuSans-Oblique-6d" transform="translate(0 0.015625)"/>
      <use xlink:href="#DejaVuSans-5b" transform="translate(129.882488 0.015625)"/>
      <use xlink:href="#DejaVuSans-Oblique-4d" transform="translate(168.89616 0.015625)"/>
      <use xlink:href="#DejaVuSans-2299" transform="translate(255.175457 -16.390625) scale(0.7)"/>
      <use xlink:href="#DejaVuSans-5d" transform="translate(316.562175 0.015625)"/>
     </g>
    </g>
    <g id="line2d_24">
     <path d="M 283.02 85.448563 
L 293.02 85.448563 
L 303.02 85.448563 
" style="fill: none; stroke: #2ca02c; stroke-linecap: square"/>
    </g>
    <g id="text_22">
     <!-- $\nu ~ [dimensionless]$ -->
     <g transform="translate(311.02 88.948563) scale(0.1 -0.1)">
      <defs>
       <path id="DejaVuSans-Oblique-3bd" d="M 959 0 
L 572 3500 
L 1191 3500 
L 1522 563 
Q 1972 950 2391 1488 
Q 2706 1891 2788 2241 
Q 2825 2406 2809 2719 
Q 2794 3091 2544 3500 
L 3125 3500 
L 3125 3500 
Q 3288 3222 3353 2834 
Q 3416 2478 3369 2234 
Q 3250 1622 2719 1075 
Q 2025 363 1572 0 
L 959 0 
z
" transform="scale(0.015625)"/>
       <path id="DejaVuSans-Oblique-69" d="M 1172 4863 
L 1747 4863 
L 1606 4134 
L 1031 4134 
L 1172 4863 
z
M 909 3500 
L 1484 3500 
L 800 0 
L 225 0 
L 909 3500 
z
" transform="scale(0.015625)"/>
       <path id="DejaVuSans-Oblique-65" d="M 3078 2063 
Q 3088 2113 3092 2166 
Q 3097 2219 3097 2272 
Q 3097 2653 2873 2875 
Q 2650 3097 2266 3097 
Q 1838 3097 1509 2826 
Q 1181 2556 1013 2059 
L 3078 2063 
z
M 3578 1613 
L 903 1613 
Q 884 1494 878 1425 
Q 872 1356 872 1306 
Q 872 872 1139 634 
Q 1406 397 1894 397 
Q 2269 397 2603 481 
Q 2938 566 3225 728 
L 3116 159 
Q 2806 34 2476 -28 
Q 2147 -91 1806 -91 
Q 1078 -91 686 257 
Q 294 606 294 1247 
Q 294 1794 489 2264 
Q 684 2734 1063 3103 
Q 1306 3334 1642 3459 
Q 1978 3584 2356 3584 
Q 2950 3584 3301 3228 
Q 3653 2872 3653 2272 
Q 3653 2128 3634 1964 
Q 3616 1800 3578 1613 
z
" transform="scale(0.015625)"/>
       <path id="DejaVuSans-Oblique-73" d="M 3200 3397 
L 3091 2853 
Q 2863 2978 2609 3040 
Q 2356 3103 2088 3103 
Q 1634 3103 1373 2948 
Q 1113 2794 1113 2528 
Q 1113 2219 1719 2053 
Q 1766 2041 1788 2034 
L 1972 1978 
Q 2547 1819 2739 1644 
Q 2931 1469 2931 1166 
Q 2931 609 2489 259 
Q 2047 -91 1331 -91 
Q 1053 -91 747 -37 
Q 441 16 72 128 
L 184 722 
Q 500 559 806 475 
Q 1113 391 1394 391 
Q 1816 391 2080 572 
Q 2344 753 2344 1031 
Q 2344 1331 1650 1516 
L 1591 1531 
L 1394 1581 
Q 956 1697 753 1886 
Q 550 2075 550 2369 
Q 550 2928 970 3256 
Q 1391 3584 2113 3584 
Q 2397 3584 2667 3537 
Q 2938 3491 3200 3397 
z
" transform="scale(0.015625)"/>
       <path id="DejaVuSans-Oblique-6f" d="M 1625 -91 
Q 1009 -91 651 289 
Q 294 669 294 1325 
Q 294 1706 417 2101 
Q 541 2497 738 2766 
Q 1047 3184 1428 3384 
Q 1809 3584 2291 3584 
Q 2888 3584 3255 3212 
Q 3622 2841 3622 2241 
Q 3622 1825 3500 1412 
Q 3378 1000 3181 728 
Q 2875 309 2494 109 
Q 2113 -91 1625 -91 
z
M 891 1344 
Q 891 869 1089 633 
Q 1288 397 1691 397 
Q 2269 397 2648 901 
Q 3028 1406 3028 2181 
Q 3028 2634 2825 2865 
Q 2622 3097 2228 3097 
Q 1903 3097 1650 2945 
Q 1397 2794 1197 2484 
Q 1050 2253 970 1956 
Q 891 1659 891 1344 
z
" transform="scale(0.015625)"/>
       <path id="DejaVuSans-Oblique-6c" d="M 1172 4863 
L 1747 4863 
L 800 0 
L 225 0 
L 1172 4863 
z
" transform="scale(0.015625)"/>
      </defs>
      <use xlink:href="#DejaVuSans-Oblique-3bd" transform="translate(0 0.015625)"/>
      <use xlink:href="#DejaVuSans-5b" transform="translate(88.329753 0.015625)"/>
      <use xlink:href="#DejaVuSans-Oblique-64" transform="translate(127.343425 0.015625)"/>
      <use xlink:href="#DejaVuSans-Oblique-69" transform="translate(190.819988 0.015625)"/>
      <use xlink:href="#DejaVuSans-Oblique-6d" transform="translate(218.603191 0.015625)"/>
      <use xlink:href="#DejaVuSans-Oblique-65" transform="translate(316.0153 0.015625)"/>
      <use xlink:href="#DejaVuSans-Oblique-6e" transform="translate(377.538738 0.015625)"/>
      <use xlink:href="#DejaVuSans-Oblique-73" transform="translate(440.917644 0.015625)"/>
      <use xlink:href="#DejaVuSans-Oblique-69" transform="translate(493.017253 0.015625)"/>
      <use xlink:href="#DejaVuSans-Oblique-6f" transform="translate(520.800457 0.015625)"/>
      <use xlink:href="#DejaVuSans-Oblique-6e" transform="translate(581.982097 0.015625)"/>
      <use xlink:href="#DejaVuSans-Oblique-6c" transform="translate(645.361003 0.015625)"/>
      <use xlink:href="#DejaVuSans-Oblique-65" transform="translate(673.144207 0.015625)"/>
      <use xlink:href="#DejaVuSans-Oblique-73" transform="translate(734.667644 0.015625)"/>
      <use xlink:href="#DejaVuSans-Oblique-73" transform="translate(786.767253 0.015625)"/>
      <use xlink:href="#DejaVuSans-5d" transform="translate(838.866863 0.015625)"/>
     </g>
    </g>
    <g id="line2d_25">
     <path d="M 283.02 101.62825 
L 293.02 101.62825 
L 303.02 101.62825 
" style="fill: none; stroke: #d62728; stroke-linecap: square"/>
    </g>
    <g id="text_23">
     <!-- $\rho ~ [10^{15} ~ g \cdot cm^{-3}]$ -->
     <g transform="translate(311.02 105.12825) scale(0.1 -0.1)">
      <defs>
       <path id="DejaVuSans-Oblique-3c1" d="M 1203 2875 
Q 1453 3194 1981 3475 
Q 2188 3584 2756 3584 
Q 3394 3584 3694 3078 
Q 3994 2572 3834 1747 
Q 3672 922 3175 415 
Q 2678 -91 2041 -91 
Q 1656 -91 1409 63 
Q 1163 213 1044 525 
L 681 -1331 
L 103 -1331 
L 697 1716 
Q 838 2438 1203 2875 
z
M 3238 1747 
Q 3359 2381 3169 2744 
Q 2978 3103 2522 3103 
Q 2066 3103 1734 2744 
Q 1403 2381 1281 1747 
Q 1156 1113 1347 750 
Q 1538 391 1994 391 
Q 2450 391 2781 750 
Q 3113 1113 3238 1747 
z
" transform="scale(0.015625)"/>
       <path id="DejaVuSans-Oblique-67" d="M 3816 3500 
L 3219 434 
Q 3047 -456 2561 -893 
Q 2075 -1331 1253 -1331 
Q 950 -1331 690 -1286 
Q 431 -1241 206 -1147 
L 313 -588 
Q 525 -725 762 -790 
Q 1000 -856 1269 -856 
Q 1816 -856 2167 -557 
Q 2519 -259 2631 300 
L 2681 563 
Q 2441 288 2122 144 
Q 1803 0 1434 0 
Q 903 0 598 351 
Q 294 703 294 1319 
Q 294 1803 478 2267 
Q 663 2731 997 3091 
Q 1219 3328 1514 3456 
Q 1809 3584 2131 3584 
Q 2484 3584 2746 3420 
Q 3009 3256 3138 2956 
L 3238 3500 
L 3816 3500 
z
M 2950 2216 
Q 2950 2641 2750 2872 
Q 2550 3103 2181 3103 
Q 1953 3103 1747 3012 
Q 1541 2922 1394 2759 
Q 1156 2491 1023 2127 
Q 891 1763 891 1375 
Q 891 944 1092 712 
Q 1294 481 1672 481 
Q 2219 481 2584 976 
Q 2950 1472 2950 2216 
z
" transform="scale(0.015625)"/>
      </defs>
      <use xlink:href="#DejaVuSans-Oblique-3c1" transform="translate(0 0.765625)"/>
      <use xlink:href="#DejaVuSans-5b" transform="translate(95.946941 0.765625)"/>
      <use xlink:href="#DejaVuSans-31" transform="translate(134.960613 0.765625)"/>
      <use xlink:href="#DejaVuSans-30" transform="translate(198.58366 0.765625)"/>
      <use xlink:href="#DejaVuSans-31" transform="translate(263.163738 39.046875) scale(0.7)"/>
      <use xlink:href="#DejaVuSans-35" transform="translate(307.699871 39.046875) scale(0.7)"/>
      <use xlink:href="#DejaVuSans-Oblique-67" transform="translate(387.440757 0.765625)"/>
      <use xlink:href="#DejaVuSans-22c5" transform="translate(470.399741 0.765625)"/>
      <use xlink:href="#DejaVuSans-Oblique-63" transform="translate(521.669272 0.765625)"/>
      <use xlink:href="#DejaVuSans-Oblique-6d" transform="translate(576.649741 0.765625)"/>
      <use xlink:href="#DejaVuSans-2212" transform="translate(678.711746 39.046875) scale(0.7)"/>
      <use xlink:href="#DejaVuSans-33" transform="translate(737.36409 39.046875) scale(0.7)"/>
      <use xlink:href="#DejaVuSans-5d" transform="translate(784.634598 0.765625)"/>
     </g>
    </g>
   </g>
  </g>
 </g>
 <defs>
  <clipPath id="p78fbd9127e">
   <rect x="57.6" y="41.472" width="357.12" height="266.112"/>
  </clipPath>
 </defs>
</svg>
