<?xml version="1.0" encoding="utf-8" standalone="no"?>
<!DOCTYPE svg PUBLIC "-//W3C//DTD SVG 1.1//EN"
  "http://www.w3.org/Graphics/SVG/1.1/DTD/svg11.dtd">
<svg xmlns:xlink="http://www.w3.org/1999/xlink" width="432pt" height="345.6pt" viewBox="0 0 432 345.6" xmlns="http://www.w3.org/2000/svg" version="1.1">
 <metadata>
  <rdf:RDF xmlns:dc="http://purl.org/dc/elements/1.1/" xmlns:cc="http://creativecommons.org/ns#" xmlns:rdf="http://www.w3.org/1999/02/22-rdf-syntax-ns#">
   <cc:Work>
    <dc:type rdf:resource="http://purl.org/dc/dcmitype/StillImage"/>
    <dc:date>2024-01-15T17:13:32.162101</dc:date>
    <dc:format>image/svg+xml</dc:format>
    <dc:creator>
     <cc:Agent>
      <dc:title>Matplotlib v3.8.2, https://matplotlib.org/</dc:title>
     </cc:Agent>
    </dc:creator>
   </cc:Work>
  </rdf:RDF>
 </metadata>
 <defs>
  <style type="text/css">*{stroke-linejoin: round; stroke-linecap: butt}</style>
 </defs>
 <g id="figure_1">
  <g id="patch_1">
   <path d="M 0 345.6 
L 432 345.6 
L 432 0 
L 0 0 
z
" style="fill: #ffffff"/>
  </g>
  <g id="patch_2">
   <path d="M 46.20024 342.59976 
L 385.79976 342.59976 
L 385.79976 3.00024 
L 46.20024 3.00024 
z
" style="fill: #ffffff"/>
  </g>
  <g id="pane3d_1">
   <g id="patch_3">
    <path d="M 368.195381 262.581014 
L 269.167123 206.424517 
L 270.221334 58.581032 
L 371.746164 100.04918 
" style="fill: #f2f2f2; opacity: 0.5; stroke: #f2f2f2; stroke-linejoin: miter"/>
   </g>
  </g>
  <g id="pane3d_2">
   <g id="patch_4">
    <path d="M 80.881908 231.209406 
L 269.167123 206.424517 
L 270.221334 58.581032 
L 77.705076 76.859631 
" style="fill: #e6e6e6; opacity: 0.5; stroke: #e6e6e6; stroke-linejoin: miter"/>
   </g>
  </g>
  <g id="pane3d_3">
   <g id="patch_5">
    <path d="M 164.072998 293.046374 
L 368.195381 262.581014 
L 269.167123 206.424517 
L 80.881908 231.209406 
" style="fill: #ececec; opacity: 0.5; stroke: #ececec; stroke-linejoin: miter"/>
   </g>
  </g>
  <g id="grid3d_1">
   <g id="Line3DCollection_1">
    <path d="M 168.363142 292.406068 
L 84.820002 230.691016 
L 81.735669 76.476943 
" style="fill: none; stroke: #b0b0b0; stroke-width: 0.8"/>
    <path d="M 202.656035 287.287838 
L 116.328316 226.543425 
L 113.977893 73.415681 
" style="fill: none; stroke: #b0b0b0; stroke-width: 0.8"/>
    <path d="M 236.383814 282.253951 
L 147.368645 222.457437 
L 145.730518 70.400905 
" style="fill: none; stroke: #b0b0b0; stroke-width: 0.8"/>
    <path d="M 269.560334 277.302341 
L 177.951339 218.431689 
L 177.004612 67.431563 
" style="fill: none; stroke: #b0b0b0; stroke-width: 0.8"/>
    <path d="M 302.199 272.431005 
L 208.086444 214.46486 
L 207.81091 64.506636 
" style="fill: none; stroke: #b0b0b0; stroke-width: 0.8"/>
    <path d="M 334.312787 267.638007 
L 237.783714 210.555666 
L 238.159832 61.625135 
" style="fill: none; stroke: #b0b0b0; stroke-width: 0.8"/>
   </g>
  </g>
  <g id="grid3d_2">
   <g id="Line3DCollection_2">
    <path d="M 369.500256 99.131832 
L 366.009627 261.341527 
L 162.227864 291.674863 
" style="fill: none; stroke: #b0b0b0; stroke-width: 0.8"/>
    <path d="M 348.424276 90.523279 
L 345.487302 249.70382 
L 144.923421 278.812256 
" style="fill: none; stroke: #b0b0b0; stroke-width: 0.8"/>
    <path d="M 328.189441 82.258294 
L 325.765576 238.520112 
L 128.327614 266.476387 
" style="fill: none; stroke: #b0b0b0; stroke-width: 0.8"/>
    <path d="M 308.746381 74.316713 
L 306.798496 227.764346 
L 112.397786 254.635549 
" style="fill: none; stroke: #b0b0b0; stroke-width: 0.8"/>
    <path d="M 290.049516 66.679918 
L 288.543562 217.41242 
L 97.09464 243.26053 
" style="fill: none; stroke: #b0b0b0; stroke-width: 0.8"/>
    <path d="M 272.056698 59.330692 
L 270.961404 207.44201 
L 82.381906 232.324373 
" style="fill: none; stroke: #b0b0b0; stroke-width: 0.8"/>
   </g>
  </g>
  <g id="grid3d_3">
   <g id="Line3DCollection_3">
    <path d="M 80.819756 228.189703 
L 269.187768 203.529222 
L 368.264761 259.405246 
" style="fill: none; stroke: #b0b0b0; stroke-width: 0.8"/>
    <path d="M 80.452046 210.324102 
L 269.309895 186.402021 
L 368.675309 240.613036 
" style="fill: none; stroke: #b0b0b0; stroke-width: 0.8"/>
    <path d="M 80.082396 192.36425 
L 269.432637 169.188522 
L 369.088146 221.716049 
" style="fill: none; stroke: #b0b0b0; stroke-width: 0.8"/>
    <path d="M 79.71079 174.309399 
L 269.556 151.888072 
L 369.503291 202.713404 
" style="fill: none; stroke: #b0b0b0; stroke-width: 0.8"/>
    <path d="M 79.337214 156.158794 
L 269.679987 134.50001 
L 369.920763 183.604213 
" style="fill: none; stroke: #b0b0b0; stroke-width: 0.8"/>
    <path d="M 78.961651 137.911671 
L 269.804603 117.02367 
L 370.340583 164.387579 
" style="fill: none; stroke: #b0b0b0; stroke-width: 0.8"/>
    <path d="M 78.584085 119.567257 
L 269.929854 99.458376 
L 370.76277 145.062591 
" style="fill: none; stroke: #b0b0b0; stroke-width: 0.8"/>
    <path d="M 78.204502 101.124773 
L 270.055744 81.803449 
L 371.187345 125.62833 
" style="fill: none; stroke: #b0b0b0; stroke-width: 0.8"/>
    <path d="M 77.822883 82.583431 
L 270.182278 64.0582 
L 371.614326 106.083869 
" style="fill: none; stroke: #b0b0b0; stroke-width: 0.8"/>
   </g>
  </g>
  <g id="axis3d_1">
   <g id="line2d_1">
    <path d="M 368.195381 262.581014 
L 164.072998 293.046374 
" style="fill: none; stroke: #000000; stroke-width: 0.8; stroke-linecap: square"/>
   </g>
   <g id="xtick_1">
    <g id="line2d_2">
     <path d="M 167.621051 291.85787 
L 169.851295 293.505398 
" style="fill: none; stroke: #000000; stroke-width: 0.8; stroke-linecap: square"/>
    </g>
    <g id="text_1">
     <!-- 0 -->
     <g transform="translate(171.336893 315.346568) scale(0.1 -0.1)">
      <defs>
       <path id="DejaVuSans-30" d="M 2034 4250 
Q 1547 4250 1301 3770 
Q 1056 3291 1056 2328 
Q 1056 1369 1301 889 
Q 1547 409 2034 409 
Q 2525 409 2770 889 
Q 3016 1369 3016 2328 
Q 3016 3291 2770 3770 
Q 2525 4250 2034 4250 
z
M 2034 4750 
Q 2819 4750 3233 4129 
Q 3647 3509 3647 2328 
Q 3647 1150 3233 529 
Q 2819 -91 2034 -91 
Q 1250 -91 836 529 
Q 422 1150 422 2328 
Q 422 3509 836 4129 
Q 1250 4750 2034 4750 
z
" transform="scale(0.015625)"/>
      </defs>
      <use xlink:href="#DejaVuSans-30"/>
     </g>
    </g>
   </g>
   <g id="xtick_2">
    <g id="line2d_3">
     <path d="M 201.889842 286.748707 
L 204.192488 288.368962 
" style="fill: none; stroke: #000000; stroke-width: 0.8; stroke-linecap: square"/>
    </g>
    <g id="text_2">
     <!-- 50 -->
     <g transform="translate(202.589769 310.071406) scale(0.1 -0.1)">
      <defs>
       <path id="DejaVuSans-35" d="M 691 4666 
L 3169 4666 
L 3169 4134 
L 1269 4134 
L 1269 2991 
Q 1406 3038 1543 3061 
Q 1681 3084 1819 3084 
Q 2600 3084 3056 2656 
Q 3513 2228 3513 1497 
Q 3513 744 3044 326 
Q 2575 -91 1722 -91 
Q 1428 -91 1123 -41 
Q 819 9 494 109 
L 494 744 
Q 775 591 1075 516 
Q 1375 441 1709 441 
Q 2250 441 2565 725 
Q 2881 1009 2881 1497 
Q 2881 1984 2565 2268 
Q 2250 2553 1709 2553 
Q 1456 2553 1204 2497 
Q 953 2441 691 2322 
L 691 4666 
z
" transform="scale(0.015625)"/>
      </defs>
      <use xlink:href="#DejaVuSans-35"/>
      <use xlink:href="#DejaVuSans-30" x="63.623047"/>
     </g>
    </g>
   </g>
   <g id="xtick_3">
    <g id="line2d_4">
     <path d="M 235.594411 281.723665 
L 237.966777 283.317317 
" style="fill: none; stroke: #000000; stroke-width: 0.8; stroke-linecap: square"/>
    </g>
    <g id="text_3">
     <!-- 100 -->
     <g transform="translate(233.272042 304.883659) scale(0.1 -0.1)">
      <defs>
       <path id="DejaVuSans-31" d="M 794 531 
L 1825 531 
L 1825 4091 
L 703 3866 
L 703 4441 
L 1819 4666 
L 2450 4666 
L 2450 531 
L 3481 531 
L 3481 0 
L 794 0 
L 794 531 
z
" transform="scale(0.015625)"/>
      </defs>
      <use xlink:href="#DejaVuSans-31"/>
      <use xlink:href="#DejaVuSans-30" x="63.623047"/>
      <use xlink:href="#DejaVuSans-30" x="127.246094"/>
     </g>
    </g>
   </g>
   <g id="xtick_4">
    <g id="line2d_5">
     <path d="M 268.748578 276.780682 
L 271.188086 278.348382 
" style="fill: none; stroke: #000000; stroke-width: 0.8; stroke-linecap: square"/>
    </g>
    <g id="text_4">
     <!-- 150 -->
     <g transform="translate(266.579029 299.78117) scale(0.1 -0.1)">
      <use xlink:href="#DejaVuSans-31"/>
      <use xlink:href="#DejaVuSans-35" x="63.623047"/>
      <use xlink:href="#DejaVuSans-30" x="127.246094"/>
     </g>
    </g>
   </g>
   <g id="xtick_5">
    <g id="line2d_6">
     <path d="M 301.365716 271.917765 
L 303.869885 273.460142 
" style="fill: none; stroke: #000000; stroke-width: 0.8; stroke-linecap: square"/>
    </g>
    <g id="text_5">
     <!-- 200 -->
     <g transform="translate(299.343088 294.761856) scale(0.1 -0.1)">
      <defs>
       <path id="DejaVuSans-32" d="M 1228 531 
L 3431 531 
L 3431 0 
L 469 0 
L 469 531 
Q 828 903 1448 1529 
Q 2069 2156 2228 2338 
Q 2531 2678 2651 2914 
Q 2772 3150 2772 3378 
Q 2772 3750 2511 3984 
Q 2250 4219 1831 4219 
Q 1534 4219 1204 4116 
Q 875 4013 500 3803 
L 500 4441 
Q 881 4594 1212 4672 
Q 1544 4750 1819 4750 
Q 2544 4750 2975 4387 
Q 3406 4025 3406 3419 
Q 3406 3131 3298 2873 
Q 3191 2616 2906 2266 
Q 2828 2175 2409 1742 
Q 1991 1309 1228 531 
z
" transform="scale(0.015625)"/>
      </defs>
      <use xlink:href="#DejaVuSans-32"/>
      <use xlink:href="#DejaVuSans-30" x="63.623047"/>
      <use xlink:href="#DejaVuSans-30" x="127.246094"/>
     </g>
    </g>
   </g>
   <g id="xtick_6">
    <g id="line2d_7">
     <path d="M 333.458769 267.132985 
L 336.025211 268.650647 
" style="fill: none; stroke: #000000; stroke-width: 0.8; stroke-linecap: square"/>
    </g>
    <g id="text_6">
     <!-- 250 -->
     <g transform="translate(331.577386 289.823698) scale(0.1 -0.1)">
      <use xlink:href="#DejaVuSans-32"/>
      <use xlink:href="#DejaVuSans-35" x="63.623047"/>
      <use xlink:href="#DejaVuSans-30" x="127.246094"/>
     </g>
    </g>
   </g>
   <g id="text_7">
    <!-- $a_2^{1/2} ~ [MeV]$ -->
    <g transform="translate(258.550213 317.093622) rotate(-8.488761) scale(0.1 -0.1)">
     <defs>
      <path id="DejaVuSans-Oblique-61" d="M 3438 1997 
L 3047 0 
L 2472 0 
L 2578 531 
Q 2325 219 2001 64 
Q 1678 -91 1281 -91 
Q 834 -91 548 182 
Q 263 456 263 884 
Q 263 1497 752 1853 
Q 1241 2209 2100 2209 
L 2900 2209 
L 2931 2363 
Q 2938 2388 2941 2417 
Q 2944 2447 2944 2509 
Q 2944 2788 2717 2942 
Q 2491 3097 2081 3097 
Q 1800 3097 1504 3025 
Q 1209 2953 897 2809 
L 997 3341 
Q 1322 3463 1633 3523 
Q 1944 3584 2234 3584 
Q 2853 3584 3176 3315 
Q 3500 3047 3500 2534 
Q 3500 2431 3484 2292 
Q 3469 2153 3438 1997 
z
M 2816 1759 
L 2241 1759 
Q 1534 1759 1195 1570 
Q 856 1381 856 984 
Q 856 709 1029 553 
Q 1203 397 1509 397 
Q 1978 397 2328 733 
Q 2678 1069 2791 1631 
L 2816 1759 
z
" transform="scale(0.015625)"/>
      <path id="DejaVuSans-2f" d="M 1625 4666 
L 2156 4666 
L 531 -594 
L 0 -594 
L 1625 4666 
z
" transform="scale(0.015625)"/>
      <path id="DejaVuSans-5b" d="M 550 4863 
L 1875 4863 
L 1875 4416 
L 1125 4416 
L 1125 -397 
L 1875 -397 
L 1875 -844 
L 550 -844 
L 550 4863 
z
" transform="scale(0.015625)"/>
      <path id="DejaVuSans-Oblique-4d" d="M 1081 4666 
L 2028 4666 
L 2572 1522 
L 4378 4666 
L 5350 4666 
L 4441 0 
L 3828 0 
L 4622 4091 
L 2791 897 
L 2175 897 
L 1581 4103 
L 788 0 
L 172 0 
L 1081 4666 
z
" transform="scale(0.015625)"/>
      <path id="DejaVuSans-Oblique-65" d="M 3078 2063 
Q 3088 2113 3092 2166 
Q 3097 2219 3097 2272 
Q 3097 2653 2873 2875 
Q 2650 3097 2266 3097 
Q 1838 3097 1509 2826 
Q 1181 2556 1013 2059 
L 3078 2063 
z
M 3578 1613 
L 903 1613 
Q 884 1494 878 1425 
Q 872 1356 872 1306 
Q 872 872 1139 634 
Q 1406 397 1894 397 
Q 2269 397 2603 481 
Q 2938 566 3225 728 
L 3116 159 
Q 2806 34 2476 -28 
Q 2147 -91 1806 -91 
Q 1078 -91 686 257 
Q 294 606 294 1247 
Q 294 1794 489 2264 
Q 684 2734 1063 3103 
Q 1306 3334 1642 3459 
Q 1978 3584 2356 3584 
Q 2950 3584 3301 3228 
Q 3653 2872 3653 2272 
Q 3653 2128 3634 1964 
Q 3616 1800 3578 1613 
z
" transform="scale(0.015625)"/>
      <path id="DejaVuSans-Oblique-56" d="M 1319 0 
L 500 4666 
L 1119 4666 
L 1797 653 
L 4063 4666 
L 4750 4666 
L 2053 0 
L 1319 0 
z
" transform="scale(0.015625)"/>
      <path id="DejaVuSans-5d" d="M 1947 4863 
L 1947 -844 
L 622 -844 
L 622 -397 
L 1369 -397 
L 1369 4416 
L 622 4416 
L 622 4863 
L 1947 4863 
z
" transform="scale(0.015625)"/>
     </defs>
     <use xlink:href="#DejaVuSans-Oblique-61" transform="translate(0 0.440625)"/>
     <use xlink:href="#DejaVuSans-31" transform="translate(65.929193 44.046875) scale(0.7)"/>
     <use xlink:href="#DejaVuSans-2f" transform="translate(110.465326 44.046875) scale(0.7)"/>
     <use xlink:href="#DejaVuSans-32" transform="translate(131.51181 44.046875) scale(0.7)"/>
     <use xlink:href="#DejaVuSans-32" transform="translate(61.279297 -26.903125) scale(0.7)"/>
     <use xlink:href="#DejaVuSans-5b" transform="translate(211.252696 0.440625)"/>
     <use xlink:href="#DejaVuSans-Oblique-4d" transform="translate(250.266368 0.440625)"/>
     <use xlink:href="#DejaVuSans-Oblique-65" transform="translate(336.545665 0.440625)"/>
     <use xlink:href="#DejaVuSans-Oblique-56" transform="translate(398.069102 0.440625)"/>
     <use xlink:href="#DejaVuSans-5d" transform="translate(466.477306 0.440625)"/>
    </g>
   </g>
  </g>
  <g id="axis3d_2">
   <g id="line2d_8">
    <path d="M 80.881908 231.209406 
L 164.072998 293.046374 
" style="fill: none; stroke: #000000; stroke-width: 0.8; stroke-linecap: square"/>
   </g>
   <g id="xtick_7">
    <g id="line2d_9">
     <path d="M 163.941939 291.41972 
L 158.795444 292.185786 
" style="fill: none; stroke: #000000; stroke-width: 0.8; stroke-linecap: square"/>
    </g>
    <g id="text_8">
     <!-- 0.0 -->
     <g transform="translate(140.408897 312.155249) scale(0.1 -0.1)">
      <defs>
       <path id="DejaVuSans-2e" d="M 684 794 
L 1344 794 
L 1344 0 
L 684 0 
L 684 794 
z
" transform="scale(0.015625)"/>
      </defs>
      <use xlink:href="#DejaVuSans-30"/>
      <use xlink:href="#DejaVuSans-2e" x="63.623047"/>
      <use xlink:href="#DejaVuSans-30" x="95.410156"/>
     </g>
    </g>
   </g>
   <g id="xtick_8">
    <g id="line2d_10">
     <path d="M 146.608706 278.567666 
L 141.548742 279.302034 
" style="fill: none; stroke: #000000; stroke-width: 0.8; stroke-linecap: square"/>
    </g>
    <g id="text_9">
     <!-- 0.2 -->
     <g transform="translate(123.364825 299.00059) scale(0.1 -0.1)">
      <use xlink:href="#DejaVuSans-30"/>
      <use xlink:href="#DejaVuSans-2e" x="63.623047"/>
      <use xlink:href="#DejaVuSans-32" x="95.410156"/>
     </g>
    </g>
   </g>
   <g id="xtick_9">
    <g id="line2d_11">
     <path d="M 129.985005 266.241709 
L 125.008873 266.946305 
" style="fill: none; stroke: #000000; stroke-width: 0.8; stroke-linecap: square"/>
    </g>
    <g id="text_10">
     <!-- 0.4 -->
     <g transform="translate(107.019911 286.385543) scale(0.1 -0.1)">
      <defs>
       <path id="DejaVuSans-34" d="M 2419 4116 
L 825 1625 
L 2419 1625 
L 2419 4116 
z
M 2253 4666 
L 3047 4666 
L 3047 1625 
L 3713 1625 
L 3713 1100 
L 3047 1100 
L 3047 0 
L 2419 0 
L 2419 1100 
L 313 1100 
L 313 1709 
L 2253 4666 
z
" transform="scale(0.015625)"/>
      </defs>
      <use xlink:href="#DejaVuSans-30"/>
      <use xlink:href="#DejaVuSans-2e" x="63.623047"/>
      <use xlink:href="#DejaVuSans-34" x="95.410156"/>
     </g>
    </g>
   </g>
   <g id="xtick_10">
    <g id="line2d_12">
     <path d="M 114.028143 254.410192 
L 109.133257 255.086792 
" style="fill: none; stroke: #000000; stroke-width: 0.8; stroke-linecap: square"/>
    </g>
    <g id="text_11">
     <!-- 0.6 -->
     <g transform="translate(91.332002 274.277573) scale(0.1 -0.1)">
      <defs>
       <path id="DejaVuSans-36" d="M 2113 2584 
Q 1688 2584 1439 2293 
Q 1191 2003 1191 1497 
Q 1191 994 1439 701 
Q 1688 409 2113 409 
Q 2538 409 2786 701 
Q 3034 994 3034 1497 
Q 3034 2003 2786 2293 
Q 2538 2584 2113 2584 
z
M 3366 4563 
L 3366 3988 
Q 3128 4100 2886 4159 
Q 2644 4219 2406 4219 
Q 1781 4219 1451 3797 
Q 1122 3375 1075 2522 
Q 1259 2794 1537 2939 
Q 1816 3084 2150 3084 
Q 2853 3084 3261 2657 
Q 3669 2231 3669 1497 
Q 3669 778 3244 343 
Q 2819 -91 2113 -91 
Q 1303 -91 875 529 
Q 447 1150 447 2328 
Q 447 3434 972 4092 
Q 1497 4750 2381 4750 
Q 2619 4750 2861 4703 
Q 3103 4656 3366 4563 
z
" transform="scale(0.015625)"/>
      </defs>
      <use xlink:href="#DejaVuSans-30"/>
      <use xlink:href="#DejaVuSans-2e" x="63.623047"/>
      <use xlink:href="#DejaVuSans-36" x="95.410156"/>
     </g>
    </g>
   </g>
   <g id="xtick_11">
    <g id="line2d_13">
     <path d="M 98.698785 243.04395 
L 93.882666 243.694189 
" style="fill: none; stroke: #000000; stroke-width: 0.8; stroke-linecap: square"/>
    </g>
    <g id="text_12">
     <!-- 0.8 -->
     <g transform="translate(76.262262 262.64671) scale(0.1 -0.1)">
      <defs>
       <path id="DejaVuSans-38" d="M 2034 2216 
Q 1584 2216 1326 1975 
Q 1069 1734 1069 1313 
Q 1069 891 1326 650 
Q 1584 409 2034 409 
Q 2484 409 2743 651 
Q 3003 894 3003 1313 
Q 3003 1734 2745 1975 
Q 2488 2216 2034 2216 
z
M 1403 2484 
Q 997 2584 770 2862 
Q 544 3141 544 3541 
Q 544 4100 942 4425 
Q 1341 4750 2034 4750 
Q 2731 4750 3128 4425 
Q 3525 4100 3525 3541 
Q 3525 3141 3298 2862 
Q 3072 2584 2669 2484 
Q 3125 2378 3379 2068 
Q 3634 1759 3634 1313 
Q 3634 634 3220 271 
Q 2806 -91 2034 -91 
Q 1263 -91 848 271 
Q 434 634 434 1313 
Q 434 1759 690 2068 
Q 947 2378 1403 2484 
z
M 1172 3481 
Q 1172 3119 1398 2916 
Q 1625 2713 2034 2713 
Q 2441 2713 2670 2916 
Q 2900 3119 2900 3481 
Q 2900 3844 2670 4047 
Q 2441 4250 2034 4250 
Q 1625 4250 1398 4047 
Q 1172 3844 1172 3481 
z
" transform="scale(0.015625)"/>
      </defs>
      <use xlink:href="#DejaVuSans-30"/>
      <use xlink:href="#DejaVuSans-2e" x="63.623047"/>
      <use xlink:href="#DejaVuSans-38" x="95.410156"/>
     </g>
    </g>
   </g>
   <g id="xtick_12">
    <g id="line2d_14">
     <path d="M 83.960631 232.116066 
L 79.220903 232.741456 
" style="fill: none; stroke: #000000; stroke-width: 0.8; stroke-linecap: square"/>
    </g>
    <g id="text_13">
     <!-- 1.0 -->
     <g transform="translate(61.774861 251.465296) scale(0.1 -0.1)">
      <use xlink:href="#DejaVuSans-31"/>
      <use xlink:href="#DejaVuSans-2e" x="63.623047"/>
      <use xlink:href="#DejaVuSans-30" x="95.410156"/>
     </g>
    </g>
   </g>
   <g id="text_14">
    <!-- $a_4 ~ [dimensionless]$ -->
    <g transform="translate(52.449611 261.461971) rotate(-323.376121) scale(0.1 -0.1)">
     <defs>
      <path id="DejaVuSans-Oblique-64" d="M 2675 525 
Q 2444 222 2128 65 
Q 1813 -91 1428 -91 
Q 903 -91 598 267 
Q 294 625 294 1247 
Q 294 1766 478 2236 
Q 663 2706 1013 3078 
Q 1244 3325 1534 3454 
Q 1825 3584 2144 3584 
Q 2481 3584 2739 3421 
Q 2997 3259 3138 2956 
L 3513 4863 
L 4091 4863 
L 3144 0 
L 2566 0 
L 2675 525 
z
M 891 1350 
Q 891 897 1095 644 
Q 1300 391 1663 391 
Q 1931 391 2161 520 
Q 2391 650 2566 903 
Q 2750 1166 2856 1509 
Q 2963 1853 2963 2188 
Q 2963 2622 2758 2865 
Q 2553 3109 2194 3109 
Q 1922 3109 1687 2981 
Q 1453 2853 1288 2613 
Q 1106 2353 998 2009 
Q 891 1666 891 1350 
z
" transform="scale(0.015625)"/>
      <path id="DejaVuSans-Oblique-69" d="M 1172 4863 
L 1747 4863 
L 1606 4134 
L 1031 4134 
L 1172 4863 
z
M 909 3500 
L 1484 3500 
L 800 0 
L 225 0 
L 909 3500 
z
" transform="scale(0.015625)"/>
      <path id="DejaVuSans-Oblique-6d" d="M 5747 2113 
L 5338 0 
L 4763 0 
L 5166 2094 
Q 5191 2228 5203 2325 
Q 5216 2422 5216 2491 
Q 5216 2772 5059 2928 
Q 4903 3084 4622 3084 
Q 4203 3084 3875 2770 
Q 3547 2456 3450 1953 
L 3066 0 
L 2491 0 
L 2900 2094 
Q 2925 2209 2937 2307 
Q 2950 2406 2950 2484 
Q 2950 2769 2794 2926 
Q 2638 3084 2363 3084 
Q 1938 3084 1609 2770 
Q 1281 2456 1184 1953 
L 800 0 
L 225 0 
L 909 3500 
L 1484 3500 
L 1375 2956 
Q 1609 3263 1923 3423 
Q 2238 3584 2597 3584 
Q 2978 3584 3223 3384 
Q 3469 3184 3519 2828 
Q 3781 3197 4126 3390 
Q 4472 3584 4856 3584 
Q 5306 3584 5551 3325 
Q 5797 3066 5797 2591 
Q 5797 2488 5784 2364 
Q 5772 2241 5747 2113 
z
" transform="scale(0.015625)"/>
      <path id="DejaVuSans-Oblique-6e" d="M 3566 2113 
L 3156 0 
L 2578 0 
L 2988 2091 
Q 3016 2238 3031 2350 
Q 3047 2463 3047 2528 
Q 3047 2791 2881 2937 
Q 2716 3084 2419 3084 
Q 1956 3084 1622 2776 
Q 1288 2469 1184 1941 
L 800 0 
L 225 0 
L 903 3500 
L 1478 3500 
L 1363 2950 
Q 1603 3253 1940 3418 
Q 2278 3584 2650 3584 
Q 3113 3584 3367 3334 
Q 3622 3084 3622 2631 
Q 3622 2519 3608 2391 
Q 3594 2263 3566 2113 
z
" transform="scale(0.015625)"/>
      <path id="DejaVuSans-Oblique-73" d="M 3200 3397 
L 3091 2853 
Q 2863 2978 2609 3040 
Q 2356 3103 2088 3103 
Q 1634 3103 1373 2948 
Q 1113 2794 1113 2528 
Q 1113 2219 1719 2053 
Q 1766 2041 1788 2034 
L 1972 1978 
Q 2547 1819 2739 1644 
Q 2931 1469 2931 1166 
Q 2931 609 2489 259 
Q 2047 -91 1331 -91 
Q 1053 -91 747 -37 
Q 441 16 72 128 
L 184 722 
Q 500 559 806 475 
Q 1113 391 1394 391 
Q 1816 391 2080 572 
Q 2344 753 2344 1031 
Q 2344 1331 1650 1516 
L 1591 1531 
L 1394 1581 
Q 956 1697 753 1886 
Q 550 2075 550 2369 
Q 550 2928 970 3256 
Q 1391 3584 2113 3584 
Q 2397 3584 2667 3537 
Q 2938 3491 3200 3397 
z
" transform="scale(0.015625)"/>
      <path id="DejaVuSans-Oblique-6f" d="M 1625 -91 
Q 1009 -91 651 289 
Q 294 669 294 1325 
Q 294 1706 417 2101 
Q 541 2497 738 2766 
Q 1047 3184 1428 3384 
Q 1809 3584 2291 3584 
Q 2888 3584 3255 3212 
Q 3622 2841 3622 2241 
Q 3622 1825 3500 1412 
Q 3378 1000 3181 728 
Q 2875 309 2494 109 
Q 2113 -91 1625 -91 
z
M 891 1344 
Q 891 869 1089 633 
Q 1288 397 1691 397 
Q 2269 397 2648 901 
Q 3028 1406 3028 2181 
Q 3028 2634 2825 2865 
Q 2622 3097 2228 3097 
Q 1903 3097 1650 2945 
Q 1397 2794 1197 2484 
Q 1050 2253 970 1956 
Q 891 1659 891 1344 
z
" transform="scale(0.015625)"/>
      <path id="DejaVuSans-Oblique-6c" d="M 1172 4863 
L 1747 4863 
L 800 0 
L 225 0 
L 1172 4863 
z
" transform="scale(0.015625)"/>
     </defs>
     <use xlink:href="#DejaVuSans-Oblique-61" transform="translate(0 0.015625)"/>
     <use xlink:href="#DejaVuSans-34" transform="translate(61.279297 -16.390625) scale(0.7)"/>
     <use xlink:href="#DejaVuSans-5b" transform="translate(141.020183 0.015625)"/>
     <use xlink:href="#DejaVuSans-Oblique-64" transform="translate(180.033855 0.015625)"/>
     <use xlink:href="#DejaVuSans-Oblique-69" transform="translate(243.510417 0.015625)"/>
     <use xlink:href="#DejaVuSans-Oblique-6d" transform="translate(271.293621 0.015625)"/>
     <use xlink:href="#DejaVuSans-Oblique-65" transform="translate(368.70573 0.015625)"/>
     <use xlink:href="#DejaVuSans-Oblique-6e" transform="translate(430.229167 0.015625)"/>
     <use xlink:href="#DejaVuSans-Oblique-73" transform="translate(493.608074 0.015625)"/>
     <use xlink:href="#DejaVuSans-Oblique-69" transform="translate(545.707683 0.015625)"/>
     <use xlink:href="#DejaVuSans-Oblique-6f" transform="translate(573.490886 0.015625)"/>
     <use xlink:href="#DejaVuSans-Oblique-6e" transform="translate(634.672527 0.015625)"/>
     <use xlink:href="#DejaVuSans-Oblique-6c" transform="translate(698.051433 0.015625)"/>
     <use xlink:href="#DejaVuSans-Oblique-65" transform="translate(725.834636 0.015625)"/>
     <use xlink:href="#DejaVuSans-Oblique-73" transform="translate(787.358074 0.015625)"/>
     <use xlink:href="#DejaVuSans-Oblique-73" transform="translate(839.457683 0.015625)"/>
     <use xlink:href="#DejaVuSans-5d" transform="translate(891.557292 0.015625)"/>
    </g>
   </g>
  </g>
  <g id="axis3d_3">
   <g id="line2d_15">
    <path d="M 80.881908 231.209406 
L 77.705076 76.859631 
" style="fill: none; stroke: #000000; stroke-width: 0.8; stroke-linecap: square"/>
   </g>
   <g id="xtick_13">
    <g id="line2d_16">
     <path d="M 82.396601 227.983268 
L 77.662523 228.603037 
" style="fill: none; stroke: #000000; stroke-width: 0.8; stroke-linecap: square"/>
    </g>
    <g id="text_15">
     <!-- 0 -->
     <g transform="translate(60.011394 233.873897) scale(0.1 -0.1)">
      <use xlink:href="#DejaVuSans-30"/>
     </g>
    </g>
   </g>
   <g id="xtick_14">
    <g id="line2d_17">
     <path d="M 82.033176 210.123825 
L 77.286224 210.725107 
" style="fill: none; stroke: #000000; stroke-width: 0.8; stroke-linecap: square"/>
    </g>
    <g id="text_16">
     <!-- 20 -->
     <g transform="translate(56.4175 216.065412) scale(0.1 -0.1)">
      <use xlink:href="#DejaVuSans-32"/>
      <use xlink:href="#DejaVuSans-30" x="63.623047"/>
     </g>
    </g>
   </g>
   <g id="xtick_15">
    <g id="line2d_18">
     <path d="M 81.667834 192.170198 
L 76.907938 192.752791 
" style="fill: none; stroke: #000000; stroke-width: 0.8; stroke-linecap: square"/>
    </g>
    <g id="text_17">
     <!-- 40 -->
     <g transform="translate(56.002686 198.163305) scale(0.1 -0.1)">
      <use xlink:href="#DejaVuSans-34"/>
      <use xlink:href="#DejaVuSans-30" x="63.623047"/>
     </g>
    </g>
   </g>
   <g id="xtick_16">
    <g id="line2d_19">
     <path d="M 81.30056 174.121642 
L 76.52765 174.685338 
" style="fill: none; stroke: #000000; stroke-width: 0.8; stroke-linecap: square"/>
    </g>
    <g id="text_18">
     <!-- 60 -->
     <g transform="translate(55.585686 180.166835) scale(0.1 -0.1)">
      <use xlink:href="#DejaVuSans-36"/>
      <use xlink:href="#DejaVuSans-30" x="63.623047"/>
     </g>
    </g>
   </g>
   <g id="xtick_17">
    <g id="line2d_20">
     <path d="M 80.931339 155.977401 
L 76.145343 156.521992 
" style="fill: none; stroke: #000000; stroke-width: 0.8; stroke-linecap: square"/>
    </g>
    <g id="text_19">
     <!-- 80 -->
     <g transform="translate(55.166482 162.075256) scale(0.1 -0.1)">
      <use xlink:href="#DejaVuSans-38"/>
      <use xlink:href="#DejaVuSans-30" x="63.623047"/>
     </g>
    </g>
   </g>
   <g id="xtick_18">
    <g id="line2d_21">
     <path d="M 80.560155 137.736712 
L 75.761002 138.261986 
" style="fill: none; stroke: #000000; stroke-width: 0.8; stroke-linecap: square"/>
    </g>
    <g id="text_20">
     <!-- 100 -->
     <g transform="translate(51.563807 143.887811) scale(0.1 -0.1)">
      <use xlink:href="#DejaVuSans-31"/>
      <use xlink:href="#DejaVuSans-30" x="63.623047"/>
      <use xlink:href="#DejaVuSans-30" x="127.246094"/>
     </g>
    </g>
   </g>
   <g id="xtick_19">
    <g id="line2d_22">
     <path d="M 80.186993 119.398805 
L 75.374611 119.904547 
" style="fill: none; stroke: #000000; stroke-width: 0.8; stroke-linecap: square"/>
    </g>
    <g id="text_21">
     <!-- 120 -->
     <g transform="translate(51.140142 125.603735) scale(0.1 -0.1)">
      <use xlink:href="#DejaVuSans-31"/>
      <use xlink:href="#DejaVuSans-32" x="63.623047"/>
      <use xlink:href="#DejaVuSans-30" x="127.246094"/>
     </g>
    </g>
   </g>
   <g id="xtick_20">
    <g id="line2d_23">
     <path d="M 79.811837 100.962899 
L 74.986152 101.448893 
" style="fill: none; stroke: #000000; stroke-width: 0.8; stroke-linecap: square"/>
    </g>
    <g id="text_22">
     <!-- 140 -->
     <g transform="translate(50.714221 107.222257) scale(0.1 -0.1)">
      <use xlink:href="#DejaVuSans-31"/>
      <use xlink:href="#DejaVuSans-34" x="63.623047"/>
      <use xlink:href="#DejaVuSans-30" x="127.246094"/>
     </g>
    </g>
   </g>
   <g id="xtick_21">
    <g id="line2d_24">
     <path d="M 79.43467 82.428207 
L 74.595609 82.894234 
" style="fill: none; stroke: #000000; stroke-width: 0.8; stroke-linecap: square"/>
    </g>
    <g id="text_23">
     <!-- 160 -->
     <g transform="translate(50.286025 88.742596) scale(0.1 -0.1)">
      <use xlink:href="#DejaVuSans-31"/>
      <use xlink:href="#DejaVuSans-36" x="63.623047"/>
      <use xlink:href="#DejaVuSans-30" x="127.246094"/>
     </g>
    </g>
   </g>
   <g id="text_24">
    <!-- $B^{1/4} ~ [MeV]$ -->
    <g transform="translate(43.869962 177.169496) rotate(-90) scale(0.1 -0.1)">
     <defs>
      <path id="DejaVuSans-Oblique-42" d="M 1081 4666 
L 2694 4666 
Q 3350 4666 3675 4422 
Q 4000 4178 4000 3688 
Q 4000 3238 3720 2911 
Q 3441 2584 2988 2516 
Q 3375 2428 3569 2181 
Q 3763 1934 3763 1522 
Q 3763 819 3242 409 
Q 2722 0 1819 0 
L 172 0 
L 1081 4666 
z
M 1234 2228 
L 903 519 
L 1919 519 
Q 2491 519 2800 781 
Q 3109 1044 3109 1522 
Q 3109 1891 2904 2059 
Q 2700 2228 2247 2228 
L 1234 2228 
z
M 1606 4147 
L 1331 2741 
L 2272 2741 
Q 2775 2741 3058 2959 
Q 3341 3178 3341 3566 
Q 3341 3869 3150 4008 
Q 2959 4147 2541 4147 
L 1606 4147 
z
" transform="scale(0.015625)"/>
     </defs>
     <use xlink:href="#DejaVuSans-Oblique-42" transform="translate(0 0.684375)"/>
     <use xlink:href="#DejaVuSans-31" transform="translate(75.620286 38.965625) scale(0.7)"/>
     <use xlink:href="#DejaVuSans-2f" transform="translate(120.156419 38.965625) scale(0.7)"/>
     <use xlink:href="#DejaVuSans-34" transform="translate(143.740404 38.965625) scale(0.7)"/>
     <use xlink:href="#DejaVuSans-5b" transform="translate(223.48129 0.684375)"/>
     <use xlink:href="#DejaVuSans-Oblique-4d" transform="translate(262.494962 0.684375)"/>
     <use xlink:href="#DejaVuSans-Oblique-65" transform="translate(348.774259 0.684375)"/>
     <use xlink:href="#DejaVuSans-Oblique-56" transform="translate(410.297696 0.684375)"/>
     <use xlink:href="#DejaVuSans-5d" transform="translate(478.705899 0.684375)"/>
    </g>
   </g>
  </g>
  <g id="axes_1">
   <g id="Path3DCollection_1">
    <defs>
     <path id="C0_0_d75ca0eda3" d="M 0 2.236068 
C 0.593012 2.236068 1.161816 2.000462 1.581139 1.581139 
C 2.000462 1.161816 2.236068 0.593012 2.236068 -0 
C 2.236068 -0.593012 2.000462 -1.161816 1.581139 -1.581139 
C 1.161816 -2.000462 0.593012 -2.236068 0 -2.236068 
C -0.593012 -2.236068 -1.161816 -2.000462 -1.581139 -1.581139 
C -2.000462 -1.161816 -2.236068 -0.593012 -2.236068 0 
C -2.236068 0.593012 -2.000462 1.161816 -1.581139 1.581139 
C -1.161816 2.000462 -0.593012 2.236068 0 2.236068 
z
"/>
    </defs>
    <g clip-path="url(#pdf0c8ae787)">
     <use xlink:href="#C0_0_d75ca0eda3" x="250.397404" y="107.904744" style="fill: #1f77b4; fill-opacity: 0.3; stroke: #1f77b4; stroke-opacity: 0.3"/>
    </g>
    <g clip-path="url(#pdf0c8ae787)">
     <use xlink:href="#C0_0_d75ca0eda3" x="232.609463" y="95.308707" style="fill: #1f77b4; fill-opacity: 0.336453; stroke: #1f77b4; stroke-opacity: 0.336453"/>
    </g>
    <g clip-path="url(#pdf0c8ae787)">
     <use xlink:href="#C0_0_d75ca0eda3" x="259.009408" y="126.504274" style="fill: #1f77b4; fill-opacity: 0.341268; stroke: #1f77b4; stroke-opacity: 0.341268"/>
    </g>
    <g clip-path="url(#pdf0c8ae787)">
     <use xlink:href="#C0_0_d75ca0eda3" x="214.601039" y="97.165473" style="fill: #1f77b4; fill-opacity: 0.361429; stroke: #1f77b4; stroke-opacity: 0.361429"/>
    </g>
    <g clip-path="url(#pdf0c8ae787)">
     <use xlink:href="#C0_0_d75ca0eda3" x="241.145988" y="113.936779" style="fill: #1f77b4; fill-opacity: 0.378262; stroke: #1f77b4; stroke-opacity: 0.378262"/>
    </g>
    <g clip-path="url(#pdf0c8ae787)">
     <use xlink:href="#C0_0_d75ca0eda3" x="196.381043" y="84.359647" style="fill: #1f77b4; fill-opacity: 0.398689; stroke: #1f77b4; stroke-opacity: 0.398689"/>
    </g>
    <g clip-path="url(#pdf0c8ae787)">
     <use xlink:href="#C0_0_d75ca0eda3" x="223.046702" y="101.203344" style="fill: #1f77b4; fill-opacity: 0.415744; stroke: #1f77b4; stroke-opacity: 0.415744"/>
    </g>
    <g clip-path="url(#pdf0c8ae787)">
     <use xlink:href="#C0_0_d75ca0eda3" x="178.01052" y="86.187947" style="fill: #1f77b4; fill-opacity: 0.424221; stroke: #1f77b4; stroke-opacity: 0.424221"/>
    </g>
    <g clip-path="url(#pdf0c8ae787)">
     <use xlink:href="#C0_0_d75ca0eda3" x="204.740791" y="103.112844" style="fill: #1f77b4; fill-opacity: 0.44143; stroke: #1f77b4; stroke-opacity: 0.44143"/>
    </g>
    <g clip-path="url(#pdf0c8ae787)">
     <use xlink:href="#C0_0_d75ca0eda3" x="159.474621" y="88.032707" style="fill: #1f77b4; fill-opacity: 0.449983; stroke: #1f77b4; stroke-opacity: 0.449983"/>
    </g>
    <g clip-path="url(#pdf0c8ae787)">
     <use xlink:href="#C0_0_d75ca0eda3" x="140.771103" y="89.894148" style="fill: #1f77b4; fill-opacity: 0.475978; stroke: #1f77b4; stroke-opacity: 0.475978"/>
    </g>
    <g clip-path="url(#pdf0c8ae787)">
     <use xlink:href="#C0_0_d75ca0eda3" x="186.195751" y="90.164532" style="fill: #1f77b4; fill-opacity: 0.479754; stroke: #1f77b4; stroke-opacity: 0.479754"/>
    </g>
    <g clip-path="url(#pdf0c8ae787)">
     <use xlink:href="#C0_0_d75ca0eda3" x="213.211015" y="107.266217" style="fill: #1f77b4; fill-opacity: 0.497299; stroke: #1f77b4; stroke-opacity: 0.497299"/>
    </g>
    <g clip-path="url(#pdf0c8ae787)">
     <use xlink:href="#C0_0_d75ca0eda3" x="167.516389" y="92.045345" style="fill: #1f77b4; fill-opacity: 0.506019; stroke: #1f77b4; stroke-opacity: 0.506019"/>
    </g>
    <g clip-path="url(#pdf0c8ae787)">
     <use xlink:href="#C0_0_d75ca0eda3" x="240.390814" y="124.47206" style="fill: #1f77b4; fill-opacity: 0.51495; stroke: #1f77b4; stroke-opacity: 0.51495"/>
    </g>
    <g clip-path="url(#pdf0c8ae787)">
     <use xlink:href="#C0_0_d75ca0eda3" x="194.597842" y="109.230731" style="fill: #1f77b4; fill-opacity: 0.523724; stroke: #1f77b4; stroke-opacity: 0.523724"/>
    </g>
    <g clip-path="url(#pdf0c8ae787)">
     <use xlink:href="#C0_0_d75ca0eda3" x="148.666456" y="93.943333" style="fill: #1f77b4; fill-opacity: 0.532524; stroke: #1f77b4; stroke-opacity: 0.532524"/>
    </g>
    <g clip-path="url(#pdf0c8ae787)">
     <use xlink:href="#C0_0_d75ca0eda3" x="129.643606" y="95.858732" style="fill: #1f77b4; fill-opacity: 0.559273; stroke: #1f77b4; stroke-opacity: 0.559273"/>
    </g>
    <g clip-path="url(#pdf0c8ae787)">
     <use xlink:href="#C0_0_d75ca0eda3" x="249.259354" y="143.917907" style="fill: #1f77b4; fill-opacity: 0.55946; stroke: #1f77b4; stroke-opacity: 0.55946"/>
    </g>
    <g clip-path="url(#pdf0c8ae787)">
     <use xlink:href="#C0_0_d75ca0eda3" x="203.090547" y="113.504634" style="fill: #1f77b4; fill-opacity: 0.581214; stroke: #1f77b4; stroke-opacity: 0.581214"/>
    </g>
    <g clip-path="url(#pdf0c8ae787)">
     <use xlink:href="#C0_0_d75ca0eda3" x="110.445448" y="97.791783" style="fill: #1f77b4; fill-opacity: 0.586268; stroke: #1f77b4; stroke-opacity: 0.586268"/>
    </g>
    <g clip-path="url(#pdf0c8ae787)">
     <use xlink:href="#C0_0_d75ca0eda3" x="156.717949" y="98.072596" style="fill: #1f77b4; fill-opacity: 0.590189; stroke: #1f77b4; stroke-opacity: 0.590189"/>
    </g>
    <g clip-path="url(#pdf0c8ae787)">
     <use xlink:href="#C0_0_d75ca0eda3" x="230.633774" y="130.979607" style="fill: #1f77b4; fill-opacity: 0.599382; stroke: #1f77b4; stroke-opacity: 0.599382"/>
    </g>
    <g clip-path="url(#pdf0c8ae787)">
     <use xlink:href="#C0_0_d75ca0eda3" x="184.159859" y="115.526573" style="fill: #1f77b4; fill-opacity: 0.608412; stroke: #1f77b4; stroke-opacity: 0.608412"/>
    </g>
    <g clip-path="url(#pdf0c8ae787)">
     <use xlink:href="#C0_0_d75ca0eda3" x="137.543425" y="100.02615" style="fill: #1f77b4; fill-opacity: 0.61747; stroke: #1f77b4; stroke-opacity: 0.61747"/>
    </g>
    <g clip-path="url(#pdf0c8ae787)">
     <use xlink:href="#C0_0_d75ca0eda3" x="118.190431" y="101.997887" style="fill: #1f77b4; fill-opacity: 0.645006; stroke: #1f77b4; stroke-opacity: 0.645006"/>
    </g>
    <g clip-path="url(#pdf0c8ae787)">
     <use xlink:href="#C0_0_d75ca0eda3" x="239.556313" y="150.760579" style="fill: #1f77b4; fill-opacity: 0.645199; stroke: #1f77b4; stroke-opacity: 0.645199"/>
    </g>
    <g clip-path="url(#pdf0c8ae787)">
     <use xlink:href="#C0_0_d75ca0eda3" x="192.672749" y="119.92633" style="fill: #1f77b4; fill-opacity: 0.667595; stroke: #1f77b4; stroke-opacity: 0.667595"/>
    </g>
    <g clip-path="url(#pdf0c8ae787)">
     <use xlink:href="#C0_0_d75ca0eda3" x="145.60177" y="104.277197" style="fill: #1f77b4; fill-opacity: 0.676836; stroke: #1f77b4; stroke-opacity: 0.676836"/>
    </g>
    <g clip-path="url(#pdf0c8ae787)">
     <use xlink:href="#C0_0_d75ca0eda3" x="220.589183" y="137.678938" style="fill: #1f77b4; fill-opacity: 0.686301; stroke: #1f77b4; stroke-opacity: 0.686301"/>
    </g>
    <g clip-path="url(#pdf0c8ae787)">
     <use xlink:href="#C0_0_d75ca0eda3" x="248.618546" y="170.851251" style="fill: #1f77b4; fill-opacity: 0.691733; stroke: #1f77b4; stroke-opacity: 0.691733"/>
    </g>
    <g clip-path="url(#pdf0c8ae787)">
     <use xlink:href="#C0_0_d75ca0eda3" x="173.413777" y="122.008249" style="fill: #1f77b4; fill-opacity: 0.6956; stroke: #1f77b4; stroke-opacity: 0.6956"/>
    </g>
    <g clip-path="url(#pdf0c8ae787)">
     <use xlink:href="#C0_0_d75ca0eda3" x="126.091564" y="106.288793" style="fill: #1f77b4; fill-opacity: 0.704928; stroke: #1f77b4; stroke-opacity: 0.704928"/>
    </g>
    <g clip-path="url(#pdf0c8ae787)">
     <use xlink:href="#C0_0_d75ca0eda3" x="153.973172" y="124.109803" style="fill: #1f77b4; fill-opacity: 0.723869; stroke: #1f77b4; stroke-opacity: 0.723869"/>
    </g>
    <g clip-path="url(#pdf0c8ae787)">
     <use xlink:href="#C0_0_d75ca0eda3" x="229.565057" y="157.806502" style="fill: #1f77b4; fill-opacity: 0.733484; stroke: #1f77b4; stroke-opacity: 0.733484"/>
    </g>
    <g clip-path="url(#pdf0c8ae787)">
     <use xlink:href="#C0_0_d75ca0eda3" x="181.944323" y="126.539502" style="fill: #1f77b4; fill-opacity: 0.756552; stroke: #1f77b4; stroke-opacity: 0.756552"/>
    </g>
    <g clip-path="url(#pdf0c8ae787)">
     <use xlink:href="#C0_0_d75ca0eda3" x="210.244138" y="144.57866" style="fill: #1f77b4; fill-opacity: 0.775821; stroke: #1f77b4; stroke-opacity: 0.775821"/>
    </g>
    <g clip-path="url(#pdf0c8ae787)">
     <use xlink:href="#C0_0_d75ca0eda3" x="238.683566" y="178.25391" style="fill: #1f77b4; fill-opacity: 0.781416; stroke: #1f77b4; stroke-opacity: 0.781416"/>
    </g>
    <g clip-path="url(#pdf0c8ae787)">
     <use xlink:href="#C0_0_d75ca0eda3" x="162.345753" y="128.684111" style="fill: #1f77b4; fill-opacity: 0.7854; stroke: #1f77b4; stroke-opacity: 0.7854"/>
    </g>
    <g clip-path="url(#pdf0c8ae787)">
     <use xlink:href="#C0_0_d75ca0eda3" x="190.718153" y="146.816334" style="fill: #1f77b4; fill-opacity: 0.804853; stroke: #1f77b4; stroke-opacity: 0.804853"/>
    </g>
    <g clip-path="url(#pdf0c8ae787)">
     <use xlink:href="#C0_0_d75ca0eda3" x="142.559565" y="130.84925" style="fill: #1f77b4; fill-opacity: 0.814524; stroke: #1f77b4; stroke-opacity: 0.814524"/>
    </g>
    <g clip-path="url(#pdf0c8ae787)">
     <use xlink:href="#C0_0_d75ca0eda3" x="219.272552" y="165.064869" style="fill: #1f77b4; fill-opacity: 0.824431; stroke: #1f77b4; stroke-opacity: 0.824431"/>
    </g>
    <g clip-path="url(#pdf0c8ae787)">
     <use xlink:href="#C0_0_d75ca0eda3" x="179.70935" y="153.994206" style="fill: #1f77b4; fill-opacity: 0.897981; stroke: #1f77b4; stroke-opacity: 0.897981"/>
    </g>
    <g clip-path="url(#pdf0c8ae787)">
     <use xlink:href="#C0_0_d75ca0eda3" x="159.639937" y="156.323002" style="fill: #1f77b4; fill-opacity: 0.928196; stroke: #1f77b4; stroke-opacity: 0.928196"/>
    </g>
    <g clip-path="url(#pdf0c8ae787)">
     <use xlink:href="#C0_0_d75ca0eda3" x="188.671514" y="174.972594" style="fill: #1f77b4; fill-opacity: 0.948574; stroke: #1f77b4; stroke-opacity: 0.948574"/>
    </g>
    <g clip-path="url(#pdf0c8ae787)">
     <use xlink:href="#C0_0_d75ca0eda3" x="197.781215" y="196.29633" style="fill: #1f77b4; stroke: #1f77b4"/>
    </g>
   </g>
   <g id="text_25">
    <!-- Quark EOS parameter points -->
    <g transform="translate(129.70875 24.168202) scale(0.12 -0.12)">
     <defs>
      <path id="DejaVuSans-51" d="M 2522 4238 
Q 1834 4238 1429 3725 
Q 1025 3213 1025 2328 
Q 1025 1447 1429 934 
Q 1834 422 2522 422 
Q 3209 422 3611 934 
Q 4013 1447 4013 2328 
Q 4013 3213 3611 3725 
Q 3209 4238 2522 4238 
z
M 3406 84 
L 4238 -825 
L 3475 -825 
L 2784 -78 
Q 2681 -84 2626 -87 
Q 2572 -91 2522 -91 
Q 1538 -91 948 567 
Q 359 1225 359 2328 
Q 359 3434 948 4092 
Q 1538 4750 2522 4750 
Q 3503 4750 4090 4092 
Q 4678 3434 4678 2328 
Q 4678 1516 4351 937 
Q 4025 359 3406 84 
z
" transform="scale(0.015625)"/>
      <path id="DejaVuSans-75" d="M 544 1381 
L 544 3500 
L 1119 3500 
L 1119 1403 
Q 1119 906 1312 657 
Q 1506 409 1894 409 
Q 2359 409 2629 706 
Q 2900 1003 2900 1516 
L 2900 3500 
L 3475 3500 
L 3475 0 
L 2900 0 
L 2900 538 
Q 2691 219 2414 64 
Q 2138 -91 1772 -91 
Q 1169 -91 856 284 
Q 544 659 544 1381 
z
M 1991 3584 
L 1991 3584 
z
" transform="scale(0.015625)"/>
      <path id="DejaVuSans-61" d="M 2194 1759 
Q 1497 1759 1228 1600 
Q 959 1441 959 1056 
Q 959 750 1161 570 
Q 1363 391 1709 391 
Q 2188 391 2477 730 
Q 2766 1069 2766 1631 
L 2766 1759 
L 2194 1759 
z
M 3341 1997 
L 3341 0 
L 2766 0 
L 2766 531 
Q 2569 213 2275 61 
Q 1981 -91 1556 -91 
Q 1019 -91 701 211 
Q 384 513 384 1019 
Q 384 1609 779 1909 
Q 1175 2209 1959 2209 
L 2766 2209 
L 2766 2266 
Q 2766 2663 2505 2880 
Q 2244 3097 1772 3097 
Q 1472 3097 1187 3025 
Q 903 2953 641 2809 
L 641 3341 
Q 956 3463 1253 3523 
Q 1550 3584 1831 3584 
Q 2591 3584 2966 3190 
Q 3341 2797 3341 1997 
z
" transform="scale(0.015625)"/>
      <path id="DejaVuSans-72" d="M 2631 2963 
Q 2534 3019 2420 3045 
Q 2306 3072 2169 3072 
Q 1681 3072 1420 2755 
Q 1159 2438 1159 1844 
L 1159 0 
L 581 0 
L 581 3500 
L 1159 3500 
L 1159 2956 
Q 1341 3275 1631 3429 
Q 1922 3584 2338 3584 
Q 2397 3584 2469 3576 
Q 2541 3569 2628 3553 
L 2631 2963 
z
" transform="scale(0.015625)"/>
      <path id="DejaVuSans-6b" d="M 581 4863 
L 1159 4863 
L 1159 1991 
L 2875 3500 
L 3609 3500 
L 1753 1863 
L 3688 0 
L 2938 0 
L 1159 1709 
L 1159 0 
L 581 0 
L 581 4863 
z
" transform="scale(0.015625)"/>
      <path id="DejaVuSans-20" transform="scale(0.015625)"/>
      <path id="DejaVuSans-45" d="M 628 4666 
L 3578 4666 
L 3578 4134 
L 1259 4134 
L 1259 2753 
L 3481 2753 
L 3481 2222 
L 1259 2222 
L 1259 531 
L 3634 531 
L 3634 0 
L 628 0 
L 628 4666 
z
" transform="scale(0.015625)"/>
      <path id="DejaVuSans-4f" d="M 2522 4238 
Q 1834 4238 1429 3725 
Q 1025 3213 1025 2328 
Q 1025 1447 1429 934 
Q 1834 422 2522 422 
Q 3209 422 3611 934 
Q 4013 1447 4013 2328 
Q 4013 3213 3611 3725 
Q 3209 4238 2522 4238 
z
M 2522 4750 
Q 3503 4750 4090 4092 
Q 4678 3434 4678 2328 
Q 4678 1225 4090 567 
Q 3503 -91 2522 -91 
Q 1538 -91 948 565 
Q 359 1222 359 2328 
Q 359 3434 948 4092 
Q 1538 4750 2522 4750 
z
" transform="scale(0.015625)"/>
      <path id="DejaVuSans-53" d="M 3425 4513 
L 3425 3897 
Q 3066 4069 2747 4153 
Q 2428 4238 2131 4238 
Q 1616 4238 1336 4038 
Q 1056 3838 1056 3469 
Q 1056 3159 1242 3001 
Q 1428 2844 1947 2747 
L 2328 2669 
Q 3034 2534 3370 2195 
Q 3706 1856 3706 1288 
Q 3706 609 3251 259 
Q 2797 -91 1919 -91 
Q 1588 -91 1214 -16 
Q 841 59 441 206 
L 441 856 
Q 825 641 1194 531 
Q 1563 422 1919 422 
Q 2459 422 2753 634 
Q 3047 847 3047 1241 
Q 3047 1584 2836 1778 
Q 2625 1972 2144 2069 
L 1759 2144 
Q 1053 2284 737 2584 
Q 422 2884 422 3419 
Q 422 4038 858 4394 
Q 1294 4750 2059 4750 
Q 2388 4750 2728 4690 
Q 3069 4631 3425 4513 
z
" transform="scale(0.015625)"/>
      <path id="DejaVuSans-70" d="M 1159 525 
L 1159 -1331 
L 581 -1331 
L 581 3500 
L 1159 3500 
L 1159 2969 
Q 1341 3281 1617 3432 
Q 1894 3584 2278 3584 
Q 2916 3584 3314 3078 
Q 3713 2572 3713 1747 
Q 3713 922 3314 415 
Q 2916 -91 2278 -91 
Q 1894 -91 1617 61 
Q 1341 213 1159 525 
z
M 3116 1747 
Q 3116 2381 2855 2742 
Q 2594 3103 2138 3103 
Q 1681 3103 1420 2742 
Q 1159 2381 1159 1747 
Q 1159 1113 1420 752 
Q 1681 391 2138 391 
Q 2594 391 2855 752 
Q 3116 1113 3116 1747 
z
" transform="scale(0.015625)"/>
      <path id="DejaVuSans-6d" d="M 3328 2828 
Q 3544 3216 3844 3400 
Q 4144 3584 4550 3584 
Q 5097 3584 5394 3201 
Q 5691 2819 5691 2113 
L 5691 0 
L 5113 0 
L 5113 2094 
Q 5113 2597 4934 2840 
Q 4756 3084 4391 3084 
Q 3944 3084 3684 2787 
Q 3425 2491 3425 1978 
L 3425 0 
L 2847 0 
L 2847 2094 
Q 2847 2600 2669 2842 
Q 2491 3084 2119 3084 
Q 1678 3084 1418 2786 
Q 1159 2488 1159 1978 
L 1159 0 
L 581 0 
L 581 3500 
L 1159 3500 
L 1159 2956 
Q 1356 3278 1631 3431 
Q 1906 3584 2284 3584 
Q 2666 3584 2933 3390 
Q 3200 3197 3328 2828 
z
" transform="scale(0.015625)"/>
      <path id="DejaVuSans-65" d="M 3597 1894 
L 3597 1613 
L 953 1613 
Q 991 1019 1311 708 
Q 1631 397 2203 397 
Q 2534 397 2845 478 
Q 3156 559 3463 722 
L 3463 178 
Q 3153 47 2828 -22 
Q 2503 -91 2169 -91 
Q 1331 -91 842 396 
Q 353 884 353 1716 
Q 353 2575 817 3079 
Q 1281 3584 2069 3584 
Q 2775 3584 3186 3129 
Q 3597 2675 3597 1894 
z
M 3022 2063 
Q 3016 2534 2758 2815 
Q 2500 3097 2075 3097 
Q 1594 3097 1305 2825 
Q 1016 2553 972 2059 
L 3022 2063 
z
" transform="scale(0.015625)"/>
      <path id="DejaVuSans-74" d="M 1172 4494 
L 1172 3500 
L 2356 3500 
L 2356 3053 
L 1172 3053 
L 1172 1153 
Q 1172 725 1289 603 
Q 1406 481 1766 481 
L 2356 481 
L 2356 0 
L 1766 0 
Q 1100 0 847 248 
Q 594 497 594 1153 
L 594 3053 
L 172 3053 
L 172 3500 
L 594 3500 
L 594 4494 
L 1172 4494 
z
" transform="scale(0.015625)"/>
      <path id="DejaVuSans-6f" d="M 1959 3097 
Q 1497 3097 1228 2736 
Q 959 2375 959 1747 
Q 959 1119 1226 758 
Q 1494 397 1959 397 
Q 2419 397 2687 759 
Q 2956 1122 2956 1747 
Q 2956 2369 2687 2733 
Q 2419 3097 1959 3097 
z
M 1959 3584 
Q 2709 3584 3137 3096 
Q 3566 2609 3566 1747 
Q 3566 888 3137 398 
Q 2709 -91 1959 -91 
Q 1206 -91 779 398 
Q 353 888 353 1747 
Q 353 2609 779 3096 
Q 1206 3584 1959 3584 
z
" transform="scale(0.015625)"/>
      <path id="DejaVuSans-69" d="M 603 3500 
L 1178 3500 
L 1178 0 
L 603 0 
L 603 3500 
z
M 603 4863 
L 1178 4863 
L 1178 4134 
L 603 4134 
L 603 4863 
z
" transform="scale(0.015625)"/>
      <path id="DejaVuSans-6e" d="M 3513 2113 
L 3513 0 
L 2938 0 
L 2938 2094 
Q 2938 2591 2744 2837 
Q 2550 3084 2163 3084 
Q 1697 3084 1428 2787 
Q 1159 2491 1159 1978 
L 1159 0 
L 581 0 
L 581 3500 
L 1159 3500 
L 1159 2956 
Q 1366 3272 1645 3428 
Q 1925 3584 2291 3584 
Q 2894 3584 3203 3211 
Q 3513 2838 3513 2113 
z
" transform="scale(0.015625)"/>
      <path id="DejaVuSans-73" d="M 2834 3397 
L 2834 2853 
Q 2591 2978 2328 3040 
Q 2066 3103 1784 3103 
Q 1356 3103 1142 2972 
Q 928 2841 928 2578 
Q 928 2378 1081 2264 
Q 1234 2150 1697 2047 
L 1894 2003 
Q 2506 1872 2764 1633 
Q 3022 1394 3022 966 
Q 3022 478 2636 193 
Q 2250 -91 1575 -91 
Q 1294 -91 989 -36 
Q 684 19 347 128 
L 347 722 
Q 666 556 975 473 
Q 1284 391 1588 391 
Q 1994 391 2212 530 
Q 2431 669 2431 922 
Q 2431 1156 2273 1281 
Q 2116 1406 1581 1522 
L 1381 1569 
Q 847 1681 609 1914 
Q 372 2147 372 2553 
Q 372 3047 722 3315 
Q 1072 3584 1716 3584 
Q 2034 3584 2315 3537 
Q 2597 3491 2834 3397 
z
" transform="scale(0.015625)"/>
     </defs>
     <use xlink:href="#DejaVuSans-51"/>
     <use xlink:href="#DejaVuSans-75" x="78.710938"/>
     <use xlink:href="#DejaVuSans-61" x="142.089844"/>
     <use xlink:href="#DejaVuSans-72" x="203.369141"/>
     <use xlink:href="#DejaVuSans-6b" x="244.482422"/>
     <use xlink:href="#DejaVuSans-20" x="302.392578"/>
     <use xlink:href="#DejaVuSans-45" x="334.179688"/>
     <use xlink:href="#DejaVuSans-4f" x="397.363281"/>
     <use xlink:href="#DejaVuSans-53" x="476.074219"/>
     <use xlink:href="#DejaVuSans-20" x="539.550781"/>
     <use xlink:href="#DejaVuSans-70" x="571.337891"/>
     <use xlink:href="#DejaVuSans-61" x="634.814453"/>
     <use xlink:href="#DejaVuSans-72" x="696.09375"/>
     <use xlink:href="#DejaVuSans-61" x="737.207031"/>
     <use xlink:href="#DejaVuSans-6d" x="798.486328"/>
     <use xlink:href="#DejaVuSans-65" x="895.898438"/>
     <use xlink:href="#DejaVuSans-74" x="957.421875"/>
     <use xlink:href="#DejaVuSans-65" x="996.630859"/>
     <use xlink:href="#DejaVuSans-72" x="1058.154297"/>
     <use xlink:href="#DejaVuSans-20" x="1099.267578"/>
     <use xlink:href="#DejaVuSans-70" x="1131.054688"/>
     <use xlink:href="#DejaVuSans-6f" x="1194.53125"/>
     <use xlink:href="#DejaVuSans-69" x="1255.712891"/>
     <use xlink:href="#DejaVuSans-6e" x="1283.496094"/>
     <use xlink:href="#DejaVuSans-74" x="1346.875"/>
     <use xlink:href="#DejaVuSans-73" x="1386.083984"/>
    </g>
   </g>
  </g>
 </g>
 <defs>
  <clipPath id="pdf0c8ae787">
   <rect x="46.20024" y="3.00024" width="339.59952" height="339.59952"/>
  </clipPath>
 </defs>
</svg>
