<?xml version="1.0" encoding="utf-8" standalone="no"?>
<!DOCTYPE svg PUBLIC "-//W3C//DTD SVG 1.1//EN"
  "http://www.w3.org/Graphics/SVG/1.1/DTD/svg11.dtd">
<svg xmlns:xlink="http://www.w3.org/1999/xlink" width="460.8pt" height="345.6pt" viewBox="0 0 460.8 345.6" xmlns="http://www.w3.org/2000/svg" version="1.1">
 <metadata>
  <rdf:RDF xmlns:dc="http://purl.org/dc/elements/1.1/" xmlns:cc="http://creativecommons.org/ns#" xmlns:rdf="http://www.w3.org/1999/02/22-rdf-syntax-ns#">
   <cc:Work>
    <dc:type rdf:resource="http://purl.org/dc/dcmitype/StillImage"/>
    <dc:date>2024-01-15T17:12:34.293074</dc:date>
    <dc:format>image/svg+xml</dc:format>
    <dc:creator>
     <cc:Agent>
      <dc:title>Matplotlib v3.8.2, https://matplotlib.org/</dc:title>
     </cc:Agent>
    </dc:creator>
   </cc:Work>
  </rdf:RDF>
 </metadata>
 <defs>
  <style type="text/css">*{stroke-linejoin: round; stroke-linecap: butt}</style>
 </defs>
 <g id="figure_1">
  <g id="patch_1">
   <path d="M 0 345.6 
L 460.8 345.6 
L 460.8 0 
L 0 0 
z
" style="fill: #ffffff"/>
  </g>
  <g id="axes_1">
   <g id="patch_2">
    <path d="M 57.6 307.584 
L 414.72 307.584 
L 414.72 41.472 
L 57.6 41.472 
z
" style="fill: #ffffff"/>
   </g>
   <g id="matplotlib.axis_1">
    <g id="xtick_1">
     <g id="line2d_1">
      <defs>
       <path id="m0b49b4c7e3" d="M 0 0 
L 0 3.5 
" style="stroke: #000000; stroke-width: 0.8"/>
      </defs>
      <g>
       <use xlink:href="#m0b49b4c7e3" x="73.832727" y="307.584" style="stroke: #000000; stroke-width: 0.8"/>
      </g>
     </g>
     <g id="text_1">
      <!-- 0.00 -->
      <g transform="translate(62.699915 322.182437) scale(0.1 -0.1)">
       <defs>
        <path id="DejaVuSans-30" d="M 2034 4250 
Q 1547 4250 1301 3770 
Q 1056 3291 1056 2328 
Q 1056 1369 1301 889 
Q 1547 409 2034 409 
Q 2525 409 2770 889 
Q 3016 1369 3016 2328 
Q 3016 3291 2770 3770 
Q 2525 4250 2034 4250 
z
M 2034 4750 
Q 2819 4750 3233 4129 
Q 3647 3509 3647 2328 
Q 3647 1150 3233 529 
Q 2819 -91 2034 -91 
Q 1250 -91 836 529 
Q 422 1150 422 2328 
Q 422 3509 836 4129 
Q 1250 4750 2034 4750 
z
" transform="scale(0.015625)"/>
        <path id="DejaVuSans-2e" d="M 684 794 
L 1344 794 
L 1344 0 
L 684 0 
L 684 794 
z
" transform="scale(0.015625)"/>
       </defs>
       <use xlink:href="#DejaVuSans-30"/>
       <use xlink:href="#DejaVuSans-2e" x="63.623047"/>
       <use xlink:href="#DejaVuSans-30" x="95.410156"/>
       <use xlink:href="#DejaVuSans-30" x="159.033203"/>
      </g>
     </g>
    </g>
    <g id="xtick_2">
     <g id="line2d_2">
      <g>
       <use xlink:href="#m0b49b4c7e3" x="134.367679" y="307.584" style="stroke: #000000; stroke-width: 0.8"/>
      </g>
     </g>
     <g id="text_2">
      <!-- 0.05 -->
      <g transform="translate(123.234867 322.182437) scale(0.1 -0.1)">
       <defs>
        <path id="DejaVuSans-35" d="M 691 4666 
L 3169 4666 
L 3169 4134 
L 1269 4134 
L 1269 2991 
Q 1406 3038 1543 3061 
Q 1681 3084 1819 3084 
Q 2600 3084 3056 2656 
Q 3513 2228 3513 1497 
Q 3513 744 3044 326 
Q 2575 -91 1722 -91 
Q 1428 -91 1123 -41 
Q 819 9 494 109 
L 494 744 
Q 775 591 1075 516 
Q 1375 441 1709 441 
Q 2250 441 2565 725 
Q 2881 1009 2881 1497 
Q 2881 1984 2565 2268 
Q 2250 2553 1709 2553 
Q 1456 2553 1204 2497 
Q 953 2441 691 2322 
L 691 4666 
z
" transform="scale(0.015625)"/>
       </defs>
       <use xlink:href="#DejaVuSans-30"/>
       <use xlink:href="#DejaVuSans-2e" x="63.623047"/>
       <use xlink:href="#DejaVuSans-30" x="95.410156"/>
       <use xlink:href="#DejaVuSans-35" x="159.033203"/>
      </g>
     </g>
    </g>
    <g id="xtick_3">
     <g id="line2d_3">
      <g>
       <use xlink:href="#m0b49b4c7e3" x="194.902631" y="307.584" style="stroke: #000000; stroke-width: 0.8"/>
      </g>
     </g>
     <g id="text_3">
      <!-- 0.10 -->
      <g transform="translate(183.769819 322.182437) scale(0.1 -0.1)">
       <defs>
        <path id="DejaVuSans-31" d="M 794 531 
L 1825 531 
L 1825 4091 
L 703 3866 
L 703 4441 
L 1819 4666 
L 2450 4666 
L 2450 531 
L 3481 531 
L 3481 0 
L 794 0 
L 794 531 
z
" transform="scale(0.015625)"/>
       </defs>
       <use xlink:href="#DejaVuSans-30"/>
       <use xlink:href="#DejaVuSans-2e" x="63.623047"/>
       <use xlink:href="#DejaVuSans-31" x="95.410156"/>
       <use xlink:href="#DejaVuSans-30" x="159.033203"/>
      </g>
     </g>
    </g>
    <g id="xtick_4">
     <g id="line2d_4">
      <g>
       <use xlink:href="#m0b49b4c7e3" x="255.437583" y="307.584" style="stroke: #000000; stroke-width: 0.8"/>
      </g>
     </g>
     <g id="text_4">
      <!-- 0.15 -->
      <g transform="translate(244.304771 322.182437) scale(0.1 -0.1)">
       <use xlink:href="#DejaVuSans-30"/>
       <use xlink:href="#DejaVuSans-2e" x="63.623047"/>
       <use xlink:href="#DejaVuSans-31" x="95.410156"/>
       <use xlink:href="#DejaVuSans-35" x="159.033203"/>
      </g>
     </g>
    </g>
    <g id="xtick_5">
     <g id="line2d_5">
      <g>
       <use xlink:href="#m0b49b4c7e3" x="315.972535" y="307.584" style="stroke: #000000; stroke-width: 0.8"/>
      </g>
     </g>
     <g id="text_5">
      <!-- 0.20 -->
      <g transform="translate(304.839723 322.182437) scale(0.1 -0.1)">
       <defs>
        <path id="DejaVuSans-32" d="M 1228 531 
L 3431 531 
L 3431 0 
L 469 0 
L 469 531 
Q 828 903 1448 1529 
Q 2069 2156 2228 2338 
Q 2531 2678 2651 2914 
Q 2772 3150 2772 3378 
Q 2772 3750 2511 3984 
Q 2250 4219 1831 4219 
Q 1534 4219 1204 4116 
Q 875 4013 500 3803 
L 500 4441 
Q 881 4594 1212 4672 
Q 1544 4750 1819 4750 
Q 2544 4750 2975 4387 
Q 3406 4025 3406 3419 
Q 3406 3131 3298 2873 
Q 3191 2616 2906 2266 
Q 2828 2175 2409 1742 
Q 1991 1309 1228 531 
z
" transform="scale(0.015625)"/>
       </defs>
       <use xlink:href="#DejaVuSans-30"/>
       <use xlink:href="#DejaVuSans-2e" x="63.623047"/>
       <use xlink:href="#DejaVuSans-32" x="95.410156"/>
       <use xlink:href="#DejaVuSans-30" x="159.033203"/>
      </g>
     </g>
    </g>
    <g id="xtick_6">
     <g id="line2d_6">
      <g>
       <use xlink:href="#m0b49b4c7e3" x="376.507487" y="307.584" style="stroke: #000000; stroke-width: 0.8"/>
      </g>
     </g>
     <g id="text_6">
      <!-- 0.25 -->
      <g transform="translate(365.374675 322.182437) scale(0.1 -0.1)">
       <use xlink:href="#DejaVuSans-30"/>
       <use xlink:href="#DejaVuSans-2e" x="63.623047"/>
       <use xlink:href="#DejaVuSans-32" x="95.410156"/>
       <use xlink:href="#DejaVuSans-35" x="159.033203"/>
      </g>
     </g>
    </g>
    <g id="text_7">
     <!-- $C ~ [dimensionless]$ -->
     <g transform="translate(191.56 335.860562) scale(0.1 -0.1)">
      <defs>
       <path id="DejaVuSans-Oblique-43" d="M 4447 4306 
L 4319 3641 
Q 4019 3944 3683 4091 
Q 3347 4238 2956 4238 
Q 2422 4238 2017 3981 
Q 1613 3725 1319 3200 
Q 1131 2863 1032 2486 
Q 934 2109 934 1728 
Q 934 1091 1264 756 
Q 1594 422 2222 422 
Q 2656 422 3056 561 
Q 3456 700 3834 978 
L 3688 231 
Q 3316 72 2936 -9 
Q 2556 -91 2175 -91 
Q 1278 -91 773 396 
Q 269 884 269 1753 
Q 269 2309 461 2846 
Q 653 3384 1013 3828 
Q 1394 4300 1883 4525 
Q 2372 4750 3022 4750 
Q 3422 4750 3780 4639 
Q 4138 4528 4447 4306 
z
" transform="scale(0.015625)"/>
       <path id="DejaVuSans-5b" d="M 550 4863 
L 1875 4863 
L 1875 4416 
L 1125 4416 
L 1125 -397 
L 1875 -397 
L 1875 -844 
L 550 -844 
L 550 4863 
z
" transform="scale(0.015625)"/>
       <path id="DejaVuSans-Oblique-64" d="M 2675 525 
Q 2444 222 2128 65 
Q 1813 -91 1428 -91 
Q 903 -91 598 267 
Q 294 625 294 1247 
Q 294 1766 478 2236 
Q 663 2706 1013 3078 
Q 1244 3325 1534 3454 
Q 1825 3584 2144 3584 
Q 2481 3584 2739 3421 
Q 2997 3259 3138 2956 
L 3513 4863 
L 4091 4863 
L 3144 0 
L 2566 0 
L 2675 525 
z
M 891 1350 
Q 891 897 1095 644 
Q 1300 391 1663 391 
Q 1931 391 2161 520 
Q 2391 650 2566 903 
Q 2750 1166 2856 1509 
Q 2963 1853 2963 2188 
Q 2963 2622 2758 2865 
Q 2553 3109 2194 3109 
Q 1922 3109 1687 2981 
Q 1453 2853 1288 2613 
Q 1106 2353 998 2009 
Q 891 1666 891 1350 
z
" transform="scale(0.015625)"/>
       <path id="DejaVuSans-Oblique-69" d="M 1172 4863 
L 1747 4863 
L 1606 4134 
L 1031 4134 
L 1172 4863 
z
M 909 3500 
L 1484 3500 
L 800 0 
L 225 0 
L 909 3500 
z
" transform="scale(0.015625)"/>
       <path id="DejaVuSans-Oblique-6d" d="M 5747 2113 
L 5338 0 
L 4763 0 
L 5166 2094 
Q 5191 2228 5203 2325 
Q 5216 2422 5216 2491 
Q 5216 2772 5059 2928 
Q 4903 3084 4622 3084 
Q 4203 3084 3875 2770 
Q 3547 2456 3450 1953 
L 3066 0 
L 2491 0 
L 2900 2094 
Q 2925 2209 2937 2307 
Q 2950 2406 2950 2484 
Q 2950 2769 2794 2926 
Q 2638 3084 2363 3084 
Q 1938 3084 1609 2770 
Q 1281 2456 1184 1953 
L 800 0 
L 225 0 
L 909 3500 
L 1484 3500 
L 1375 2956 
Q 1609 3263 1923 3423 
Q 2238 3584 2597 3584 
Q 2978 3584 3223 3384 
Q 3469 3184 3519 2828 
Q 3781 3197 4126 3390 
Q 4472 3584 4856 3584 
Q 5306 3584 5551 3325 
Q 5797 3066 5797 2591 
Q 5797 2488 5784 2364 
Q 5772 2241 5747 2113 
z
" transform="scale(0.015625)"/>
       <path id="DejaVuSans-Oblique-65" d="M 3078 2063 
Q 3088 2113 3092 2166 
Q 3097 2219 3097 2272 
Q 3097 2653 2873 2875 
Q 2650 3097 2266 3097 
Q 1838 3097 1509 2826 
Q 1181 2556 1013 2059 
L 3078 2063 
z
M 3578 1613 
L 903 1613 
Q 884 1494 878 1425 
Q 872 1356 872 1306 
Q 872 872 1139 634 
Q 1406 397 1894 397 
Q 2269 397 2603 481 
Q 2938 566 3225 728 
L 3116 159 
Q 2806 34 2476 -28 
Q 2147 -91 1806 -91 
Q 1078 -91 686 257 
Q 294 606 294 1247 
Q 294 1794 489 2264 
Q 684 2734 1063 3103 
Q 1306 3334 1642 3459 
Q 1978 3584 2356 3584 
Q 2950 3584 3301 3228 
Q 3653 2872 3653 2272 
Q 3653 2128 3634 1964 
Q 3616 1800 3578 1613 
z
" transform="scale(0.015625)"/>
       <path id="DejaVuSans-Oblique-6e" d="M 3566 2113 
L 3156 0 
L 2578 0 
L 2988 2091 
Q 3016 2238 3031 2350 
Q 3047 2463 3047 2528 
Q 3047 2791 2881 2937 
Q 2716 3084 2419 3084 
Q 1956 3084 1622 2776 
Q 1288 2469 1184 1941 
L 800 0 
L 225 0 
L 903 3500 
L 1478 3500 
L 1363 2950 
Q 1603 3253 1940 3418 
Q 2278 3584 2650 3584 
Q 3113 3584 3367 3334 
Q 3622 3084 3622 2631 
Q 3622 2519 3608 2391 
Q 3594 2263 3566 2113 
z
" transform="scale(0.015625)"/>
       <path id="DejaVuSans-Oblique-73" d="M 3200 3397 
L 3091 2853 
Q 2863 2978 2609 3040 
Q 2356 3103 2088 3103 
Q 1634 3103 1373 2948 
Q 1113 2794 1113 2528 
Q 1113 2219 1719 2053 
Q 1766 2041 1788 2034 
L 1972 1978 
Q 2547 1819 2739 1644 
Q 2931 1469 2931 1166 
Q 2931 609 2489 259 
Q 2047 -91 1331 -91 
Q 1053 -91 747 -37 
Q 441 16 72 128 
L 184 722 
Q 500 559 806 475 
Q 1113 391 1394 391 
Q 1816 391 2080 572 
Q 2344 753 2344 1031 
Q 2344 1331 1650 1516 
L 1591 1531 
L 1394 1581 
Q 956 1697 753 1886 
Q 550 2075 550 2369 
Q 550 2928 970 3256 
Q 1391 3584 2113 3584 
Q 2397 3584 2667 3537 
Q 2938 3491 3200 3397 
z
" transform="scale(0.015625)"/>
       <path id="DejaVuSans-Oblique-6f" d="M 1625 -91 
Q 1009 -91 651 289 
Q 294 669 294 1325 
Q 294 1706 417 2101 
Q 541 2497 738 2766 
Q 1047 3184 1428 3384 
Q 1809 3584 2291 3584 
Q 2888 3584 3255 3212 
Q 3622 2841 3622 2241 
Q 3622 1825 3500 1412 
Q 3378 1000 3181 728 
Q 2875 309 2494 109 
Q 2113 -91 1625 -91 
z
M 891 1344 
Q 891 869 1089 633 
Q 1288 397 1691 397 
Q 2269 397 2648 901 
Q 3028 1406 3028 2181 
Q 3028 2634 2825 2865 
Q 2622 3097 2228 3097 
Q 1903 3097 1650 2945 
Q 1397 2794 1197 2484 
Q 1050 2253 970 1956 
Q 891 1659 891 1344 
z
" transform="scale(0.015625)"/>
       <path id="DejaVuSans-Oblique-6c" d="M 1172 4863 
L 1747 4863 
L 800 0 
L 225 0 
L 1172 4863 
z
" transform="scale(0.015625)"/>
       <path id="DejaVuSans-5d" d="M 1947 4863 
L 1947 -844 
L 622 -844 
L 622 -397 
L 1369 -397 
L 1369 4416 
L 622 4416 
L 622 4863 
L 1947 4863 
z
" transform="scale(0.015625)"/>
      </defs>
      <use xlink:href="#DejaVuSans-Oblique-43" transform="translate(0 0.015625)"/>
      <use xlink:href="#DejaVuSans-5b" transform="translate(102.294597 0.015625)"/>
      <use xlink:href="#DejaVuSans-Oblique-64" transform="translate(141.308269 0.015625)"/>
      <use xlink:href="#DejaVuSans-Oblique-69" transform="translate(204.784832 0.015625)"/>
      <use xlink:href="#DejaVuSans-Oblique-6d" transform="translate(232.568035 0.015625)"/>
      <use xlink:href="#DejaVuSans-Oblique-65" transform="translate(329.980144 0.015625)"/>
      <use xlink:href="#DejaVuSans-Oblique-6e" transform="translate(391.503582 0.015625)"/>
      <use xlink:href="#DejaVuSans-Oblique-73" transform="translate(454.882488 0.015625)"/>
      <use xlink:href="#DejaVuSans-Oblique-69" transform="translate(506.982097 0.015625)"/>
      <use xlink:href="#DejaVuSans-Oblique-6f" transform="translate(534.7653 0.015625)"/>
      <use xlink:href="#DejaVuSans-Oblique-6e" transform="translate(595.946941 0.015625)"/>
      <use xlink:href="#DejaVuSans-Oblique-6c" transform="translate(659.325847 0.015625)"/>
      <use xlink:href="#DejaVuSans-Oblique-65" transform="translate(687.10905 0.015625)"/>
      <use xlink:href="#DejaVuSans-Oblique-73" transform="translate(748.632488 0.015625)"/>
      <use xlink:href="#DejaVuSans-Oblique-73" transform="translate(800.732097 0.015625)"/>
      <use xlink:href="#DejaVuSans-5d" transform="translate(852.831707 0.015625)"/>
     </g>
    </g>
   </g>
   <g id="matplotlib.axis_2">
    <g id="ytick_1">
     <g id="line2d_7">
      <defs>
       <path id="m28801af63d" d="M 0 0 
L -3.5 0 
" style="stroke: #000000; stroke-width: 0.8"/>
      </defs>
      <g>
       <use xlink:href="#m28801af63d" x="57.6" y="262.932719" style="stroke: #000000; stroke-width: 0.8"/>
      </g>
     </g>
     <g id="text_8">
      <!-- 0.05 -->
      <g transform="translate(28.334375 266.731938) scale(0.1 -0.1)">
       <use xlink:href="#DejaVuSans-30"/>
       <use xlink:href="#DejaVuSans-2e" x="63.623047"/>
       <use xlink:href="#DejaVuSans-30" x="95.410156"/>
       <use xlink:href="#DejaVuSans-35" x="159.033203"/>
      </g>
     </g>
    </g>
    <g id="ytick_2">
     <g id="line2d_8">
      <g>
       <use xlink:href="#m28801af63d" x="57.6" y="213.062337" style="stroke: #000000; stroke-width: 0.8"/>
      </g>
     </g>
     <g id="text_9">
      <!-- 0.10 -->
      <g transform="translate(28.334375 216.861556) scale(0.1 -0.1)">
       <use xlink:href="#DejaVuSans-30"/>
       <use xlink:href="#DejaVuSans-2e" x="63.623047"/>
       <use xlink:href="#DejaVuSans-31" x="95.410156"/>
       <use xlink:href="#DejaVuSans-30" x="159.033203"/>
      </g>
     </g>
    </g>
    <g id="ytick_3">
     <g id="line2d_9">
      <g>
       <use xlink:href="#m28801af63d" x="57.6" y="163.191955" style="stroke: #000000; stroke-width: 0.8"/>
      </g>
     </g>
     <g id="text_10">
      <!-- 0.15 -->
      <g transform="translate(28.334375 166.991173) scale(0.1 -0.1)">
       <use xlink:href="#DejaVuSans-30"/>
       <use xlink:href="#DejaVuSans-2e" x="63.623047"/>
       <use xlink:href="#DejaVuSans-31" x="95.410156"/>
       <use xlink:href="#DejaVuSans-35" x="159.033203"/>
      </g>
     </g>
    </g>
    <g id="ytick_4">
     <g id="line2d_10">
      <g>
       <use xlink:href="#m28801af63d" x="57.6" y="113.321572" style="stroke: #000000; stroke-width: 0.8"/>
      </g>
     </g>
     <g id="text_11">
      <!-- 0.20 -->
      <g transform="translate(28.334375 117.120791) scale(0.1 -0.1)">
       <use xlink:href="#DejaVuSans-30"/>
       <use xlink:href="#DejaVuSans-2e" x="63.623047"/>
       <use xlink:href="#DejaVuSans-32" x="95.410156"/>
       <use xlink:href="#DejaVuSans-30" x="159.033203"/>
      </g>
     </g>
    </g>
    <g id="ytick_5">
     <g id="line2d_11">
      <g>
       <use xlink:href="#m28801af63d" x="57.6" y="63.45119" style="stroke: #000000; stroke-width: 0.8"/>
      </g>
     </g>
     <g id="text_12">
      <!-- 0.25 -->
      <g transform="translate(28.334375 67.250409) scale(0.1 -0.1)">
       <use xlink:href="#DejaVuSans-30"/>
       <use xlink:href="#DejaVuSans-2e" x="63.623047"/>
       <use xlink:href="#DejaVuSans-32" x="95.410156"/>
       <use xlink:href="#DejaVuSans-35" x="159.033203"/>
      </g>
     </g>
    </g>
    <g id="text_13">
     <!-- $k2 ~ [dimensionless]$ -->
     <g transform="translate(22.254687 221.728) rotate(-90) scale(0.1 -0.1)">
      <defs>
       <path id="DejaVuSans-Oblique-6b" d="M 1172 4863 
L 1747 4863 
L 1197 2028 
L 3169 3500 
L 3916 3500 
L 1716 1825 
L 3322 0 
L 2625 0 
L 1131 1709 
L 800 0 
L 225 0 
L 1172 4863 
z
" transform="scale(0.015625)"/>
      </defs>
      <use xlink:href="#DejaVuSans-Oblique-6b" transform="translate(0 0.015625)"/>
      <use xlink:href="#DejaVuSans-32" transform="translate(57.910156 0.015625)"/>
      <use xlink:href="#DejaVuSans-5b" transform="translate(154.003582 0.015625)"/>
      <use xlink:href="#DejaVuSans-Oblique-64" transform="translate(193.017253 0.015625)"/>
      <use xlink:href="#DejaVuSans-Oblique-69" transform="translate(256.493816 0.015625)"/>
      <use xlink:href="#DejaVuSans-Oblique-6d" transform="translate(284.277019 0.015625)"/>
      <use xlink:href="#DejaVuSans-Oblique-65" transform="translate(381.689128 0.015625)"/>
      <use xlink:href="#DejaVuSans-Oblique-6e" transform="translate(443.212566 0.015625)"/>
      <use xlink:href="#DejaVuSans-Oblique-73" transform="translate(506.591472 0.015625)"/>
      <use xlink:href="#DejaVuSans-Oblique-69" transform="translate(558.691082 0.015625)"/>
      <use xlink:href="#DejaVuSans-Oblique-6f" transform="translate(586.474285 0.015625)"/>
      <use xlink:href="#DejaVuSans-Oblique-6e" transform="translate(647.655925 0.015625)"/>
      <use xlink:href="#DejaVuSans-Oblique-6c" transform="translate(711.034832 0.015625)"/>
      <use xlink:href="#DejaVuSans-Oblique-65" transform="translate(738.818035 0.015625)"/>
      <use xlink:href="#DejaVuSans-Oblique-73" transform="translate(800.341472 0.015625)"/>
      <use xlink:href="#DejaVuSans-Oblique-73" transform="translate(852.441082 0.015625)"/>
      <use xlink:href="#DejaVuSans-5d" transform="translate(904.540691 0.015625)"/>
     </g>
    </g>
   </g>
   <g id="line2d_12">
    <path d="M 77.048701 58.136835 
L 77.446774 58.710815 
L 77.893758 59.32728 
L 78.395544 60.026248 
L 78.958679 60.814082 
L 79.590559 61.701057 
L 80.299312 62.689228 
L 81.094092 63.795623 
L 81.985006 65.032828 
L 82.983212 66.409554 
L 84.101184 67.947029 
L 85.352657 69.662473 
L 86.75269 71.567931 
L 88.318006 73.689092 
L 90.066759 76.040654 
L 92.018936 78.647866 
L 94.196236 81.533118 
L 96.622117 84.717464 
L 99.321923 88.22487 
L 102.322849 92.080075 
L 105.653785 96.305306 
L 109.34521 100.921178 
L 113.429071 105.947891 
L 117.938391 111.401972 
L 122.90676 117.294319 
L 128.368029 123.632884 
L 134.355288 130.416771 
L 140.900289 137.638591 
L 148.03216 145.280656 
L 155.776391 153.315671 
L 164.153357 161.70484 
L 173.176833 170.397666 
L 182.852418 179.332081 
L 193.17589 188.435179 
L 204.131745 197.624745 
L 215.691601 206.810935 
L 227.813315 215.899813 
L 240.440017 224.796184 
L 253.500143 233.407875 
L 266.907727 241.64934 
L 280.563571 249.445383 
L 294.357145 256.734271 
L 308.169078 263.469907 
L 321.874335 269.623037 
L 335.345706 275.181185 
L 348.457605 280.147836 
L 361.089728 284.540379 
L 373.130543 288.387595 
L 384.480199 291.726824 
L 395.052898 294.601028 
" clip-path="url(#pe2d17b2105)" style="fill: none; stroke: #1f77b4; stroke-linecap: square"/>
    <defs>
     <path id="m67d6dfa32f" d="M 0 1.5 
C 0.397805 1.5 0.77937 1.341951 1.06066 1.06066 
C 1.341951 0.77937 1.5 0.397805 1.5 0 
C 1.5 -0.397805 1.341951 -0.77937 1.06066 -1.06066 
C 0.77937 -1.341951 0.397805 -1.5 0 -1.5 
C -0.397805 -1.5 -0.77937 -1.341951 -1.06066 -1.06066 
C -1.341951 -0.77937 -1.5 -0.397805 -1.5 0 
C -1.5 0.397805 -1.341951 0.77937 -1.06066 1.06066 
C -0.77937 1.341951 -0.397805 1.5 0 1.5 
z
" style="stroke: #1f77b4"/>
    </defs>
    <g clip-path="url(#pe2d17b2105)">
     <use xlink:href="#m67d6dfa32f" x="77.048701" y="58.136835" style="fill: #1f77b4; stroke: #1f77b4"/>
     <use xlink:href="#m67d6dfa32f" x="77.446774" y="58.710815" style="fill: #1f77b4; stroke: #1f77b4"/>
     <use xlink:href="#m67d6dfa32f" x="77.893758" y="59.32728" style="fill: #1f77b4; stroke: #1f77b4"/>
     <use xlink:href="#m67d6dfa32f" x="78.395544" y="60.026248" style="fill: #1f77b4; stroke: #1f77b4"/>
     <use xlink:href="#m67d6dfa32f" x="78.958679" y="60.814082" style="fill: #1f77b4; stroke: #1f77b4"/>
     <use xlink:href="#m67d6dfa32f" x="79.590559" y="61.701057" style="fill: #1f77b4; stroke: #1f77b4"/>
     <use xlink:href="#m67d6dfa32f" x="80.299312" y="62.689228" style="fill: #1f77b4; stroke: #1f77b4"/>
     <use xlink:href="#m67d6dfa32f" x="81.094092" y="63.795623" style="fill: #1f77b4; stroke: #1f77b4"/>
     <use xlink:href="#m67d6dfa32f" x="81.985006" y="65.032828" style="fill: #1f77b4; stroke: #1f77b4"/>
     <use xlink:href="#m67d6dfa32f" x="82.983212" y="66.409554" style="fill: #1f77b4; stroke: #1f77b4"/>
     <use xlink:href="#m67d6dfa32f" x="84.101184" y="67.947029" style="fill: #1f77b4; stroke: #1f77b4"/>
     <use xlink:href="#m67d6dfa32f" x="85.352657" y="69.662473" style="fill: #1f77b4; stroke: #1f77b4"/>
     <use xlink:href="#m67d6dfa32f" x="86.75269" y="71.567931" style="fill: #1f77b4; stroke: #1f77b4"/>
     <use xlink:href="#m67d6dfa32f" x="88.318006" y="73.689092" style="fill: #1f77b4; stroke: #1f77b4"/>
     <use xlink:href="#m67d6dfa32f" x="90.066759" y="76.040654" style="fill: #1f77b4; stroke: #1f77b4"/>
     <use xlink:href="#m67d6dfa32f" x="92.018936" y="78.647866" style="fill: #1f77b4; stroke: #1f77b4"/>
     <use xlink:href="#m67d6dfa32f" x="94.196236" y="81.533118" style="fill: #1f77b4; stroke: #1f77b4"/>
     <use xlink:href="#m67d6dfa32f" x="96.622117" y="84.717464" style="fill: #1f77b4; stroke: #1f77b4"/>
     <use xlink:href="#m67d6dfa32f" x="99.321923" y="88.22487" style="fill: #1f77b4; stroke: #1f77b4"/>
     <use xlink:href="#m67d6dfa32f" x="102.322849" y="92.080075" style="fill: #1f77b4; stroke: #1f77b4"/>
     <use xlink:href="#m67d6dfa32f" x="105.653785" y="96.305306" style="fill: #1f77b4; stroke: #1f77b4"/>
     <use xlink:href="#m67d6dfa32f" x="109.34521" y="100.921178" style="fill: #1f77b4; stroke: #1f77b4"/>
     <use xlink:href="#m67d6dfa32f" x="113.429071" y="105.947891" style="fill: #1f77b4; stroke: #1f77b4"/>
     <use xlink:href="#m67d6dfa32f" x="117.938391" y="111.401972" style="fill: #1f77b4; stroke: #1f77b4"/>
     <use xlink:href="#m67d6dfa32f" x="122.90676" y="117.294319" style="fill: #1f77b4; stroke: #1f77b4"/>
     <use xlink:href="#m67d6dfa32f" x="128.368029" y="123.632884" style="fill: #1f77b4; stroke: #1f77b4"/>
     <use xlink:href="#m67d6dfa32f" x="134.355288" y="130.416771" style="fill: #1f77b4; stroke: #1f77b4"/>
     <use xlink:href="#m67d6dfa32f" x="140.900289" y="137.638591" style="fill: #1f77b4; stroke: #1f77b4"/>
     <use xlink:href="#m67d6dfa32f" x="148.03216" y="145.280656" style="fill: #1f77b4; stroke: #1f77b4"/>
     <use xlink:href="#m67d6dfa32f" x="155.776391" y="153.315671" style="fill: #1f77b4; stroke: #1f77b4"/>
     <use xlink:href="#m67d6dfa32f" x="164.153357" y="161.70484" style="fill: #1f77b4; stroke: #1f77b4"/>
     <use xlink:href="#m67d6dfa32f" x="173.176833" y="170.397666" style="fill: #1f77b4; stroke: #1f77b4"/>
     <use xlink:href="#m67d6dfa32f" x="182.852418" y="179.332081" style="fill: #1f77b4; stroke: #1f77b4"/>
     <use xlink:href="#m67d6dfa32f" x="193.17589" y="188.435179" style="fill: #1f77b4; stroke: #1f77b4"/>
     <use xlink:href="#m67d6dfa32f" x="204.131745" y="197.624745" style="fill: #1f77b4; stroke: #1f77b4"/>
     <use xlink:href="#m67d6dfa32f" x="215.691601" y="206.810935" style="fill: #1f77b4; stroke: #1f77b4"/>
     <use xlink:href="#m67d6dfa32f" x="227.813315" y="215.899813" style="fill: #1f77b4; stroke: #1f77b4"/>
     <use xlink:href="#m67d6dfa32f" x="240.440017" y="224.796184" style="fill: #1f77b4; stroke: #1f77b4"/>
     <use xlink:href="#m67d6dfa32f" x="253.500143" y="233.407875" style="fill: #1f77b4; stroke: #1f77b4"/>
     <use xlink:href="#m67d6dfa32f" x="266.907727" y="241.64934" style="fill: #1f77b4; stroke: #1f77b4"/>
     <use xlink:href="#m67d6dfa32f" x="280.563571" y="249.445383" style="fill: #1f77b4; stroke: #1f77b4"/>
     <use xlink:href="#m67d6dfa32f" x="294.357145" y="256.734271" style="fill: #1f77b4; stroke: #1f77b4"/>
     <use xlink:href="#m67d6dfa32f" x="308.169078" y="263.469907" style="fill: #1f77b4; stroke: #1f77b4"/>
     <use xlink:href="#m67d6dfa32f" x="321.874335" y="269.623037" style="fill: #1f77b4; stroke: #1f77b4"/>
     <use xlink:href="#m67d6dfa32f" x="335.345706" y="275.181185" style="fill: #1f77b4; stroke: #1f77b4"/>
     <use xlink:href="#m67d6dfa32f" x="348.457605" y="280.147836" style="fill: #1f77b4; stroke: #1f77b4"/>
     <use xlink:href="#m67d6dfa32f" x="361.089728" y="284.540379" style="fill: #1f77b4; stroke: #1f77b4"/>
     <use xlink:href="#m67d6dfa32f" x="373.130543" y="288.387595" style="fill: #1f77b4; stroke: #1f77b4"/>
     <use xlink:href="#m67d6dfa32f" x="384.480199" y="291.726824" style="fill: #1f77b4; stroke: #1f77b4"/>
     <use xlink:href="#m67d6dfa32f" x="395.052898" y="294.601028" style="fill: #1f77b4; stroke: #1f77b4"/>
    </g>
   </g>
   <g id="line2d_13">
    <path d="M 73.832727 53.568 
L 86.659343 71.441049 
L 121.554032 115.701758 
L 169.851947 167.235434 
L 222.139773 211.713827 
L 271.477992 244.324345 
L 314.223097 266.251529 
L 349.288569 280.448396 
L 377.046593 289.570422 
L 398.487273 295.488 
" clip-path="url(#pe2d17b2105)" style="fill: none; stroke: #ff7f0e; stroke-linecap: square"/>
   </g>
   <g id="patch_3">
    <path d="M 57.6 307.584 
L 57.6 41.472 
" style="fill: none; stroke: #000000; stroke-width: 0.8; stroke-linejoin: miter; stroke-linecap: square"/>
   </g>
   <g id="patch_4">
    <path d="M 414.72 307.584 
L 414.72 41.472 
" style="fill: none; stroke: #000000; stroke-width: 0.8; stroke-linejoin: miter; stroke-linecap: square"/>
   </g>
   <g id="patch_5">
    <path d="M 57.6 307.584 
L 414.72 307.584 
" style="fill: none; stroke: #000000; stroke-width: 0.8; stroke-linejoin: miter; stroke-linecap: square"/>
   </g>
   <g id="patch_6">
    <path d="M 57.6 41.472 
L 414.72 41.472 
" style="fill: none; stroke: #000000; stroke-width: 0.8; stroke-linejoin: miter; stroke-linecap: square"/>
   </g>
   <g id="text_14">
    <!-- Love number vs Compactness curve of the Polytropic EOS star family -->
    <g transform="translate(27.932813 22.1664) scale(0.12 -0.12)">
     <defs>
      <path id="DejaVuSans-4c" d="M 628 4666 
L 1259 4666 
L 1259 531 
L 3531 531 
L 3531 0 
L 628 0 
L 628 4666 
z
" transform="scale(0.015625)"/>
      <path id="DejaVuSans-6f" d="M 1959 3097 
Q 1497 3097 1228 2736 
Q 959 2375 959 1747 
Q 959 1119 1226 758 
Q 1494 397 1959 397 
Q 2419 397 2687 759 
Q 2956 1122 2956 1747 
Q 2956 2369 2687 2733 
Q 2419 3097 1959 3097 
z
M 1959 3584 
Q 2709 3584 3137 3096 
Q 3566 2609 3566 1747 
Q 3566 888 3137 398 
Q 2709 -91 1959 -91 
Q 1206 -91 779 398 
Q 353 888 353 1747 
Q 353 2609 779 3096 
Q 1206 3584 1959 3584 
z
" transform="scale(0.015625)"/>
      <path id="DejaVuSans-76" d="M 191 3500 
L 800 3500 
L 1894 563 
L 2988 3500 
L 3597 3500 
L 2284 0 
L 1503 0 
L 191 3500 
z
" transform="scale(0.015625)"/>
      <path id="DejaVuSans-65" d="M 3597 1894 
L 3597 1613 
L 953 1613 
Q 991 1019 1311 708 
Q 1631 397 2203 397 
Q 2534 397 2845 478 
Q 3156 559 3463 722 
L 3463 178 
Q 3153 47 2828 -22 
Q 2503 -91 2169 -91 
Q 1331 -91 842 396 
Q 353 884 353 1716 
Q 353 2575 817 3079 
Q 1281 3584 2069 3584 
Q 2775 3584 3186 3129 
Q 3597 2675 3597 1894 
z
M 3022 2063 
Q 3016 2534 2758 2815 
Q 2500 3097 2075 3097 
Q 1594 3097 1305 2825 
Q 1016 2553 972 2059 
L 3022 2063 
z
" transform="scale(0.015625)"/>
      <path id="DejaVuSans-20" transform="scale(0.015625)"/>
      <path id="DejaVuSans-6e" d="M 3513 2113 
L 3513 0 
L 2938 0 
L 2938 2094 
Q 2938 2591 2744 2837 
Q 2550 3084 2163 3084 
Q 1697 3084 1428 2787 
Q 1159 2491 1159 1978 
L 1159 0 
L 581 0 
L 581 3500 
L 1159 3500 
L 1159 2956 
Q 1366 3272 1645 3428 
Q 1925 3584 2291 3584 
Q 2894 3584 3203 3211 
Q 3513 2838 3513 2113 
z
" transform="scale(0.015625)"/>
      <path id="DejaVuSans-75" d="M 544 1381 
L 544 3500 
L 1119 3500 
L 1119 1403 
Q 1119 906 1312 657 
Q 1506 409 1894 409 
Q 2359 409 2629 706 
Q 2900 1003 2900 1516 
L 2900 3500 
L 3475 3500 
L 3475 0 
L 2900 0 
L 2900 538 
Q 2691 219 2414 64 
Q 2138 -91 1772 -91 
Q 1169 -91 856 284 
Q 544 659 544 1381 
z
M 1991 3584 
L 1991 3584 
z
" transform="scale(0.015625)"/>
      <path id="DejaVuSans-6d" d="M 3328 2828 
Q 3544 3216 3844 3400 
Q 4144 3584 4550 3584 
Q 5097 3584 5394 3201 
Q 5691 2819 5691 2113 
L 5691 0 
L 5113 0 
L 5113 2094 
Q 5113 2597 4934 2840 
Q 4756 3084 4391 3084 
Q 3944 3084 3684 2787 
Q 3425 2491 3425 1978 
L 3425 0 
L 2847 0 
L 2847 2094 
Q 2847 2600 2669 2842 
Q 2491 3084 2119 3084 
Q 1678 3084 1418 2786 
Q 1159 2488 1159 1978 
L 1159 0 
L 581 0 
L 581 3500 
L 1159 3500 
L 1159 2956 
Q 1356 3278 1631 3431 
Q 1906 3584 2284 3584 
Q 2666 3584 2933 3390 
Q 3200 3197 3328 2828 
z
" transform="scale(0.015625)"/>
      <path id="DejaVuSans-62" d="M 3116 1747 
Q 3116 2381 2855 2742 
Q 2594 3103 2138 3103 
Q 1681 3103 1420 2742 
Q 1159 2381 1159 1747 
Q 1159 1113 1420 752 
Q 1681 391 2138 391 
Q 2594 391 2855 752 
Q 3116 1113 3116 1747 
z
M 1159 2969 
Q 1341 3281 1617 3432 
Q 1894 3584 2278 3584 
Q 2916 3584 3314 3078 
Q 3713 2572 3713 1747 
Q 3713 922 3314 415 
Q 2916 -91 2278 -91 
Q 1894 -91 1617 61 
Q 1341 213 1159 525 
L 1159 0 
L 581 0 
L 581 4863 
L 1159 4863 
L 1159 2969 
z
" transform="scale(0.015625)"/>
      <path id="DejaVuSans-72" d="M 2631 2963 
Q 2534 3019 2420 3045 
Q 2306 3072 2169 3072 
Q 1681 3072 1420 2755 
Q 1159 2438 1159 1844 
L 1159 0 
L 581 0 
L 581 3500 
L 1159 3500 
L 1159 2956 
Q 1341 3275 1631 3429 
Q 1922 3584 2338 3584 
Q 2397 3584 2469 3576 
Q 2541 3569 2628 3553 
L 2631 2963 
z
" transform="scale(0.015625)"/>
      <path id="DejaVuSans-73" d="M 2834 3397 
L 2834 2853 
Q 2591 2978 2328 3040 
Q 2066 3103 1784 3103 
Q 1356 3103 1142 2972 
Q 928 2841 928 2578 
Q 928 2378 1081 2264 
Q 1234 2150 1697 2047 
L 1894 2003 
Q 2506 1872 2764 1633 
Q 3022 1394 3022 966 
Q 3022 478 2636 193 
Q 2250 -91 1575 -91 
Q 1294 -91 989 -36 
Q 684 19 347 128 
L 347 722 
Q 666 556 975 473 
Q 1284 391 1588 391 
Q 1994 391 2212 530 
Q 2431 669 2431 922 
Q 2431 1156 2273 1281 
Q 2116 1406 1581 1522 
L 1381 1569 
Q 847 1681 609 1914 
Q 372 2147 372 2553 
Q 372 3047 722 3315 
Q 1072 3584 1716 3584 
Q 2034 3584 2315 3537 
Q 2597 3491 2834 3397 
z
" transform="scale(0.015625)"/>
      <path id="DejaVuSans-43" d="M 4122 4306 
L 4122 3641 
Q 3803 3938 3442 4084 
Q 3081 4231 2675 4231 
Q 1875 4231 1450 3742 
Q 1025 3253 1025 2328 
Q 1025 1406 1450 917 
Q 1875 428 2675 428 
Q 3081 428 3442 575 
Q 3803 722 4122 1019 
L 4122 359 
Q 3791 134 3420 21 
Q 3050 -91 2638 -91 
Q 1578 -91 968 557 
Q 359 1206 359 2328 
Q 359 3453 968 4101 
Q 1578 4750 2638 4750 
Q 3056 4750 3426 4639 
Q 3797 4528 4122 4306 
z
" transform="scale(0.015625)"/>
      <path id="DejaVuSans-70" d="M 1159 525 
L 1159 -1331 
L 581 -1331 
L 581 3500 
L 1159 3500 
L 1159 2969 
Q 1341 3281 1617 3432 
Q 1894 3584 2278 3584 
Q 2916 3584 3314 3078 
Q 3713 2572 3713 1747 
Q 3713 922 3314 415 
Q 2916 -91 2278 -91 
Q 1894 -91 1617 61 
Q 1341 213 1159 525 
z
M 3116 1747 
Q 3116 2381 2855 2742 
Q 2594 3103 2138 3103 
Q 1681 3103 1420 2742 
Q 1159 2381 1159 1747 
Q 1159 1113 1420 752 
Q 1681 391 2138 391 
Q 2594 391 2855 752 
Q 3116 1113 3116 1747 
z
" transform="scale(0.015625)"/>
      <path id="DejaVuSans-61" d="M 2194 1759 
Q 1497 1759 1228 1600 
Q 959 1441 959 1056 
Q 959 750 1161 570 
Q 1363 391 1709 391 
Q 2188 391 2477 730 
Q 2766 1069 2766 1631 
L 2766 1759 
L 2194 1759 
z
M 3341 1997 
L 3341 0 
L 2766 0 
L 2766 531 
Q 2569 213 2275 61 
Q 1981 -91 1556 -91 
Q 1019 -91 701 211 
Q 384 513 384 1019 
Q 384 1609 779 1909 
Q 1175 2209 1959 2209 
L 2766 2209 
L 2766 2266 
Q 2766 2663 2505 2880 
Q 2244 3097 1772 3097 
Q 1472 3097 1187 3025 
Q 903 2953 641 2809 
L 641 3341 
Q 956 3463 1253 3523 
Q 1550 3584 1831 3584 
Q 2591 3584 2966 3190 
Q 3341 2797 3341 1997 
z
" transform="scale(0.015625)"/>
      <path id="DejaVuSans-63" d="M 3122 3366 
L 3122 2828 
Q 2878 2963 2633 3030 
Q 2388 3097 2138 3097 
Q 1578 3097 1268 2742 
Q 959 2388 959 1747 
Q 959 1106 1268 751 
Q 1578 397 2138 397 
Q 2388 397 2633 464 
Q 2878 531 3122 666 
L 3122 134 
Q 2881 22 2623 -34 
Q 2366 -91 2075 -91 
Q 1284 -91 818 406 
Q 353 903 353 1747 
Q 353 2603 823 3093 
Q 1294 3584 2113 3584 
Q 2378 3584 2631 3529 
Q 2884 3475 3122 3366 
z
" transform="scale(0.015625)"/>
      <path id="DejaVuSans-74" d="M 1172 4494 
L 1172 3500 
L 2356 3500 
L 2356 3053 
L 1172 3053 
L 1172 1153 
Q 1172 725 1289 603 
Q 1406 481 1766 481 
L 2356 481 
L 2356 0 
L 1766 0 
Q 1100 0 847 248 
Q 594 497 594 1153 
L 594 3053 
L 172 3053 
L 172 3500 
L 594 3500 
L 594 4494 
L 1172 4494 
z
" transform="scale(0.015625)"/>
      <path id="DejaVuSans-66" d="M 2375 4863 
L 2375 4384 
L 1825 4384 
Q 1516 4384 1395 4259 
Q 1275 4134 1275 3809 
L 1275 3500 
L 2222 3500 
L 2222 3053 
L 1275 3053 
L 1275 0 
L 697 0 
L 697 3053 
L 147 3053 
L 147 3500 
L 697 3500 
L 697 3744 
Q 697 4328 969 4595 
Q 1241 4863 1831 4863 
L 2375 4863 
z
" transform="scale(0.015625)"/>
      <path id="DejaVuSans-68" d="M 3513 2113 
L 3513 0 
L 2938 0 
L 2938 2094 
Q 2938 2591 2744 2837 
Q 2550 3084 2163 3084 
Q 1697 3084 1428 2787 
Q 1159 2491 1159 1978 
L 1159 0 
L 581 0 
L 581 4863 
L 1159 4863 
L 1159 2956 
Q 1366 3272 1645 3428 
Q 1925 3584 2291 3584 
Q 2894 3584 3203 3211 
Q 3513 2838 3513 2113 
z
" transform="scale(0.015625)"/>
      <path id="DejaVuSans-50" d="M 1259 4147 
L 1259 2394 
L 2053 2394 
Q 2494 2394 2734 2622 
Q 2975 2850 2975 3272 
Q 2975 3691 2734 3919 
Q 2494 4147 2053 4147 
L 1259 4147 
z
M 628 4666 
L 2053 4666 
Q 2838 4666 3239 4311 
Q 3641 3956 3641 3272 
Q 3641 2581 3239 2228 
Q 2838 1875 2053 1875 
L 1259 1875 
L 1259 0 
L 628 0 
L 628 4666 
z
" transform="scale(0.015625)"/>
      <path id="DejaVuSans-6c" d="M 603 4863 
L 1178 4863 
L 1178 0 
L 603 0 
L 603 4863 
z
" transform="scale(0.015625)"/>
      <path id="DejaVuSans-79" d="M 2059 -325 
Q 1816 -950 1584 -1140 
Q 1353 -1331 966 -1331 
L 506 -1331 
L 506 -850 
L 844 -850 
Q 1081 -850 1212 -737 
Q 1344 -625 1503 -206 
L 1606 56 
L 191 3500 
L 800 3500 
L 1894 763 
L 2988 3500 
L 3597 3500 
L 2059 -325 
z
" transform="scale(0.015625)"/>
      <path id="DejaVuSans-69" d="M 603 3500 
L 1178 3500 
L 1178 0 
L 603 0 
L 603 3500 
z
M 603 4863 
L 1178 4863 
L 1178 4134 
L 603 4134 
L 603 4863 
z
" transform="scale(0.015625)"/>
      <path id="DejaVuSans-45" d="M 628 4666 
L 3578 4666 
L 3578 4134 
L 1259 4134 
L 1259 2753 
L 3481 2753 
L 3481 2222 
L 1259 2222 
L 1259 531 
L 3634 531 
L 3634 0 
L 628 0 
L 628 4666 
z
" transform="scale(0.015625)"/>
      <path id="DejaVuSans-4f" d="M 2522 4238 
Q 1834 4238 1429 3725 
Q 1025 3213 1025 2328 
Q 1025 1447 1429 934 
Q 1834 422 2522 422 
Q 3209 422 3611 934 
Q 4013 1447 4013 2328 
Q 4013 3213 3611 3725 
Q 3209 4238 2522 4238 
z
M 2522 4750 
Q 3503 4750 4090 4092 
Q 4678 3434 4678 2328 
Q 4678 1225 4090 567 
Q 3503 -91 2522 -91 
Q 1538 -91 948 565 
Q 359 1222 359 2328 
Q 359 3434 948 4092 
Q 1538 4750 2522 4750 
z
" transform="scale(0.015625)"/>
      <path id="DejaVuSans-53" d="M 3425 4513 
L 3425 3897 
Q 3066 4069 2747 4153 
Q 2428 4238 2131 4238 
Q 1616 4238 1336 4038 
Q 1056 3838 1056 3469 
Q 1056 3159 1242 3001 
Q 1428 2844 1947 2747 
L 2328 2669 
Q 3034 2534 3370 2195 
Q 3706 1856 3706 1288 
Q 3706 609 3251 259 
Q 2797 -91 1919 -91 
Q 1588 -91 1214 -16 
Q 841 59 441 206 
L 441 856 
Q 825 641 1194 531 
Q 1563 422 1919 422 
Q 2459 422 2753 634 
Q 3047 847 3047 1241 
Q 3047 1584 2836 1778 
Q 2625 1972 2144 2069 
L 1759 2144 
Q 1053 2284 737 2584 
Q 422 2884 422 3419 
Q 422 4038 858 4394 
Q 1294 4750 2059 4750 
Q 2388 4750 2728 4690 
Q 3069 4631 3425 4513 
z
" transform="scale(0.015625)"/>
     </defs>
     <use xlink:href="#DejaVuSans-4c"/>
     <use xlink:href="#DejaVuSans-6f" x="53.962891"/>
     <use xlink:href="#DejaVuSans-76" x="115.144531"/>
     <use xlink:href="#DejaVuSans-65" x="174.324219"/>
     <use xlink:href="#DejaVuSans-20" x="235.847656"/>
     <use xlink:href="#DejaVuSans-6e" x="267.634766"/>
     <use xlink:href="#DejaVuSans-75" x="331.013672"/>
     <use xlink:href="#DejaVuSans-6d" x="394.392578"/>
     <use xlink:href="#DejaVuSans-62" x="491.804688"/>
     <use xlink:href="#DejaVuSans-65" x="555.28125"/>
     <use xlink:href="#DejaVuSans-72" x="616.804688"/>
     <use xlink:href="#DejaVuSans-20" x="657.917969"/>
     <use xlink:href="#DejaVuSans-76" x="689.705078"/>
     <use xlink:href="#DejaVuSans-73" x="748.884766"/>
     <use xlink:href="#DejaVuSans-20" x="800.984375"/>
     <use xlink:href="#DejaVuSans-43" x="832.771484"/>
     <use xlink:href="#DejaVuSans-6f" x="902.595703"/>
     <use xlink:href="#DejaVuSans-6d" x="963.777344"/>
     <use xlink:href="#DejaVuSans-70" x="1061.189453"/>
     <use xlink:href="#DejaVuSans-61" x="1124.666016"/>
     <use xlink:href="#DejaVuSans-63" x="1185.945312"/>
     <use xlink:href="#DejaVuSans-74" x="1240.925781"/>
     <use xlink:href="#DejaVuSans-6e" x="1280.134766"/>
     <use xlink:href="#DejaVuSans-65" x="1343.513672"/>
     <use xlink:href="#DejaVuSans-73" x="1405.037109"/>
     <use xlink:href="#DejaVuSans-73" x="1457.136719"/>
     <use xlink:href="#DejaVuSans-20" x="1509.236328"/>
     <use xlink:href="#DejaVuSans-63" x="1541.023438"/>
     <use xlink:href="#DejaVuSans-75" x="1596.003906"/>
     <use xlink:href="#DejaVuSans-72" x="1659.382812"/>
     <use xlink:href="#DejaVuSans-76" x="1700.496094"/>
     <use xlink:href="#DejaVuSans-65" x="1759.675781"/>
     <use xlink:href="#DejaVuSans-20" x="1821.199219"/>
     <use xlink:href="#DejaVuSans-6f" x="1852.986328"/>
     <use xlink:href="#DejaVuSans-66" x="1914.167969"/>
     <use xlink:href="#DejaVuSans-20" x="1949.373047"/>
     <use xlink:href="#DejaVuSans-74" x="1981.160156"/>
     <use xlink:href="#DejaVuSans-68" x="2020.369141"/>
     <use xlink:href="#DejaVuSans-65" x="2083.748047"/>
     <use xlink:href="#DejaVuSans-20" x="2145.271484"/>
     <use xlink:href="#DejaVuSans-50" x="2177.058594"/>
     <use xlink:href="#DejaVuSans-6f" x="2233.736328"/>
     <use xlink:href="#DejaVuSans-6c" x="2294.917969"/>
     <use xlink:href="#DejaVuSans-79" x="2322.701172"/>
     <use xlink:href="#DejaVuSans-74" x="2381.880859"/>
     <use xlink:href="#DejaVuSans-72" x="2421.089844"/>
     <use xlink:href="#DejaVuSans-6f" x="2459.953125"/>
     <use xlink:href="#DejaVuSans-70" x="2521.134766"/>
     <use xlink:href="#DejaVuSans-69" x="2584.611328"/>
     <use xlink:href="#DejaVuSans-63" x="2612.394531"/>
     <use xlink:href="#DejaVuSans-20" x="2667.375"/>
     <use xlink:href="#DejaVuSans-45" x="2699.162109"/>
     <use xlink:href="#DejaVuSans-4f" x="2762.345703"/>
     <use xlink:href="#DejaVuSans-53" x="2841.056641"/>
     <use xlink:href="#DejaVuSans-20" x="2904.533203"/>
     <use xlink:href="#DejaVuSans-73" x="2936.320312"/>
     <use xlink:href="#DejaVuSans-74" x="2988.419922"/>
     <use xlink:href="#DejaVuSans-61" x="3027.628906"/>
     <use xlink:href="#DejaVuSans-72" x="3088.908203"/>
     <use xlink:href="#DejaVuSans-20" x="3130.021484"/>
     <use xlink:href="#DejaVuSans-66" x="3161.808594"/>
     <use xlink:href="#DejaVuSans-61" x="3197.013672"/>
     <use xlink:href="#DejaVuSans-6d" x="3258.292969"/>
     <use xlink:href="#DejaVuSans-69" x="3355.705078"/>
     <use xlink:href="#DejaVuSans-6c" x="3383.488281"/>
     <use xlink:href="#DejaVuSans-79" x="3411.271484"/>
    </g>
   </g>
   <g id="legend_1">
    <g id="patch_7">
     <path d="M 291.47 78.82825 
L 407.72 78.82825 
Q 409.72 78.82825 409.72 76.82825 
L 409.72 48.472 
Q 409.72 46.472 407.72 46.472 
L 291.47 46.472 
Q 289.47 46.472 289.47 48.472 
L 289.47 76.82825 
Q 289.47 78.82825 291.47 78.82825 
z
" style="fill: #ffffff; opacity: 0.8; stroke: #cccccc; stroke-linejoin: miter"/>
    </g>
    <g id="line2d_14">
     <path d="M 293.47 54.570437 
L 303.47 54.570437 
L 313.47 54.570437 
" style="fill: none; stroke: #1f77b4; stroke-linecap: square"/>
     <g>
      <use xlink:href="#m67d6dfa32f" x="303.47" y="54.570437" style="fill: #1f77b4; stroke: #1f77b4"/>
     </g>
    </g>
    <g id="text_15">
     <!-- Calculated curve -->
     <g transform="translate(321.47 58.070437) scale(0.1 -0.1)">
      <defs>
       <path id="DejaVuSans-64" d="M 2906 2969 
L 2906 4863 
L 3481 4863 
L 3481 0 
L 2906 0 
L 2906 525 
Q 2725 213 2448 61 
Q 2172 -91 1784 -91 
Q 1150 -91 751 415 
Q 353 922 353 1747 
Q 353 2572 751 3078 
Q 1150 3584 1784 3584 
Q 2172 3584 2448 3432 
Q 2725 3281 2906 2969 
z
M 947 1747 
Q 947 1113 1208 752 
Q 1469 391 1925 391 
Q 2381 391 2643 752 
Q 2906 1113 2906 1747 
Q 2906 2381 2643 2742 
Q 2381 3103 1925 3103 
Q 1469 3103 1208 2742 
Q 947 2381 947 1747 
z
" transform="scale(0.015625)"/>
      </defs>
      <use xlink:href="#DejaVuSans-43"/>
      <use xlink:href="#DejaVuSans-61" x="69.824219"/>
      <use xlink:href="#DejaVuSans-6c" x="131.103516"/>
      <use xlink:href="#DejaVuSans-63" x="158.886719"/>
      <use xlink:href="#DejaVuSans-75" x="213.867188"/>
      <use xlink:href="#DejaVuSans-6c" x="277.246094"/>
      <use xlink:href="#DejaVuSans-61" x="305.029297"/>
      <use xlink:href="#DejaVuSans-74" x="366.308594"/>
      <use xlink:href="#DejaVuSans-65" x="405.517578"/>
      <use xlink:href="#DejaVuSans-64" x="467.041016"/>
      <use xlink:href="#DejaVuSans-20" x="530.517578"/>
      <use xlink:href="#DejaVuSans-63" x="562.304688"/>
      <use xlink:href="#DejaVuSans-75" x="617.285156"/>
      <use xlink:href="#DejaVuSans-72" x="680.664062"/>
      <use xlink:href="#DejaVuSans-76" x="721.777344"/>
      <use xlink:href="#DejaVuSans-65" x="780.957031"/>
     </g>
    </g>
    <g id="line2d_15">
     <path d="M 293.47 69.248562 
L 303.47 69.248562 
L 313.47 69.248562 
" style="fill: none; stroke: #ff7f0e; stroke-linecap: square"/>
    </g>
    <g id="text_16">
     <!-- Expected curve -->
     <g transform="translate(321.47 72.748562) scale(0.1 -0.1)">
      <defs>
       <path id="DejaVuSans-78" d="M 3513 3500 
L 2247 1797 
L 3578 0 
L 2900 0 
L 1881 1375 
L 863 0 
L 184 0 
L 1544 1831 
L 300 3500 
L 978 3500 
L 1906 2253 
L 2834 3500 
L 3513 3500 
z
" transform="scale(0.015625)"/>
      </defs>
      <use xlink:href="#DejaVuSans-45"/>
      <use xlink:href="#DejaVuSans-78" x="63.183594"/>
      <use xlink:href="#DejaVuSans-70" x="122.363281"/>
      <use xlink:href="#DejaVuSans-65" x="185.839844"/>
      <use xlink:href="#DejaVuSans-63" x="247.363281"/>
      <use xlink:href="#DejaVuSans-74" x="302.34375"/>
      <use xlink:href="#DejaVuSans-65" x="341.552734"/>
      <use xlink:href="#DejaVuSans-64" x="403.076172"/>
      <use xlink:href="#DejaVuSans-20" x="466.552734"/>
      <use xlink:href="#DejaVuSans-63" x="498.339844"/>
      <use xlink:href="#DejaVuSans-75" x="553.320312"/>
      <use xlink:href="#DejaVuSans-72" x="616.699219"/>
      <use xlink:href="#DejaVuSans-76" x="657.8125"/>
      <use xlink:href="#DejaVuSans-65" x="716.992188"/>
     </g>
    </g>
   </g>
  </g>
 </g>
 <defs>
  <clipPath id="pe2d17b2105">
   <rect x="57.6" y="41.472" width="357.12" height="266.112"/>
  </clipPath>
 </defs>
</svg>
